<svg width="379" height="482" fill="none" xmlns="http://www.w3.org/2000/svg"><path fill-rule="evenodd" clip-rule="evenodd" d="M216.852 272.299c19.547 4.987 36.453 14.909 51.267 28.354 4.64 4.211 8.45 9.408 12.256 14.445 2.341 3.096 1.837 6.809.248 10.24-5.425 11.708-12.778 22.18-20.427 32.513-8.191 11.064-15.952 22.447-23.912 33.682-1.566 2.211-.994 3.27 1.44 4.592 6.611 3.591 12.997 7.599 19.431 11.508.901.547 1.666 1.395 2.335 2.232 2.345 2.934 1.688 5.017-2.033 5.323-5.08.418-10.203.311-15.309.385-9.074.134-18.149.355-27.221.283-3.066-.023-6.161-.653-9.175-1.316-2.9-.639-4.257-2.857-3.756-5.686.811-4.57 2.066-9.058 2.999-13.608 2.427-11.828 4.676-23.694 7.202-35.501 1.572-7.35 3.516-14.62 5.429-22.484-4.672-1.032-9.71-2.485-14.852-3.214-10.781-1.529-21.592-2.956-32.438-3.837-4.025-.326-8.22 1.643-12.271 1.411-5.483-.314-9.157 1.936-13.306 5.203-11.868 9.346-24.295 17.979-36.455 26.957-5.596 4.131-11.103 8.384-16.61 12.635-4.32 3.335-7.403 7.457-8.23 13.058-1.654 11.195-8.723 18.94-16.689 26.133-6.851 6.187-14.059 12.065-20.282 18.841-9.144 9.954-9.173 15.915-1.765 27.273 4.204 6.447 3.808 8.647-1.998 13.715-12.043 10.513-26.635 7.276-37.576-1.816a22.591 22.591 0 0 1-3.054-3.061c-2.147-2.63-3.084-5.463-.685-8.456 1.64-2.045 3.227-4.183 5.141-5.95 11.285-10.417 16.856-23.32 18.826-38.53 2.205-17.024 6.056-33.793 13.827-49.35 2.1-4.202 3.922-4.968 8.004-2.819 1.873.985 2.727.403 4.303-.607 6.236-3.992 8.961-9.697 10.436-16.818 4.025-19.432 11.29-37.546 24.486-53.654-9.8 1.594-18.83 1.044-27.865-.492-27.407-4.659-33.742-32.664-28.734-50.268 3.818-13.422 12.306-22.562 25.647-26.922 5.33-1.742 7.96-6.383 11.21-10.259 4.388-5.233 8.285-10.876 12.504-16.256 6.57-8.38 14.282-15.201 25.707-17.586-11.187-1.768-18.094-9.911-18.666-21.501-.256-5.18.053-10.266 2.374-15.13 1.534-3.215 3.678-5.197 7.55-5.576-1.542-4.927-3.13-9.645-4.492-14.428-3.954-13.891-6.63-27.986-6.574-42.51.02-5.283-2.845-8.195-8.06-7.193-3.543.68-6.79 2.912-10.151 4.441-3.35-7.903 2.121-21.091 14.061-32.002l-7.78 1.7c4.63-8.07 10.992-12.42 19.468-12.567 6.416-.11 12.844 1.31 19.283 1.498 4.532.134 9.09-.657 13.711-1.656-4.249-2.443-8.355-4.494-10.309-9.212 5.086-.262 9.924-.286 14.707-.813 6.165-.68 11.638-3.29 16.861-6.626 5.137-3.28 10.226-6.94 15.85-9.083 11.471-4.372 21.969-.945 31.185 6.396 3.4 2.709 5.933 6.495 8.973 9.683.705.739 1.891 1.523 2.813 1.474 11.272-.596 20.237 3.54 26.963 12.648.662.897 1.984 1.959 2.926 1.891 9.245-.66 14.498 4.987 19.207 11.713 2.009 2.87 2.704 5.715 2.275 9.355-.757 6.416-.503 12.944-.975 19.403-1.11 15.165-2.4 30.318-3.62 45.476-.036.446-.119.889-.193 1.431 6.278.499 7.597 5.287 9.004 9.915 1.712 5.631 1.682 5.494 7.744 6.266 6.878.876 13.703 2.162 20.582 3.02 1.238.154 3.028-.542 3.878-1.473 4.409-4.827 8.011-5.788 14.459-3.735 12.178 3.88 23.357 9.861 34.108 16.594 11.605 7.268 22.73 15.198 31.59 25.913 4.795 5.802 6.429 12.118 4.627 19.421-.337 1.366-.257 2.877-.14 4.303.283 3.479-.739 6.274-3.431 8.641-.789.695-.705 2.386-1.009 3.624-.026.106.035.235.062.352 2.093 8.795 1.986 9.08-5.062 13.31-5.442 3.266-8.796 2.82-14.24-1.864-.533-.46-1.141-.831-1.643-1.192-.371.134-.655.149-.796.299-3.918 4.188-3.909 4.176-9.209 1.827-2.621-1.162-5.326-2.145-7.894-3.41-6.066-2.989-7.736-6.345-6.791-13.023.348-2.46.553-4.94.831-7.476-7.586-1.818-14.893-.545-22.209.668-2.126.353-4.309.383-6.419.799-3.216.634-5.432-.834-7.704-2.845-1.035-.917-2.899-1.605-4.214-1.382-14.554 2.485-28.173 7.691-41.028 14.873-1.736.969-3.405 2.731-4.242 4.529-5.202 11.173-9.926 22.573-15.284 33.669-3.161 6.543-7.196 12.661-11.012 19.272z" fill="#000"/><path fill-rule="evenodd" clip-rule="evenodd" d="M109.541 140.545c2.44-14.96 4.894-29.858 7.247-44.772.147-.934-.476-1.996-.771-2.991-2.537-8.56-5.024-17.136-7.66-25.667-.7-2.266.168-3.156 2.121-4.014 9.214-4.045 18.973-4.784 28.578-3.099 11.114 1.95 22.206 4.605 32.896 8.173 8.735 2.916 16.369 1.092 24.306-1.905 7.027-2.654 14.046-5.411 21.256-7.467 3.593-1.024 7.612-.796 11.432-.747 5.718.073 7.011 1.376 7.795 7.078 1.593 11.577.288 23.069-1.061 34.56-.137 1.165-.375 2.43-.077 3.515 2.398 8.728 4.908 17.426 7.403 26.127.148.517.457.988.679 1.454 2.488-2.191 4.719-4.28 7.087-6.203 1.88-1.527 3.436-1.064 4.731 1.018 4.132 6.64 2.947 23.32-2.162 29.4-3.539 4.212-5.909 4.793-11.099 2.625-.815 5.634-1.798 11.214-2.394 16.834-.918 8.666-4.415 16.049-11.498 21.1-9.824 7.004-20.019 13.496-30.131 20.094-6.287 4.103-13.064 4.083-19.991 1.8-18.258-6.016-35.362-14.444-51.857-24.238-6.299-3.739-9.099-9.57-11.317-15.971-1.509-4.358-2.924-8.749-4.393-13.159-8.896 4.446-15.89 1.62-19.563-7.565-2.85-7.126-2.711-14.249-.102-21.358 1.405-3.828 3.443-4.639 6.895-2.517 4.05 2.491 7.888 5.326 11.65 7.895zm85.257-15.913l-.651-.529c-1.31 1.537-2.711 3.009-3.914 4.626-4.262 5.725-4.242 5.762-11.145 3.985-1.269-.328-2.51-.809-3.717-1.328-7.359-3.164-14.555-6.785-22.105-9.395-4.97-1.718-10.457-2.825-15.689-2.743-10.734.171-20.965 14.87-22.456 22.6-.246 1.272.158 2.92.822 4.074 9.956 17.298 28.301 25.215 48.365 14.907a147.094 147.094 0 0 1 16.636-7.294c1.397-.512 4.033.517 5.234 1.706 1.996 1.976 3.343 4.622 4.869 7.045 2.177 3.455 1.596 5.854-1.862 8.072-1.218.781-2.459 1.524-3.69 2.284 3.85.333 7.156-.589 9.189-3.77 3.473-5.433-2.299-8.468-3.743-13.057 3.667 1.513 7.081 2.841 10.428 4.317 16.615 7.33 32.367-.852 38.461-16.048.925-2.305 1.223-5.601.277-7.776-3.358-7.713-14.126-12.969-22.626-12.338-6.092.453-11.205 3.039-16.449 5.667-3.274 1.641-6.763 2.859-10.155 4.266l-.63-.992c1.518-2.759 3.034-5.52 4.551-8.279zm-46.245 52.565c10.655 16.901 45.444 17.94 52.44 4.867-17.034 9.308-42.759 6.536-49.697-5.54 1.353-.344 2.649-.675 4.465-1.139-3.144-2.477-5.863-1.385-8.379-.269-2.45 1.087-4.287 2.897-4.367 6.126l5.538-4.045zm25.467-15.809c-3.254 1.649-4.921 4.746-4.149 7.247.829 2.691 6.385 4.888 10.211 4.038-7.957-5-7.957-5-6.062-11.285z" fill="#F0D0B4"/><path fill-rule="evenodd" clip-rule="evenodd" d="M209.22 216.956c7.451-5.358 14.703-10.582 21.963-15.792 8.453-6.064 12.488-14.405 12.961-24.667.19-4.134.651-8.255.988-12.388 6.178.862 10.752-1.333 13.375-7.283 1.936-4.392 2.937-9.196 4.533-14.401 4.62.473 9.916 1.1 15.228 1.539 8.315.686 16.634 1.378 24.965 1.773 2.446.116 3.781.875 4.502 3.115 4.841 15.013 2.948 29.367-4.132 43.25-1.264 2.479-3.071 3.416-5.92 3.546-15.417.706-30.144 4.293-44.005 11.174-1.852.919-3.659 1.931-6.132 2.277l5.773-8.972-.93-.708c-2.966 3.968-6.481 7.644-8.79 11.963-5.783 10.809-11.128 21.856-16.444 32.906-6.072 12.622-12.374 25.086-23.529 34.149-14.991 12.179-31.686 18.206-51.167 13.24-1.692-.431-3.303-1.178-5.457-1.961 2.494-2.635 4.739-5.01 6.434-6.802 3.496 1.562 6.522 3.024 9.635 4.27 2.261.905 3.334-.292 4.222-2.415 3.066-7.334 6.365-14.571 9.56-21.851.867-1.977 2.254-2.492 4.471-2.697 11.937-1.097 23.477-3.571 32.015-12.95 7.433-8.162 9.248-22.338-3.525-29.695-.293-.167-.487-.505-.594-.62zM92.14 293.774c5.767 3.955 11.832 4.185 18.198 1.419.793-.345 2.227.247 3.137.787 4.614 2.737 9.087 5.723 13.775 8.323.992.551 2.677-.215 4.044-.245 1.219-.027 2.921-.369 3.59.275 6.279 6.047 11.007 13.146 13.324 21.617.271.991-.472 2.787-1.334 3.474-7.176 5.715-14.453 11.306-21.77 16.84-13.303 10.062-27.655 18.871-38.995 31.277-2.994 3.275-4.928 7.814-6.42 12.095-3.125 8.971-3.866 9.673-13.008 6.691-9.556-3.116-16.43-9.363-20.855-18.393-.887-1.811-.772-3.043.624-4.423 3.981-3.935 7.76-8.082 11.87-11.877 5.06-4.672 5.589-11.194 7.377-17.15 5.469-18.219 13.65-35.016 25.472-49.986.205-.259.546-.413.97-.724zm-27.713 71.248c-2.102 6.333-.663 12.951 2.56 14.306 4.517 1.9 12.715-.086 14.942-3.445-3.665.543-7.481 1.164-11.315 1.655-2.366.302-3.818-.744-4.264-3.2-.567-3.119-1.275-6.212-1.923-9.316zm109.027-38.916c11.573-9.027 20.613-19.25 27.249-31.447 1.743-3.203 2.965-6.747 4.003-10.259 1.45-4.911 7.683-8.983 12.538-7.583 15.763 4.547 30.266 11.691 43.05 21.973 5.465 4.395 10.416 9.451 15.406 14.4 3.379 3.353 3.734 7.221 1.003 11.316-5.821 8.729-11.394 17.63-17.491 26.16-1.197 1.677-4.221 2.515-6.533 2.856-10.345 1.519-19.947-.682-28.486-6.796-4.625-3.311-4.54-3.429-2.609-9.124 4.987.04 10.282 1.539 15.926-1.955-3.369-.186-5.928-.043-8.37-.511-8.891-1.706-17.7-3.884-26.626-5.369-8.087-1.344-16.288-2.01-24.437-2.988-1.291-.155-2.574-.372-4.623-.673zM160.069 217.41l-10.628 10.831c-2.451-2.225-5.452-4.895-8.387-7.634-2.249-2.098-4.741-2.827-7.482-1.229-6.987 4.071-14.005 8.103-20.806 12.466-1.932 1.24-3.094 1.557-4.991.177-5.116-3.718-10.23-7.478-15.613-10.783-8.137-4.997-16.988-7.773-27.213-6.665 8.129-9.599 15.665-18.928 23.695-27.814 4.86-5.379 11.173-8.827 18.377-10.46 2.345-.531 3.964-.242 4.475 2.458.242 1.274.804 2.485 1.096 3.753 2.221 9.681 8.979 15.39 17.33 19.656 10.261 5.242 20.563 10.402 30.147 15.244z" fill="#ED1C24"/><path fill-rule="evenodd" clip-rule="evenodd" d="M203.198 219.208c1.518 0 3.254-.492 4.519.079 9.152 4.118 12 14.172 6.055 23.327-5.243 8.071-13.678 11.48-23.364 13.917 1.679-4.065 2.934-7.497 4.549-10.747.429-.866 1.962-1.179 2.993-1.736 2.709-1.464 5.69-2.572 8.076-4.45 5.737-4.515 8.192-14.136-2.828-20.39zm-12.599 73.444c-14.076 10.719-35.217 15.521-52.268 6.18 2.039-1.875 3.883-3.694 5.881-5.319.49-.397 1.633-.463 2.229-.171 14.523 7.105 28.869 5.179 43.163-.726.188-.077.442.01.995.036zm-31.13-55.469c-6.659-3.014-7.692-6.805-3.329-11.84 1.844-2.127 4.145-3.969 6.539-5.447 1.234-.762 3.182-.781 4.707-.525 2.087.351 4.178 1.079 6.077 2.033 1.525.768 2.765 2.111 3.937 3.769-7.548 2.212-14.902 3.762-17.931 12.01z" fill="#F7941E"/><path fill-rule="evenodd" clip-rule="evenodd" d="M53.702 221.299c22.048-8.907 38.432 2.902 55.161 14.001l-3.076 3.907.403.486c5.09-3.224 10.167-6.47 15.276-9.665 4.065-2.542 8.2-4.972 12.246-7.544 2.997-1.906 5.584-1.647 7.977 1.013 7.698 8.556 15.433 17.077 23.123 25.64 2.473 2.753 4.851 5.595 7.436 8.585l-7.339 8.338-28.66-28.095-1.006.98 27.285 29.989-9.819 10.584-24.514-25.444c5.732 10.551 13.897 19.03 22.517 27.591l-10.136 9.005-21.94-18.085c5.157 8.435 12.638 14.524 20.755 20.817-2.739 2.552-5.237 5.063-7.976 7.274-.555.449-2.145.015-3.045-.437-7.785-3.914-15.519-7.929-23.279-11.893-.382-.195-.857-.208-2.257-.525l5.806 4.644c-4.576 1.115-8.503 1.466-11.82-.651-3.505-2.237-6.916-1.664-10.566-1.291-11.458 1.17-22.75.15-33.478-4.12-10.429-4.151-15.077-13.195-17.846-23.378-.9-3.309-1.15-6.795-1.83-11.024 11.376 5.607 22.784 7.536 34.333 8.369 11.453.825 22.957.949 34.78 1.393l1.877 19.293c.586-1.23.849-1.929 1.231-2.556 1.391-2.28 2.888-4.499 4.219-6.814 1.019-1.772 2.479-3.607 2.626-5.5.304-3.913 2.078-6.836 5.28-8.422 4.071-2.015 5.318-5.254 5.576-9.313.092-1.441.113-2.885.217-4.324.22-3.073 1.419-5.503 4.301-6.996 1.587-.822 2.992-1.99 4.53-2.916 3.44-2.071 4.495-5.094 3.873-8.126-3.248 2.013-6.612 4.283-10.144 6.249-7.015 3.906-14.073 7.743-21.234 11.369-1.398.708-3.54.894-5.002.373-15.605-5.569-30.434-12.795-44.53-21.523-.376-.231-.66-.616-1.33-1.258zm298.399-47.947c-4.106-3.077-7.977-6.559-12.374-9.142-7.399-4.348-15.186-8.027-22.686-12.211-1.829-1.021-3.834-2.627-4.618-4.456-1.967-4.595-4.863-6.89-9.949-6.187-1.339.185-2.74-.091-4.707-.183 2.591-3.072 5.399-3.313 8.089-2.195 8.57 3.566 17.295 6.891 25.477 11.224 14.194 7.517 27.754 16.115 38.981 27.871 3.728 3.902 7.164 8.038 6.259 14.504l-.895-1.837c-.195.05-.39.099-.584.15.333 2.841.736 5.678.981 8.527.265 3.069.165 6.075-3.574 8.561l-.717-2.378-.933.651c.473 4.13 1.069 8.252 1.337 12.395.075 1.168-.468 2.778-1.309 3.538-5.739 5.179-9.336 4.912-15.437-.878 2.271-4.924 4.693-.713 7.049-.113-.7-4.523-5.463-6.866-16.261-7.005l7.276 4.115-5.302 6.667c-4.083-2.068-8.129-3.829-11.838-6.137-1.523-.949-2.867-2.939-3.314-4.704-.695-2.736-.768-5.693-.656-8.54.046-1.181 1.247-2.317 2.141-3.844-11.21-6.023-24.162-2.52-36.801-2.15l.028-.967c.742-.134 1.498-.441 2.221-.375 5.782.531 8.37-3.481 10.31-7.755 2.2-4.846 3.763-9.982 5.754-15.404 10.347.456 20.394 3.461 29.802 8.706 2.077 1.158 4.007 2.583 5.988 3.91 5.658 3.789 10.142 8.322 10.899 15.643.21 2.02 1.439 3.935 3.07 5.811.292-2.717.575-5.436.878-8.152.32-2.86.172-5.891 1.108-8.533 1.358-3.831.221-6.367-2.715-8.594-2.241-1.7-4.46-3.43-6.688-5.146l-6.29-5.387z" fill="#58595B"/><path fill-rule="evenodd" clip-rule="evenodd" d="M133.925 230.465c-1.822 1.293-3.53 2.803-5.49 3.835-4.441 2.341-6.941 5.733-6.762 10.897.192 5.552-1.33 9.966-6.817 12.719-1.797.902-3.547 3.661-3.716 5.703-.376 4.545-2.48 7.519-6.75 10.12-.258-3.466-.77-6.692-.659-9.896.107-3.094-1.082-3.702-3.953-3.816-14.538-.578-29.106-.986-43.578-2.358-6.424-.608-12.658-3.311-18.959-5.13-2.673-.771-3.546-2.347-3.09-5.367 1.6-10.6 6.914-18.437 16.166-23.748 1.702-.977 2.844-.942 4.509.128 13.958 8.979 28.913 15.957 44.463 21.644 1.548.565 3.835.413 5.306-.337 8.322-4.25 16.499-8.784 24.726-13.22 1.33-.717 2.663-1.427 3.995-2.139l.609.965zM47.19 384.969c4.913 6.762 11.167 11.778 19.51 14.892-1.507 1.736-2.756 3.274-4.107 4.717-8.766 9.358-17.756 18.517-26.225 28.138-2.925 3.322-4.867 7.641-6.72 11.748-1.731 3.836-1.628 8.035.14 11.931 1.679 3.697.545 5.902-2.832 7.878-5.185 3.032-7.354 3.053-10.849-.196-2.108-1.961-1.99-3.748-.76-6.035 3.916-7.268 8.268-14.365 11.434-21.955 3.351-8.036 5.269-16.66 8.303-24.844 3.31-8.931 7.186-17.651 10.816-26.464l1.29.19zm304.911-211.617l6.29 5.386c2.359 2.38 4.649 4.834 7.102 7.114 1.532 1.426 2.032 2.64 1.509 4.941-1.053 4.634-1.365 9.438-2.132 15.322-.666-1.995-1.19-2.982-1.309-4.016-.719-6.235-4.59-10.294-9.23-13.916-10.568-8.25-22.645-12.596-35.837-14.126-.702-.081-1.393-.258-1.823-.339l-1.187-21.425c5.361 2.727 10.694 5.102 15.682 8.062 6.362 3.774 12.437 8.032 18.659 12.045.681.439 1.514.64 2.276.952zM227.067 352.248l12.725 4.892c-1.949 7.588-5.475 14.574-9.537 21.33-3.082 5.128-6.384 10.141-9.15 15.437-2.647 5.068-1.497 7.293 3.864 9.23 1.722.622 3.414 1.329 5.119 1.997l-.223.882c-5.317-.293-10.64-.512-15.95-.909-2.64-.197-3.429-1.632-2.477-4.242 3.106-8.534 6.278-17.051 9.066-25.691 2.199-6.818 3.862-13.808 5.78-20.717.221-.796.551-1.561.783-2.209zm-62.803-110.382c4.284 1.64 8.583 3.24 12.845 4.935 2.926 1.163 3.657 3.23 2.187 6.051-2.432 4.668-5.084 9.239-7.225 14.037-2.181 4.884-4.003 9.946-5.693 15.027-.86 2.587-1.868 3.197-4.302 1.82-4.236-2.395-4.577-3.885-1.49-7.487 4.604-5.372 9.154-10.79 13.732-16.185 1.52-1.791 1.637-3.201-.192-5.176-3.629-3.916-6.842-8.218-10.227-12.361l.365-.661zm27.752 53.641c-3.71 10.047-8.604 19.181-17.649 25.641.527-1.027 1.085-2.039 1.576-3.083 2.034-4.33 4.427-8.541 5.949-13.047 1.177-3.487 3.062-5.749 6.295-7.199 1.35-.605 2.557-1.531 3.829-2.312z" fill="#58595B"/><path fill-rule="evenodd" clip-rule="evenodd" d="M137.733 26.6l.462-1.337-16-3.457.186-.815c2.911 0 5.829.14 8.73-.026 9.501-.544 17.321-5.22 24.958-10.38 6.082-4.11 12.487-7.352 20.185-6.306 6.767.919 11.351 5.327 15.124 10.4 9.465 12.73 13.214 27.035 10.671 42.886-.513 3.199-1.599 5.532-5.031 6.472-4.22 1.155-8.267 3.036-12.528 3.928-6.066 1.268-9.809-1.036-11.953-6.67-3.711-9.757-8.182-19.04-15.795-26.433-5.218-5.068-11.274-8.216-19.009-8.262z" fill="#FFF200"/><path fill-rule="evenodd" clip-rule="evenodd" d="M170.481 64.565c-4.218-1.53-7.728-2.66-11.11-4.098-1.464-.622-2.846-1.703-3.949-2.877-5.766-6.14-11.884-11.685-20.092-14.428-6.695-2.237-12.853-1.625-18.573 2.65-2.482 1.855-4.946 3.74-7.514 5.471-3.524 2.375-7.134 2.174-10.703.002-.915-.556-1.825-1.118-2.746-1.664-4.888-2.899-9.813-5.602-15.812-2.661l-.505-1.192 16.466-11.346-12.654.613c3.537-3.183 10.711-4.523 17.452-3.6 6.506.892 13.078 1.36 19.636 1.76 1.693.104 3.532-.53 5.152-1.198 12.216-5.039 22.242-1.471 30.877 7.767 6.526 6.984 10.552 15.387 14.075 24.8z" fill="#FFF200"/><path fill-rule="evenodd" clip-rule="evenodd" d="M91.165 87.53c-.335-6.123-.816-11.457-.842-16.793-.014-2.88-1.119-4.711-3.378-6.202-5.079-3.352-10.326-2.903-16.383 1.503-.734-4.423 3.135-12.636 7.364-15.185 5.53-3.334 10.417-2.041 15.385.896.405.24.722.629 1.118.893 6.825 4.553 13.149 4.351 20.015-.656 12.51-9.125 21.511-8.326 33.416 1.939 1.425 1.229 2.841 2.47 5.079 4.417-5.012-.63-8.995-1.255-13.002-1.612-9.625-.857-19.018-.027-27.787 4.497-4.738 2.445-5.333 3.577-4.183 8.764 1.746 7.874 3.656 15.71 5.497 23.563-6.543-3.365-11.923-12.187-22.3-6.023zm151.081-2.723c-.664-6.67-.931-12.959-1.995-19.107-1.212-6.991-3.884-9.08-10.982-10.048-1.149-.157-2.3-.296-4.325-.554 6.929-5.14 12.486-10.976 21.036-11.423 4.194-.219 9.186 4.83 8.783 8.849-.82 8.189-1.539 16.39-2.48 24.564-.122 1.06-1.105 2.301-2.04 2.934-2.634 1.78-5.45 3.287-7.997 4.785zm-46.918-71.709c2.092 2.23 4.564 4.218 6.167 6.76 1.474 2.34 3.163 2.647 5.579 2.734 9.339.332 16.62 4.745 22.737 12.01-9.285 4.949-13.958 13.81-19.994 21.43-1.405 1.772-3.254 3.187-5.412 4.459 1.872-8.356 1.996-16.442.374-24.566-1.637-8.188-5.078-15.556-10.097-22.215l.646-.612zm-86.307 122.366c-9.656-2.822-9.08-11.787-11.651-18.807-.527-1.439-.655-3.02-1.066-4.507-1.358-4.916-1.407-5.746 3.335-7.16 4.144-1.236 8.704-1.06 13.694-1.571l-4.312 32.045z" fill="#FFF200"/><path fill-rule="evenodd" clip-rule="evenodd" d="M114.872 97.81c.01 2.774-.617 4.404-4.151 3.37-5.678-1.66-11.297-1.71-16.236 3.605-.884-4.826-1.839-8.747-2.17-12.72-.087-1.039 1.562-2.853 2.765-3.258 4.212-1.421 7.548 1.167 10.889 3.19 2.932 1.775 5.748 3.742 8.903 5.813zm98.086-42.079c4.358-4.856 8.515-9.915 13.131-14.508 4.274-4.253 12.137-4.483 18.33-.866-8.59 1.31-14.236 6.928-20.403 11.881-2.882 2.315-6.717 3.429-10.121 5.087l-.937-1.594zm38.084 42.413l-3.454 27.226-.905.028c-2.338-7.292-4.882-14.527-6.924-21.903-.977-3.53.278-4.855 4.069-5.305 2.152-.256 4.357-.046 7.214-.046zm1.013-14.905l-.982 11.895h-9.99c-.609-6.242 1.516-8.715 10.972-11.895zm-72.006 138.965c6.217 4.692 12.195 5.487 18.097-1.558-.679 5.039-2.946 7.087-7.256 7.714-5.69.829-8.9-.766-10.841-6.156zm.626 35.396c.804-2.537 1.52-3.852 1.575-5.196.08-1.927.411-4.661-.655-5.668-3.352-3.163-1.023-6.192-.519-9.264.083-.506.907-1.157 1.481-1.271 4.162-.825 8.347-1.529 13.035-2.363-1.504 7.988-4.027 14.991-7.792 21.396-.835 1.422-4.061 1.422-7.125 2.366z" fill="#FFF200"/><path fill-rule="evenodd" clip-rule="evenodd" d="M146.254 130.534c8.691-.003 17.764 8.21 17.811 16.126.043 7.347-6.868 12.906-16.015 12.881-8.935-.025-16.2-6.579-16.046-14.478.161-8.288 6.279-14.526 14.25-14.529zm2.385 22.267c4.224.084 7.698-3.296 7.849-7.636.143-4.139-3.399-7.837-7.582-7.918-4.282-.082-7.672 3.256-7.755 7.638-.082 4.353 3.207 7.83 7.488 7.916zm61.095 2.987c-4.631-.083-8.844-1.327-12.48-4.42-2.262-1.924-2.514-4.188-1.524-6.801 2.966-7.824 15.353-14.738 23.535-13.141 4.217.823 7.661 8.892 5.956 13.949-2.251 6.669-8 10.534-15.487 10.413zm-.777-20.062c-4.108.064-7.017 3.206-6.983 7.542.037 4.52 3.389 7.968 7.619 7.836 3.994-.124 7.393-3.765 7.362-7.884-.03-4.202-3.616-7.561-7.998-7.494z" fill="#fff"/></svg>