<svg width="662" height="699" fill="none" xmlns="http://www.w3.org/2000/svg"><path opacity=".1" fill-rule="evenodd" clip-rule="evenodd" d="M178.886 312.61c16.263-31.177 20.994-67.093 23.837-102.351 2.844-35.257 4.118-71.071 14.301-104.789 6.549-21.688 18.522-43.903 39.9-52.069 20.6-7.85 44.11-.647 64.867 7.918 15.616 6.441 31.529 14.119 42.041 27.271 7.301 9.128 11.449 20.245 17.899 29.998 22.33 33.886 67.476 45.147 107.98 45.814 19.001.321 38.092-1.028 56.953 1.645 18.86 2.673 38.067 9.96 50.577 24.386 12.408 14.31 16.666 33.78 16.877 52.32.426 37.668-13.892 73.473-29.809 107.289-35.217 74.835-79.198 145.109-123.07 215.194-16.24 25.936-32.556 51.979-52.587 75.149-11.126 12.867-24.146 25.261-40.849 29.621-21.198 5.53-45.977-4.381-57.756-23.099-19.756-31.409-2.912-76.913-27.347-105.026-13.452-15.46-35.558-20.334-55.957-20.95-43.754-1.31-90.426 11.9-129.5-8.56-26.843-14.056-44.725-43.711-44.207-73.279.496-31.015 20.934-62.626 52.439-67.504 32.463-5.027 59.049-31.455 73.411-58.978z" fill="#fff"/></svg>