<svg width="617" height="281" fill="none" xmlns="http://www.w3.org/2000/svg"><mask id="a" maskUnits="userSpaceOnUse" x="0" y="0" width="617" height="281" fill="#000"><path fill="#fff" d="M0 0h617v281H0z"/><path fill-rule="evenodd" clip-rule="evenodd" d="M210.217 267.035c0-2.55.379-4.692 1.13-6.426a11.72 11.72 0 0 1 2.293-3.435c.969-1.012 2.03-1.763 3.183-2.258 1.536-.658 3.308-.99 5.314-.99 3.636 0 6.537 1.147 8.721 3.435 2.179 2.293 3.268 5.477 3.268 9.557 0 4.045-1.083 7.212-3.245 9.493-2.162 2.288-5.057 3.428-8.675 3.428-3.664 0-6.582-1.135-8.743-3.41-2.162-2.271-3.246-5.402-3.246-9.394zm243.926 12.35V254.59h4.988v20.57h12.35v4.225h-17.338zm-80.429 0V254.38h18.232v4.226h-13.244v5.553h12.315v4.226h-12.315v6.775h13.726v4.225h-18.714zm-72.821 0v-20.779H293.6v-4.226h19.539v4.226h-7.258v20.779h-4.988zm-181.391 0V254.38h4.988v9.849h9.701v-9.849h4.989v25.005h-4.989v-10.93h-9.701v10.93h-4.988zm394.47-132.977c5.876-15.155 11.179-25.556 15.915-31.153 4.733-5.65 10.192-8.445 16.383-8.445 4.158 0 7.542 1.16 10.191 3.536 2.654 2.375 3.955 5.436 3.955 9.133 0 3.697-1.04 6.705-3.174 8.976-2.133 2.271-4.942 3.379-8.373 3.379-3.642 0-6.605-1.003-8.842-3.009-2.238-2.005-3.329-4.594-3.329-7.76 0-.531.052-1.216.211-2.008.154-.843.412-1.74.725-2.691-4.109 2.586-7.592 6.705-10.611 12.303-2.963 5.646-5.719 13.249-8.163 22.808-2.186 8.553-4.006 16.523-5.355 23.969-1.405 7.394-2.083 12.725-2.083 15.895 0 1.687.313 2.955.987 3.801 8.168 10.772 64.202-81.048 103.591-81.048-39.094 9.707-84.321 91.117-107.593 90.286-6.914-.247-12.329-3.169-16.177-9.451-3.847-6.283-5.772-14.993-5.772-26.24v-3.854c-6.398 15.045-12.534 25.764-18.306 32.152-5.827 6.39-12.225 9.612-19.247 9.612-3.689 0-6.656-1.164-8.945-3.487-2.289-2.324-3.431-5.385-3.431-9.186 0-4.119 1.091-7.446 3.224-9.927 2.131-2.48 4.995-3.696 8.58-3.696 3.642 0 6.605 1.002 8.792 3.012 2.185 2.005 3.641 5.118 4.367 9.343 7.802-6.178 14.356-15.311 19.711-27.401 5.359-12.04 8.065-23.074 8.065-33.053 0-1.582-.366-2.851-1.147-3.906-.778-1.002-1.663-1.53-2.65-1.53-1.312 0-3.174.893-5.587 2.681-2.669 2.279-5.575 4.893-8.72 7.841a143.41 143.41 0 0 1-2.779 2.632 476.962 476.962 0 0 0-6.164 6.01c-6.918 7.023-12.324 12.408-16.279 16.104-19.917 18.375-35.004 30.36-45.301 36.062-10.243 5.65-20.283 8.501-30.164 8.501-10.453 0-18.878-3.012-25.225-9.029-6.346-6.073-9.516-13.941-9.516-23.602 0-4.781.817-9.49 2.45-14.127a1306.83 1306.83 0 0 1-6.508 6.842c-25.174 26.611-42.858 39.916-53.001 39.916-6.343 0-11.337-1.953-15.03-5.811-3.693-3.854-5.566-9.08-5.566-15.681 0-5.384 1.873-12.617 5.566-21.698 3.723-9.028 9.399-20.197 17.081-33.505l-.99.872a571.848 571.848 0 0 0-10.058 10.191c-4.296 4.49-7.569 7.616-9.824 9.391l-1.302 1.381c-5.828 6.23-10.35 10.93-13.575 14.151-11.599 11.561-20.857 19.273-27.879 23.018-7.021 3.802-14.665 6.073-22.988 6.919l-4.688 10.989-38.866-.016 6.525-15.251c-8.062-2.585-15.709-6.073-23.04-10.506-7.335-4.381-14.511-9.822-21.639-16.261-16.069 16.631-30.215 28.511-42.437 35.744C57.69 207.758 45.73 211.35 34.08 211.35c-10.35 0-18.462-2.851-24.34-8.501C3.916 197.147 1 189.331 1 179.299c0-8.763 2.499-16.051 7.541-21.754 5.046-5.754 11.496-8.605 19.35-8.605 5.304 0 9.568 1.425 12.845 4.329 3.277 2.907 4.89 6.652 4.89 11.195 0 4.542-1.403 8.183-4.212 10.876-2.757 2.695-7.18 4.648-13.158 5.912-6.295 1.534-10.353 3.117-12.119 4.7-1.768 1.586-2.653 3.854-2.653 6.757 0 3.91 2.027 7.184 6.085 9.874 4.058 2.695 9.258 4.015 15.55 4.015 10.246 0 21.274-3.696 33.079-11.09 11.806-7.389 25.277-19.007 40.41-34.898-5.097-6.125-8.893-12.146-11.44-18.162-2.551-6.073-3.796-12.093-3.796-18.218 0-8.976 2.808-16.47 8.477-22.543 5.617-6.073 12.638-9.133 21.064-9.133 5.616 0 10.972 1.317 16.173 3.958 5.149 2.638 10.194 6.549 15.084 11.828 28.344-31.838 54.87-57.711 79.523-77.565C258.343 10.926 275.456 1 285.024 1c.469.105.833.262.992.475.154.21.206.58.206 1.056 0 1.268-3.328 7.972-9.933 20.114-29.386 53.962-55.809 109.454-79.316 166.529 6.501-.318 12.741-2.167 18.62-5.598 5.878-3.379 14.197-10.663 24.963-21.806 6.988-7.199 13.271-13.483 18.853-18.844.539-.567 1.12-1.166 1.743-1.799a332.005 332.005 0 0 0 6.553-6.813l7.803-8.183a206.182 206.182 0 0 0 10.036-11.614c24.675-30.858 48.555-64.083 72.575-95.665l14.488-.113-66.781 124.869c-2.809 5.28-6.656 12.25-11.389 21.013-9.464 17.054-14.197 27.033-14.197 30.045 0 1.212.416 2.267 1.298 3.113.832.793 1.978 1.216 3.435 1.216 4.264 0 17.215-10.929 38.851-32.787 4.886-4.966 8.683-8.819 11.44-11.618 6.442-6.433 12.092-11.94 16.963-16.512 3.532-3.703 7.639-7.368 12.32-10.997.929-.722 1.86-1.426 2.79-2.112a64.806 64.806 0 0 1 3.733-2.651c6.071-4.15 12.177-7.537 18.336-10.177 8.427-3.539 15.971-5.332 22.783-5.332 6.188 0 11.078 1.793 14.613 5.332 3.59 3.536 5.359 8.448 5.359 14.626 0 9.87-5.93 19.06-17.839 27.508-11.86 8.445-27.256 14.256-46.134 17.474-2.34 6.705-3.951 11.722-4.887 14.944-.884 3.274-1.352 5.755-1.352 7.55 0 2.163.777 3.693 2.288 4.644 1.507.897 3.9 1.373 7.176 1.373 8.009 0 16.487-2.376 25.431-7.18 8.894-4.805 21.533-14.413 37.761-28.882 5.411-4.752 12.483-11.191 21.325-19.322a571.406 571.406 0 0 1 6.216-5.68c.159-.179.322-.362.492-.55.726-.688 1.301-1.267 1.662-1.691 9.989-10.929 17.581-18.532 22.937-22.809 5.307-4.277 9.622-6.386 12.848-6.386 4.578 0 8.163 2.481 10.818 7.494 2.653 5.018 3.951 11.932 3.951 20.803 0 .476-.052 1.639-.207 3.379a370.197 370.197 0 0 1-.675 6.971v.001zm-401.568 9.185c6.399-6.862 12.797-13.885 19.192-20.96 6.398-7.128 12.639-14.308 18.779-21.489-2.341-2.376-4.737-4.119-7.18-5.279-2.444-1.111-5.149-1.691-8.061-1.691-7.437 0-14.249 3.274-20.389 9.822-6.137 6.548-9.204 13.832-9.204 21.858 0 3.378.572 6.601 1.663 9.556a23.994 23.994 0 0 0 5.2 8.183zm57.003 13.994c15.76-26.877 32.195-53.591 49.411-80.045 17.164-26.449 35.158-52.85 53.984-79.25-13.209 5.754-28.188 15.998-44.936 30.782-16.692 14.73-39.994 38.65-69.899 71.753 4.471 7.127 7.696 13.78 9.726 19.957 2.028 6.178 3.067 12.621 3.067 19.326 0 3.644-.417 9.132-1.194 16.579l-.159.898zm-53.671-9.295c7.541 6.814 14.979 12.46 22.361 16.845 7.335 4.382 14.408 7.39 21.116 8.92 1.821-5.755 3.225-11.404 4.161-16.946.988-5.544 1.456-10.876 1.456-16.051 0-7.128-.881-13.623-2.65-19.587a53.2 53.2 0 0 0-8.01-16.156 9617.656 9617.656 0 0 1-23.614 26.557c-7.021 7.865-11.96 13.305-14.82 16.418zm254.273 6.391c12.793-1.953 24.186-7.655 34.118-17.002 9.933-9.399 14.928-18.479 14.928-27.246 0-2.481-.679-4.592-2.083-6.334-1.353-1.745-2.963-2.638-4.783-2.638-5.149 0-12.068 5.118-20.648 15.415-8.529 10.244-15.761 22.861-21.532 37.805zM215.343 266.866c0 2.834.648 4.982 1.939 6.448 1.289 1.462 2.929 2.195 4.913 2.195 1.989 0 3.618-.728 4.896-2.177 1.273-1.455 1.909-3.632 1.909-6.536 0-2.87-.619-5.012-1.863-6.42-1.239-1.415-2.884-2.119-4.942-2.119-2.053 0-3.709.716-4.965 2.142-1.256 1.432-1.887 3.585-1.887 6.467z"/></mask><path fill-rule="evenodd" clip-rule="evenodd" d="M210.217 267.035c0-2.55.379-4.692 1.13-6.426a11.72 11.72 0 0 1 2.293-3.435c.969-1.012 2.03-1.763 3.183-2.258 1.536-.658 3.308-.99 5.314-.99 3.636 0 6.537 1.147 8.721 3.435 2.179 2.293 3.268 5.477 3.268 9.557 0 4.045-1.083 7.212-3.245 9.493-2.162 2.288-5.057 3.428-8.675 3.428-3.664 0-6.582-1.135-8.743-3.41-2.162-2.271-3.246-5.402-3.246-9.394zm243.926 12.35V254.59h4.988v20.57h12.35v4.225h-17.338zm-80.429 0V254.38h18.232v4.226h-13.244v5.553h12.315v4.226h-12.315v6.775h13.726v4.225h-18.714zm-72.821 0v-20.779H293.6v-4.226h19.539v4.226h-7.258v20.779h-4.988zm-181.391 0V254.38h4.988v9.849h9.701v-9.849h4.989v25.005h-4.989v-10.93h-9.701v10.93h-4.988zm394.47-132.977c5.876-15.155 11.179-25.556 15.915-31.153 4.733-5.65 10.192-8.445 16.383-8.445 4.158 0 7.542 1.16 10.191 3.536 2.654 2.375 3.955 5.436 3.955 9.133 0 3.697-1.04 6.705-3.174 8.976-2.133 2.271-4.942 3.379-8.373 3.379-3.642 0-6.605-1.003-8.842-3.009-2.238-2.005-3.329-4.594-3.329-7.76 0-.531.052-1.216.211-2.008.154-.843.412-1.74.725-2.691-4.109 2.586-7.592 6.705-10.611 12.303-2.963 5.646-5.719 13.249-8.163 22.808-2.186 8.553-4.006 16.523-5.355 23.969-1.405 7.394-2.083 12.725-2.083 15.895 0 1.687.313 2.955.987 3.801 8.168 10.772 64.202-81.048 103.591-81.048-39.094 9.707-84.321 91.117-107.593 90.286-6.914-.247-12.329-3.169-16.177-9.451-3.847-6.283-5.772-14.993-5.772-26.24v-3.854c-6.398 15.045-12.534 25.764-18.306 32.152-5.827 6.39-12.225 9.612-19.247 9.612-3.689 0-6.656-1.164-8.945-3.487-2.289-2.324-3.431-5.385-3.431-9.186 0-4.119 1.091-7.446 3.224-9.927 2.131-2.48 4.995-3.696 8.58-3.696 3.642 0 6.605 1.002 8.792 3.012 2.185 2.005 3.641 5.118 4.367 9.343 7.802-6.178 14.356-15.311 19.711-27.401 5.359-12.04 8.065-23.074 8.065-33.053 0-1.582-.366-2.851-1.147-3.906-.778-1.002-1.663-1.53-2.65-1.53-1.312 0-3.174.893-5.587 2.681-2.669 2.279-5.575 4.893-8.72 7.841a143.41 143.41 0 0 1-2.779 2.632 476.962 476.962 0 0 0-6.164 6.01c-6.918 7.023-12.324 12.408-16.279 16.104-19.917 18.375-35.004 30.36-45.301 36.062-10.243 5.65-20.283 8.501-30.164 8.501-10.453 0-18.878-3.012-25.225-9.029-6.346-6.073-9.516-13.941-9.516-23.602 0-4.781.817-9.49 2.45-14.127a1306.83 1306.83 0 0 1-6.508 6.842c-25.174 26.611-42.858 39.916-53.001 39.916-6.343 0-11.337-1.953-15.03-5.811-3.693-3.854-5.566-9.08-5.566-15.681 0-5.384 1.873-12.617 5.566-21.698 3.723-9.028 9.399-20.197 17.081-33.505l-.99.872a571.848 571.848 0 0 0-10.058 10.191c-4.296 4.49-7.569 7.616-9.824 9.391l-1.302 1.381c-5.828 6.23-10.35 10.93-13.575 14.151-11.599 11.561-20.857 19.273-27.879 23.018-7.021 3.802-14.665 6.073-22.988 6.919l-4.688 10.989-38.866-.016 6.525-15.251c-8.062-2.585-15.709-6.073-23.04-10.506-7.335-4.381-14.511-9.822-21.639-16.261-16.069 16.631-30.215 28.511-42.437 35.744C57.69 207.758 45.73 211.35 34.08 211.35c-10.35 0-18.462-2.851-24.34-8.501C3.916 197.147 1 189.331 1 179.299c0-8.763 2.499-16.051 7.541-21.754 5.046-5.754 11.496-8.605 19.35-8.605 5.304 0 9.568 1.425 12.845 4.329 3.277 2.907 4.89 6.652 4.89 11.195 0 4.542-1.403 8.183-4.212 10.876-2.757 2.695-7.18 4.648-13.158 5.912-6.295 1.534-10.353 3.117-12.119 4.7-1.768 1.586-2.653 3.854-2.653 6.757 0 3.91 2.027 7.184 6.085 9.874 4.058 2.695 9.258 4.015 15.55 4.015 10.246 0 21.274-3.696 33.079-11.09 11.806-7.389 25.277-19.007 40.41-34.898-5.097-6.125-8.893-12.146-11.44-18.162-2.551-6.073-3.796-12.093-3.796-18.218 0-8.976 2.808-16.47 8.477-22.543 5.617-6.073 12.638-9.133 21.064-9.133 5.616 0 10.972 1.317 16.173 3.958 5.149 2.638 10.194 6.549 15.084 11.828 28.344-31.838 54.87-57.711 79.523-77.565C258.343 10.926 275.456 1 285.024 1c.469.105.833.262.992.475.154.21.206.58.206 1.056 0 1.268-3.328 7.972-9.933 20.114-29.386 53.962-55.809 109.454-79.316 166.529 6.501-.318 12.741-2.167 18.62-5.598 5.878-3.379 14.197-10.663 24.963-21.806 6.988-7.199 13.271-13.483 18.853-18.844.539-.567 1.12-1.166 1.743-1.799a332.005 332.005 0 0 0 6.553-6.813l7.803-8.183a206.182 206.182 0 0 0 10.036-11.614c24.675-30.858 48.555-64.083 72.575-95.665l14.488-.113-66.781 124.869c-2.809 5.28-6.656 12.25-11.389 21.013-9.464 17.054-14.197 27.033-14.197 30.045 0 1.212.416 2.267 1.298 3.113.832.793 1.978 1.216 3.435 1.216 4.264 0 17.215-10.929 38.851-32.787 4.886-4.966 8.683-8.819 11.44-11.618 6.442-6.433 12.092-11.94 16.963-16.512 3.532-3.703 7.639-7.368 12.32-10.997.929-.722 1.86-1.426 2.79-2.112a64.806 64.806 0 0 1 3.733-2.651c6.071-4.15 12.177-7.537 18.336-10.177 8.427-3.539 15.971-5.332 22.783-5.332 6.188 0 11.078 1.793 14.613 5.332 3.59 3.536 5.359 8.448 5.359 14.626 0 9.87-5.93 19.06-17.839 27.508-11.86 8.445-27.256 14.256-46.134 17.474-2.34 6.705-3.951 11.722-4.887 14.944-.884 3.274-1.352 5.755-1.352 7.55 0 2.163.777 3.693 2.288 4.644 1.507.897 3.9 1.373 7.176 1.373 8.009 0 16.487-2.376 25.431-7.18 8.894-4.805 21.533-14.413 37.761-28.882 5.411-4.752 12.483-11.191 21.325-19.322a571.406 571.406 0 0 1 6.216-5.68c.159-.179.322-.362.492-.55.726-.688 1.301-1.267 1.662-1.691 9.989-10.929 17.581-18.532 22.937-22.809 5.307-4.277 9.622-6.386 12.848-6.386 4.578 0 8.163 2.481 10.818 7.494 2.653 5.018 3.951 11.932 3.951 20.803 0 .476-.052 1.639-.207 3.379a370.197 370.197 0 0 1-.675 6.971v.001zm-401.568 9.185c6.399-6.862 12.797-13.885 19.192-20.96 6.398-7.128 12.639-14.308 18.779-21.489-2.341-2.376-4.737-4.119-7.18-5.279-2.444-1.111-5.149-1.691-8.061-1.691-7.437 0-14.249 3.274-20.389 9.822-6.137 6.548-9.204 13.832-9.204 21.858 0 3.378.572 6.601 1.663 9.556a23.994 23.994 0 0 0 5.2 8.183zm57.003 13.994c15.76-26.877 32.195-53.591 49.411-80.045 17.164-26.449 35.158-52.85 53.984-79.25-13.209 5.754-28.188 15.998-44.936 30.782-16.692 14.73-39.994 38.65-69.899 71.753 4.471 7.127 7.696 13.78 9.726 19.957 2.028 6.178 3.067 12.621 3.067 19.326 0 3.644-.417 9.132-1.194 16.579l-.159.898zm-53.671-9.295c7.541 6.814 14.979 12.46 22.361 16.845 7.335 4.382 14.408 7.39 21.116 8.92 1.821-5.755 3.225-11.404 4.161-16.946.988-5.544 1.456-10.876 1.456-16.051 0-7.128-.881-13.623-2.65-19.587a53.2 53.2 0 0 0-8.01-16.156 9617.656 9617.656 0 0 1-23.614 26.557c-7.021 7.865-11.96 13.305-14.82 16.418zm254.273 6.391c12.793-1.953 24.186-7.655 34.118-17.002 9.933-9.399 14.928-18.479 14.928-27.246 0-2.481-.679-4.592-2.083-6.334-1.353-1.745-2.963-2.638-4.783-2.638-5.149 0-12.068 5.118-20.648 15.415-8.529 10.244-15.761 22.861-21.532 37.805zM215.343 266.866c0 2.834.648 4.982 1.939 6.448 1.289 1.462 2.929 2.195 4.913 2.195 1.989 0 3.618-.728 4.896-2.177 1.273-1.455 1.909-3.632 1.909-6.536 0-2.87-.619-5.012-1.863-6.42-1.239-1.415-2.884-2.119-4.942-2.119-2.053 0-3.709.716-4.965 2.142-1.256 1.432-1.887 3.585-1.887 6.467z" fill="#AB6C02"/><path clip-rule="evenodd" d="M210.217 267.035c0-2.55.379-4.692 1.13-6.426a11.72 11.72 0 0 1 2.293-3.435c.969-1.012 2.03-1.763 3.183-2.258 1.536-.658 3.308-.99 5.314-.99 3.636 0 6.537 1.147 8.721 3.435 2.179 2.293 3.268 5.477 3.268 9.557 0 4.045-1.083 7.212-3.245 9.493-2.162 2.288-5.057 3.428-8.675 3.428-3.664 0-6.582-1.135-8.743-3.41-2.162-2.271-3.246-5.402-3.246-9.394zm243.926 12.35V254.59h4.988v20.57h12.35v4.225h-17.338zm-80.429 0V254.38h18.232v4.226h-13.244v5.553h12.315v4.226h-12.315v6.775h13.726v4.225h-18.714zm-72.821 0v-20.779H293.6v-4.226h19.539v4.226h-7.258v20.779h-4.988zm-181.391 0V254.38h4.988v9.849h9.701v-9.849h4.989v25.005h-4.989v-10.93h-9.701v10.93h-4.988zm394.47-132.977c5.876-15.155 11.179-25.556 15.915-31.153 4.733-5.65 10.192-8.445 16.383-8.445 4.158 0 7.542 1.16 10.191 3.536 2.654 2.375 3.955 5.436 3.955 9.133 0 3.697-1.04 6.705-3.174 8.976-2.133 2.271-4.942 3.379-8.373 3.379-3.642 0-6.605-1.003-8.842-3.009-2.238-2.005-3.329-4.594-3.329-7.76 0-.531.052-1.216.211-2.008.154-.843.412-1.74.725-2.691-4.109 2.586-7.592 6.705-10.611 12.303-2.963 5.646-5.719 13.249-8.163 22.808-2.186 8.553-4.006 16.523-5.355 23.969-1.405 7.394-2.083 12.725-2.083 15.895 0 1.687.313 2.955.987 3.801 8.168 10.772 64.202-81.048 103.591-81.048-39.094 9.707-84.321 91.117-107.593 90.286-6.914-.247-12.329-3.169-16.177-9.451-3.847-6.283-5.772-14.993-5.772-26.24v-3.854c-6.398 15.045-12.534 25.764-18.306 32.152-5.827 6.39-12.225 9.612-19.247 9.612-3.689 0-6.656-1.164-8.945-3.487-2.289-2.324-3.431-5.385-3.431-9.186 0-4.119 1.091-7.446 3.224-9.927 2.131-2.48 4.995-3.696 8.58-3.696 3.642 0 6.605 1.002 8.792 3.012 2.185 2.005 3.641 5.118 4.367 9.343 7.802-6.178 14.356-15.311 19.711-27.401 5.359-12.04 8.065-23.074 8.065-33.053 0-1.582-.366-2.851-1.147-3.906-.778-1.002-1.663-1.53-2.65-1.53-1.312 0-3.174.893-5.587 2.681-2.669 2.279-5.575 4.893-8.72 7.841a143.41 143.41 0 0 1-2.779 2.632 476.962 476.962 0 0 0-6.164 6.01c-6.918 7.023-12.324 12.408-16.279 16.104-19.917 18.375-35.004 30.36-45.301 36.062-10.243 5.65-20.283 8.501-30.164 8.501-10.453 0-18.878-3.012-25.225-9.029-6.346-6.073-9.516-13.941-9.516-23.602 0-4.781.817-9.49 2.45-14.127a1306.83 1306.83 0 0 1-6.508 6.842c-25.174 26.611-42.858 39.916-53.001 39.916-6.343 0-11.337-1.953-15.03-5.811-3.693-3.854-5.566-9.08-5.566-15.681 0-5.384 1.873-12.617 5.566-21.698 3.723-9.028 9.399-20.197 17.081-33.505l-.99.872a571.848 571.848 0 0 0-10.058 10.191c-4.296 4.49-7.569 7.616-9.824 9.391l-1.302 1.381c-5.828 6.23-10.35 10.93-13.575 14.151-11.599 11.561-20.857 19.273-27.879 23.018-7.021 3.802-14.665 6.073-22.988 6.919l-4.688 10.989-38.866-.016 6.525-15.251c-8.062-2.585-15.709-6.073-23.04-10.506-7.335-4.381-14.511-9.822-21.639-16.261-16.069 16.631-30.215 28.511-42.437 35.744C57.69 207.758 45.73 211.35 34.08 211.35c-10.35 0-18.462-2.851-24.34-8.501C3.916 197.147 1 189.331 1 179.299c0-8.763 2.499-16.051 7.541-21.754 5.046-5.754 11.496-8.605 19.35-8.605 5.304 0 9.568 1.425 12.845 4.329 3.277 2.907 4.89 6.652 4.89 11.195 0 4.542-1.403 8.183-4.212 10.876-2.757 2.695-7.18 4.648-13.158 5.912-6.295 1.534-10.353 3.117-12.119 4.7-1.768 1.586-2.653 3.854-2.653 6.757 0 3.91 2.027 7.184 6.085 9.874 4.058 2.695 9.258 4.015 15.55 4.015 10.246 0 21.274-3.696 33.079-11.09 11.806-7.389 25.277-19.007 40.41-34.898-5.097-6.125-8.893-12.146-11.44-18.162-2.551-6.073-3.796-12.093-3.796-18.218 0-8.976 2.808-16.47 8.477-22.543 5.617-6.073 12.638-9.133 21.064-9.133 5.616 0 10.972 1.317 16.173 3.958 5.149 2.638 10.194 6.549 15.084 11.828 28.344-31.838 54.87-57.711 79.523-77.565C258.343 10.926 275.456 1 285.024 1c.469.105.833.262.992.475.154.21.206.58.206 1.056 0 1.268-3.328 7.972-9.933 20.114-29.386 53.962-55.809 109.454-79.316 166.529 6.501-.318 12.741-2.167 18.62-5.598 5.878-3.379 14.197-10.663 24.963-21.806 6.988-7.199 13.271-13.483 18.853-18.844.539-.567 1.12-1.166 1.743-1.799a332.005 332.005 0 0 0 6.553-6.813l7.803-8.183a206.182 206.182 0 0 0 10.036-11.614c24.675-30.858 48.555-64.083 72.575-95.665l14.488-.113-66.781 124.869c-2.809 5.28-6.656 12.25-11.389 21.013-9.464 17.054-14.197 27.033-14.197 30.045 0 1.212.416 2.267 1.298 3.113.832.793 1.978 1.216 3.435 1.216 4.264 0 17.215-10.929 38.851-32.787 4.886-4.966 8.683-8.819 11.44-11.618 6.442-6.433 12.092-11.94 16.963-16.512 3.532-3.703 7.639-7.368 12.32-10.997.929-.722 1.86-1.426 2.79-2.112a64.806 64.806 0 0 1 3.733-2.651c6.071-4.15 12.177-7.537 18.336-10.177 8.427-3.539 15.971-5.332 22.783-5.332 6.188 0 11.078 1.793 14.613 5.332 3.59 3.536 5.359 8.448 5.359 14.626 0 9.87-5.93 19.06-17.839 27.508-11.86 8.445-27.256 14.256-46.134 17.474-2.34 6.705-3.951 11.722-4.887 14.944-.884 3.274-1.352 5.755-1.352 7.55 0 2.163.777 3.693 2.288 4.644 1.507.897 3.9 1.373 7.176 1.373 8.009 0 16.487-2.376 25.431-7.18 8.894-4.805 21.533-14.413 37.761-28.882 5.411-4.752 12.483-11.191 21.325-19.322a571.406 571.406 0 0 1 6.216-5.68c.159-.179.322-.362.492-.55.726-.688 1.301-1.267 1.662-1.691 9.989-10.929 17.581-18.532 22.937-22.809 5.307-4.277 9.622-6.386 12.848-6.386 4.578 0 8.163 2.481 10.818 7.494 2.653 5.018 3.951 11.932 3.951 20.803 0 .476-.052 1.639-.207 3.379a370.197 370.197 0 0 1-.675 6.971v.001zm-401.568 9.185c6.399-6.862 12.797-13.885 19.192-20.96 6.398-7.128 12.639-14.308 18.779-21.489-2.341-2.376-4.737-4.119-7.18-5.279-2.444-1.111-5.149-1.691-8.061-1.691-7.437 0-14.249 3.274-20.389 9.822-6.137 6.548-9.204 13.832-9.204 21.858 0 3.378.572 6.601 1.663 9.556a23.994 23.994 0 0 0 5.2 8.183zm57.003 13.994c15.76-26.877 32.195-53.591 49.411-80.045 17.164-26.449 35.158-52.85 53.984-79.25-13.209 5.754-28.188 15.998-44.936 30.782-16.692 14.73-39.994 38.65-69.899 71.753 4.471 7.127 7.696 13.78 9.726 19.957 2.028 6.178 3.067 12.621 3.067 19.326 0 3.644-.417 9.132-1.194 16.579l-.159.898zm-53.671-9.295c7.541 6.814 14.979 12.46 22.361 16.845 7.335 4.382 14.408 7.39 21.116 8.92 1.821-5.755 3.225-11.404 4.161-16.946.988-5.544 1.456-10.876 1.456-16.051 0-7.128-.881-13.623-2.65-19.587a53.2 53.2 0 0 0-8.01-16.156 9617.656 9617.656 0 0 1-23.614 26.557c-7.021 7.865-11.96 13.305-14.82 16.418zm254.273 6.391c12.793-1.953 24.186-7.655 34.118-17.002 9.933-9.399 14.928-18.479 14.928-27.246 0-2.481-.679-4.592-2.083-6.334-1.353-1.745-2.963-2.638-4.783-2.638-5.149 0-12.068 5.118-20.648 15.415-8.529 10.244-15.761 22.861-21.532 37.805zM215.343 266.866c0 2.834.648 4.982 1.939 6.448 1.289 1.462 2.929 2.195 4.913 2.195 1.989 0 3.618-.728 4.896-2.177 1.273-1.455 1.909-3.632 1.909-6.536 0-2.87-.619-5.012-1.863-6.42-1.239-1.415-2.884-2.119-4.942-2.119-2.053 0-3.709.716-4.965 2.142-1.256 1.432-1.887 3.585-1.887 6.467z" stroke="url(#paint0_linear)" stroke-width="1.5" mask="url(#a)"/><defs><linearGradient id="paint0_linear" x1="308.5" y1="1" x2="308.5" y2="279.839" gradientUnits="userSpaceOnUse"><stop stop-color="#fff"/><stop offset="1" stop-color="#fff" stop-opacity=".63"/></linearGradient></defs></svg>