<svg width="228" height="181" viewBox="0 0 228 181" fill="none" xmlns="http://www.w3.org/2000/svg">
<path fill-rule="evenodd" clip-rule="evenodd" d="M138.304 153.596C140.276 156.036 142.087 158.457 144.09 160.706C146.264 163.15 145.647 165.992 143.902 167.889C142.698 169.198 141.527 170.59 140.117 171.639C139.062 172.423 137.562 173.277 136.415 173.1C134.765 172.844 134.244 171.013 134.061 169.427C133.708 166.377 133.473 163.315 132.799 160.194C131.947 162.138 131.249 164.171 130.211 166.009C127.809 170.269 124.445 173.146 119.268 173.47C115.68 173.694 112.502 172.922 109.665 170.687C107.44 168.934 107.274 166.92 109.699 165.164C113.179 162.645 116.566 159.998 120.362 157.125C119.088 157.274 118.153 157.447 117.212 157.481C113.59 157.612 109.965 157.818 106.346 157.742C104.812 157.71 104.214 158.348 103.558 159.543C101.845 162.665 100.336 165.997 98.1007 168.709C94.2001 173.442 89.2067 176.729 82.8885 177.274C79.6927 177.55 77.0215 176.033 74.4279 174.301C70.91 171.951 68.1019 169.055 67.189 164.811C66.7793 162.907 66.9519 160.875 66.8454 158.58C65.5833 158.768 64.0437 158.838 62.5981 159.245C59.0642 160.24 55.4713 161.148 52.1081 162.579C50.3797 163.315 48.9567 164.972 47.6313 166.429C44.7934 169.549 41.8924 172.653 39.4279 176.063C37.3603 178.923 34.7232 180.496 31.4365 180.889C28.0217 181.298 24.6901 180.559 21.5995 178.982C13.3216 174.758 7.78128 168.034 4.30908 159.522C1.03548 151.496 -0.39228 143.099 0.0921929 134.444C0.581128 125.702 5.28584 118.881 13.5294 115.784C16.1353 114.804 18.9584 114.582 21.7891 115.181C24.2985 115.713 26.8288 116.227 29.3761 116.459C30.7749 116.585 32.2833 116.291 33.6432 115.867C35.6648 115.236 37.5988 114.321 39.5989 113.515C36.6823 107.283 37.6777 101.17 38.8876 94.7604C41.626 94.7604 44.2241 94.7604 46.8224 94.7604C41.0897 91.4396 37.5603 86.8103 36.4538 80.3307C35.7192 76.0282 36.6945 72.1956 39.6332 69.0572C42.0636 66.4619 44.7975 64.1527 47.4118 61.7331C50.2196 59.1343 52.828 56.4521 53.2966 52.3366C53.5448 50.1577 52.8894 48.2222 51.743 46.5746C49.5589 43.4348 47.1304 40.4649 44.7621 37.4575C41.9203 33.8491 39.0109 30.3318 38.1343 25.5727C36.9213 18.9877 39.1844 15.1744 44.5686 12.5395C50.0617 9.85135 56.0054 9.39613 62.0171 10.7579C63.4613 11.085 64.8891 11.4847 66.4998 11.8959C65.6282 10.7021 64.8746 9.62514 64.0744 8.58436C63.0304 7.22654 62.5972 5.00005 63.2326 4.03803C64.0914 2.73852 65.7372 2.2264 67.6291 2.56585C71.4753 3.25485 74.4842 5.54581 77.5559 7.72409C78.2021 8.18211 78.8311 8.66424 79.7755 9.36305C79.035 7.67588 78.3232 6.35843 77.8828 4.95464C77.5361 3.85023 77.342 2.62892 77.4075 1.47826C77.499 -0.121463 78.9538 -0.0505449 79.9903 0.0385932C83.1702 0.311894 85.7479 1.93208 88.0439 4.06915C94.4762 10.0563 99.5003 17.1153 103.746 25.0172C116.478 20.7144 129.243 19.1879 142.302 23.9329C155.155 28.6029 165.267 36.3747 171.681 48.768C171.838 48.708 171.994 48.6477 172.15 48.5874C173.562 44.5577 174.946 40.5179 176.396 36.5022C177.328 33.9206 178.715 31.6027 180.867 29.8508C183.57 27.6507 186.659 27.8348 189.774 28.6051C197.551 30.5283 204.422 34.3226 210.331 39.6322C217.456 46.0347 223.558 53.33 227.242 62.3708C228.733 66.0296 227.985 69.3846 225.342 72.1544C221.721 75.9497 217.361 78.6508 212.464 80.6034C206.2 83.101 199.623 84.2867 193.113 85.7844C192.442 85.9385 191.799 86.2138 191.316 86.375C192.138 89.5142 193.024 92.5022 193.691 95.5391C194.867 100.884 194.539 106.217 192.834 111.388C191.614 115.091 190.442 118.91 188.519 122.253C186.578 125.627 183.947 128.682 181.234 131.504C178.051 134.813 174.778 138.23 170.955 140.67C166.171 143.724 160.927 146.191 155.626 148.245C150.215 150.342 144.494 151.631 138.91 153.278C138.764 153.321 138.634 153.42 138.304 153.596Z" fill="black"/>
<path fill-rule="evenodd" clip-rule="evenodd" d="M132.794 154.362C132.563 154.969 132.139 155.573 132.132 156.183C132.079 160.33 130.138 163.842 128.077 167.15C126.525 169.641 123.522 170.351 120.691 170.6C117.236 170.904 113.885 170.469 111.027 168.164C110.444 167.693 109.713 167.406 109.05 167.034C109.181 166.755 109.312 166.476 109.444 166.197C113.581 163.181 117.719 160.165 121.856 157.149C121.789 156.937 121.722 156.725 121.655 156.514C120.386 156.514 119.115 156.467 117.849 156.522C113.422 156.714 108.998 156.973 104.57 157.132C103.593 157.167 103.164 157.413 102.67 158.375C100.95 161.726 99.4311 165.335 97.0216 168.143C92.6897 173.191 86.8518 175.509 80.0131 172.47C74.0872 169.836 69.8193 165.537 68.0318 159.069C67.9297 158.699 67.2723 158.222 66.8904 158.237C65.3008 158.3 64.2917 157.307 63.294 156.375C59.954 153.257 56.8462 149.918 54.5798 145.907C51.4222 140.318 49.1041 134.405 48.2636 128C47.7383 123.996 47.3791 119.969 46.9822 115.949C46.8542 114.654 47.1902 114.018 48.7706 114.457C49.6785 114.709 50.7729 114.288 51.7828 114.167C52.3002 114.105 52.8168 114.035 53.4659 113.951C53.9964 132.539 60.9673 147.591 76.9249 157.809C75.4993 159.415 74.2747 160.795 73.0496 162.176C73.1916 162.336 73.3336 162.496 73.4756 162.656C74.332 162.004 75.2142 161.382 76.0332 160.685C76.3941 160.378 76.6191 159.913 76.9185 159.53C78.4467 157.574 78.4573 157.561 76.4931 156.199C69.6561 151.456 65.0858 144.9 61.7242 137.429C59.6403 132.798 58.1834 127.943 57.4377 122.907C57.0022 119.967 56.7114 117.004 56.4115 114.046C56.3757 113.692 56.6055 113.056 56.8571 112.968C59.2733 112.123 61.7206 111.369 64.5491 110.463C65.0243 114.315 65.5456 117.932 65.9018 121.565C66.5016 127.685 66.5916 133.887 67.6404 139.925C68.9056 147.206 73.1997 152.636 79.8222 156.054C81.4234 156.881 83.1033 157.553 85.0997 158.456C83.0488 161.65 80.8025 165.148 78.5565 168.646C82.5507 165.868 84.5887 161.653 86.7556 157.337C85.1028 156.458 83.4784 155.654 81.9103 154.753C75.2911 150.946 71.2874 145.418 70.0653 137.706C69.1513 131.937 69.6603 126.191 69.5616 120.438C69.497 116.673 69.3875 112.955 68.3775 109.307C68.2833 108.967 68.2084 108.468 68.3812 108.23C69.9191 106.118 69.1501 104.014 68.2037 102.076C67.0699 99.7537 65.5588 97.6202 64.3328 95.3395C63.819 94.3834 63.3379 93.2627 63.3198 92.2084C63.2049 85.5088 63.902 78.8821 65.9473 72.4825C67.1554 68.7017 68.6973 65.0278 69.8671 61.1741C69.0095 62.8049 68.1522 64.4353 67.3072 66.042C65.8215 63.9606 64.5002 61.8658 62.9346 59.9752C60.7814 57.3748 58.1546 55.2974 55.0116 53.9922C53.9573 53.5545 53.4692 52.9641 53.5656 51.7954C53.6537 50.7263 53.5844 49.6442 53.5844 48.2807C60.714 49.7236 66.4667 53.5346 71.5317 58.6716C71.733 58.2112 72.1386 57.6482 72.1987 57.0502C72.2649 56.3901 72.2577 55.4587 71.8646 55.0566C67.4428 50.532 62.0848 47.6913 55.8251 46.8182C53.5598 46.5022 52.3083 45.5506 51.2766 43.4863C49.3238 39.5802 46.7885 35.9669 44.8346 32.0611C42.3929 27.18 43.7593 22.2828 48.2641 19.1116C53.5318 15.4034 59.5009 14.7243 65.7248 15.4816C67.3612 15.6807 68.9891 15.9502 70.706 16.2C69.4054 14.3789 68.0882 12.6393 66.8862 10.823C65.6275 8.92111 65.9442 7.06746 67.5334 6.798C68.4276 6.64603 69.4747 6.54061 70.2761 6.86025C72.4684 7.73534 74.6294 8.73605 76.6851 9.89658C78.6306 10.9949 80.4266 12.3598 82.5641 13.4337C82.2516 12.8796 81.8731 12.3525 81.6386 11.7673C80.8053 9.68713 79.9326 7.61534 79.2539 5.48326C78.895 4.35694 79.7009 3.76419 80.7321 4.10459C82.1406 4.56975 83.5718 5.12716 84.8073 5.93272C91.5976 10.3578 96.1075 16.793 100.111 23.66C100.633 24.5567 100.946 25.8488 102.568 25.5179C101.583 25.9463 100.559 26.3016 99.622 26.8183C97.6963 27.8807 95.7746 28.9628 93.9406 30.1729C93.1235 30.7124 92.74 30.4659 92.1639 29.8984C89.831 27.5987 87.4612 25.3362 85.091 23.0746C84.071 22.1011 83.0387 21.1379 81.9693 20.2205C81.5276 19.842 80.9736 19.5958 80.4707 19.2893C80.3195 19.4783 80.1683 19.667 80.0173 19.856C83.9279 23.6592 87.8382 27.4621 91.9255 31.4375C89.9685 33.2177 88.087 34.9289 86.2296 36.6182C79.7571 31.362 73.0806 26.7238 65.7642 23.1035C65.6443 23.2863 65.5247 23.4694 65.4048 23.6522C72.0505 28.2422 78.6963 32.8318 85.4623 37.5048C83.9212 39.539 82.5789 41.2261 81.328 42.9786C78.2331 47.3156 75.7375 51.9911 74.1076 57.065C72.8391 61.0146 71.7347 65.0303 70.8147 69.0758C70.1612 71.9503 69.8283 74.9129 69.5482 77.855C69.2242 81.2545 68.8256 84.6875 68.9833 88.0816C69.1988 92.7112 69.7128 97.3499 70.462 101.925C71.2184 106.545 72.2286 111.144 73.4638 115.659C75.7123 123.88 78.8744 131.776 84.2555 138.461C87.9078 142.998 92.8773 146.025 98.4497 147.665C102.485 148.852 106.674 149.754 110.853 150.142C114.897 150.517 118.9 149.524 122.469 147.402C123.05 147.057 123.284 146.124 123.678 145.463C122.876 145.016 122.115 144.307 121.265 144.175C119.142 143.844 116.971 143.838 114.833 143.589C109.394 142.957 104.573 140.608 99.7414 138.196C92.2112 134.436 89.2571 127.395 86.4182 120.191C83.7647 113.457 81.9176 106.488 80.5034 99.4144C79.6467 95.1281 79.0429 90.7689 78.6709 86.4125C78.315 82.2498 78.1068 78.0303 78.3595 73.8676C79.0038 63.2518 80.4551 52.7826 85.4964 43.1642C88.6184 37.2073 92.7705 32.1934 98.3594 28.4062C100.811 26.7452 103.613 25.994 106.384 25.1929C113.092 23.2526 119.894 21.9107 126.935 22.1227C132.297 22.2842 137.477 23.4035 142.356 25.5028C146.987 27.4955 151.56 29.7293 155.874 32.3322C159.838 34.7233 163.066 38.0914 165.653 42.0179C167.08 44.1825 168.68 46.2305 170.13 48.3802C171.411 50.2788 172.591 52.2449 173.661 53.9378C171.075 53.7926 168.256 53.5201 165.435 53.5013C160.108 53.4659 155.776 55.9283 151.726 59.1466C148.249 61.909 146.238 65.6875 144.517 69.5796C143.649 71.5449 143.406 73.8805 143.297 76.0698C143.126 79.5247 143.067 82.9853 144.361 86.3587C145.342 88.9172 147.063 90.6966 149.095 92.3643C154.102 96.4757 159.983 98.4538 166.265 98.2623C174.135 98.0228 180.889 94.915 185.523 88.1279C186.482 86.7229 187.423 85.3052 188.463 83.7589C190.435 88.6777 192.372 93.3527 192.84 98.6369C193.413 105.103 191.882 111.01 189.844 116.998C187.854 122.844 184.137 127.375 179.926 131.609C176.645 134.909 173.6 138.57 169.399 140.735C164.193 143.417 158.903 145.968 153.512 148.249C148.468 150.384 143.137 151.678 137.727 152.604C136.409 152.83 136.609 153.812 137.207 154.573C138.344 156.022 139.602 157.374 140.792 158.781C141.21 159.276 141.602 159.797 141.964 160.335C143.762 163.014 143.568 164.621 141.265 167.039C139.784 168.594 138.325 170.218 135.904 169.783C135.38 169.689 134.645 169.052 134.549 168.559C134.016 165.822 133.642 163.053 133.237 160.292C133.196 160.018 133.306 159.721 133.684 159.387C134.237 161.305 134.79 163.224 135.342 165.142C135.434 165.145 135.526 165.148 135.618 165.15C135.583 164.459 135.68 163.73 135.49 163.085C134.625 160.148 133.679 157.236 132.764 154.318C135.715 158.038 136.492 162.665 138.007 167.111C138.562 166.571 139.03 165.985 138.927 165.527C138.673 164.393 138.18 163.309 137.742 162.221C136.895 160.115 136.02 158.02 135.156 155.919C135.244 155.866 135.334 155.812 135.422 155.758C137.15 158.089 138.878 160.419 140.67 162.838C141.107 161.21 135.446 153.377 132.986 152.186C132.917 152.973 132.855 153.667 132.794 154.362ZM83.8262 81.4956C83.6009 81.8828 83.2744 82.2439 83.1668 82.6617C82.2083 86.376 81.9654 90.1815 82.2756 93.9715C82.5135 96.873 83.0055 99.8984 85.1478 102.072C86.9829 103.935 89.0914 105.581 91.2739 107.027C93.1213 108.252 95.1912 109.201 97.2689 109.991C98.6987 110.534 100.3 110.693 101.843 110.85C104.054 111.074 106.338 111.525 108.489 111.203C114.949 110.232 120.921 108.07 125.034 102.527C127.103 99.7391 129.314 97.1135 130.073 93.4623C130.993 89.0305 130.226 84.9127 129.001 80.7394C128.116 77.7246 125.963 75.5303 124.262 73.0382C122.392 70.2991 120.027 68.0215 117.136 66.515C112.545 64.1221 107.374 64.0397 102.544 64.8447C96.907 65.784 91.8279 68.6409 88.3322 73.4277C86.5152 75.9158 85.2744 78.8274 83.7731 81.5477L83.8262 81.4956ZM121.399 115.498C124.706 118.918 127.668 122.212 130.882 125.235C133.469 127.667 136.389 129.643 139.975 130.534C146.253 132.093 151.881 128.836 154.729 123.822C156.627 120.48 157.712 116.674 159.161 113.076C158.246 113.285 157.535 113.844 156.799 114.369C155.401 115.367 154.08 116.536 152.555 117.28C150.978 118.049 149.231 118.586 147.499 118.892C144.441 119.431 141.339 120.006 138.253 120.02C135.723 120.031 133.142 119.427 130.669 118.771C127.81 118.012 125.078 116.843 122.861 114.124C124.325 114.051 125.459 113.995 126.594 113.938C124.457 112.315 121.959 113.197 121.016 114.411C119.768 116.018 119.363 118.94 120.358 120.255C120.728 118.567 121.085 116.934 121.399 115.498ZM86.014 55.0159C86.2639 54.5653 86.5714 54.1372 86.7542 53.6608C87.954 50.5376 90.0138 48.1257 92.9891 46.6794C96.0407 45.1959 99.3757 45.211 102.697 45.3832C103.146 45.4064 103.606 45.2071 104.06 45.1106C103.773 44.7203 103.562 44.2184 103.186 43.9588C101.169 42.5675 98.8678 42.521 96.5159 42.5336C89.8011 42.5695 84.9191 48.025 86.014 55.0159ZM79.335 44.5785C77.3649 43.4698 75.4012 42.4803 73.5547 41.3058C66.4823 36.8078 58.9681 33.472 50.606 32.3081C50.1694 32.2472 49.6992 32.4323 49.2447 32.5029C49.6274 32.7626 49.9796 33.1753 50.3975 33.2594C57.4022 34.6675 63.8847 37.3893 69.9898 41.054C72.2493 42.4099 74.4254 43.9055 76.6884 45.2542C77.5231 45.7519 78.5627 46.4287 79.335 44.5785ZM144.585 38.745C144.92 38.9592 145.165 39.2096 145.259 39.1616C147.571 37.9778 149.993 38.3833 152.403 38.6365C155.258 38.9365 158.058 39.3447 160.287 41.4754C160.664 41.8354 161.426 41.7897 162.011 41.9313C161.878 41.3203 161.958 40.4705 161.581 40.1357C158.413 37.3178 155.071 34.7895 150.431 35.6332C148.231 36.033 146.217 36.8445 144.585 38.745ZM118.663 168.383C119.361 168.965 120.005 168.307 120.524 167.608C122.74 164.628 124.954 161.645 127.082 158.603C127.858 157.492 128.392 156.212 129.135 154.824C128.593 154.824 128.268 154.739 128.199 154.836C125.031 159.306 121.886 163.792 118.663 168.383ZM112.24 166.751C114.476 167.09 125.367 157.519 125.148 155.614C120.896 159.282 116.644 162.951 112.24 166.751ZM131.75 153.091C131.022 153.27 130.829 153.262 130.732 153.354C130.584 153.496 130.442 153.695 130.399 153.891C129.508 157.876 127.723 161.469 125.687 164.966C125.493 165.3 125.734 165.892 125.772 166.363C126.125 166.1 126.643 165.913 126.805 165.562C128.115 162.727 129.401 159.878 130.6 156.993C131.078 155.845 131.316 154.596 131.75 153.091ZM89.4002 168.782C89.6158 168.841 89.8316 168.9 90.0468 168.96C91.8335 165.245 93.5339 161.5 93.9532 157.318C93.7234 157.237 93.4934 157.157 93.2636 157.076C91.9758 160.978 90.688 164.88 89.4002 168.782Z" fill="#F15A29"/>
<path fill-rule="evenodd" clip-rule="evenodd" d="M29.5637 174.981C32.9658 171.214 36.2592 167.569 39.5524 163.923C39.4691 163.809 39.3858 163.694 39.3025 163.579C38.9978 163.771 38.6562 163.922 38.394 164.161C35.0243 167.224 31.6876 170.325 28.2731 173.336C27.9072 173.659 26.9747 173.73 26.5233 173.495C24.2725 172.325 22.3217 170.752 20.8061 168.868C25.337 165.024 29.7186 161.306 34.1005 157.588C33.9934 157.45 33.8863 157.312 33.7796 157.173C32.3025 158.301 30.8406 159.448 29.3457 160.551C26.7014 162.502 24.0509 164.446 21.3733 166.351C20.3046 167.111 19.2313 167.424 18.3804 165.954C17.3302 164.138 16.2216 162.357 15.1395 160.56C14.4857 159.474 15.3142 159.222 16.0427 158.774C21.3118 155.531 26.5549 152.246 31.8022 148.968C31.9336 148.885 32.0205 148.732 32.312 148.406C26.1443 151.619 20.2082 154.712 14.1159 157.886C13.7008 157.241 13.2435 156.764 13.0573 156.198C12.3968 154.188 11.9068 152.119 11.1988 150.128C10.7196 148.779 11.1149 148.067 12.3834 147.657C17.4873 146.006 22.5912 144.353 27.6909 142.689C28.4395 142.445 29.1668 142.135 29.8698 141.635C27.7977 142.072 25.7141 142.462 23.6562 142.957C19.5449 143.947 15.452 145.014 11.336 145.982C10.9768 146.067 10.157 145.692 10.1307 145.464C9.77736 142.367 9.52662 139.259 9.23424 135.968C14.0759 135.745 18.559 135.539 23.0418 135.332C23.0572 135.235 23.0725 135.137 23.0879 135.04C22.2119 134.876 21.3409 134.609 20.4589 134.566C17.2709 134.411 14.0798 134.289 10.8888 134.247C9.78714 134.233 9.48581 133.906 9.69099 132.817C10.0882 130.708 10.3029 128.564 10.7565 126.469C10.8485 126.045 11.6726 125.472 12.143 125.487C14.9436 125.576 17.7377 125.849 20.5375 125.994C22 126.069 23.4695 126.007 24.9859 125.688C20.6501 125.004 16.3147 124.32 11.75 123.599C12.822 120.891 13.6812 118.112 16.003 116.559C17.0906 115.831 19.0325 116.195 20.5557 116.36C23.3277 116.658 26.0741 117.491 28.8355 117.512C31.3681 117.53 33.9065 116.77 36.5527 116.335C33.5148 134.665 40.1765 149.176 55.3622 159.978C53.718 160.732 51.9606 161.178 50.672 162.211C48.5067 163.948 46.5484 165.975 44.6691 168.033C42.1548 170.787 39.807 173.693 37.3595 176.509C37.1901 176.704 36.7803 176.778 36.4893 176.764C34.0088 176.645 31.6185 176.175 29.5637 174.981Z" fill="#F15A29"/>
<path fill-rule="evenodd" clip-rule="evenodd" d="M45.8744 87.0288C50.2946 84.1052 52.9211 85.3577 56.437 88.3093C59.6093 90.9727 62.4202 93.9855 64.6179 97.5052C66.0046 99.7262 67.1686 102.087 68.2386 104.542C60.5373 98.6728 51.9936 96.4571 42.5584 97.5731C44.957 99.148 47.7825 97.7433 49.9555 98.6994C48.599 99.5807 46.9431 100.557 45.3995 101.688C43.9007 102.786 42.1201 103.668 41.4227 105.549C41.5535 105.703 41.6846 105.857 41.8151 106.011C42.5961 105.385 43.3665 104.745 44.1615 104.137C44.9568 103.529 45.7769 102.954 46.7396 102.253C48.4486 106.373 45.8275 108.667 43.4895 111.085C45.1748 111.526 45.6791 110.162 46.5056 109.294C47.8971 107.833 48.6952 106.105 48.862 104.102C48.9462 103.088 48.509 101.61 49.0292 101.132C50.5775 99.7091 52.6407 99.1775 54.7743 99.5439C59.1308 100.292 62.9424 102.162 66.1064 105.302C66.3619 105.556 66.699 105.774 67.0383 105.886C68.3116 106.304 68.5134 106.958 67.4666 107.836C66.6931 108.484 65.814 109.128 64.8723 109.432C60.8932 110.719 56.8971 111.968 52.8573 113.042C51.1036 113.507 49.233 113.653 47.4088 113.704C43.7062 113.807 42.5022 112.829 41.6592 109.181C40.6716 104.909 40.9313 100.611 41.3123 96.6029C43.4367 96.1557 45.2863 95.8574 47.0733 95.3412C47.6877 95.1634 48.6306 94.3772 48.5783 93.9816C48.4559 93.0574 48.0422 91.928 47.3534 91.3675C45.0395 89.4844 42.6976 87.7312 41.3511 84.9026C39.7637 81.5685 39.6779 78.3 41.1311 74.9451C43.3587 69.8036 47.1424 65.7358 50.412 61.3073C51.7716 59.4663 52.8674 57.429 54.1814 55.3232C56.5566 56.4815 58.8138 58.3001 60.5345 60.6061C62.2296 62.8783 63.5702 65.4217 64.9922 67.8894C65.2658 68.3647 65.4327 69.1338 65.2446 69.6054C64.3501 71.8494 63.3164 74.0375 62.328 76.2543C57.9313 74.6216 53.8474 72.9454 49.4091 72.6518C49.3476 72.7918 49.2864 72.9317 49.2249 73.0716C49.5337 73.2513 49.8242 73.4838 50.1549 73.6026C53.4387 74.7822 56.7291 75.9433 60.0177 77.1092C61.1529 77.5118 61.3175 78.0827 60.7079 79.2073C59.791 80.8981 59.1257 82.7259 58.3486 84.507C57.0978 84.2103 55.8472 83.7771 54.5652 83.6386C51.938 83.3546 49.2947 83.211 46.6554 83.0543C46.1895 83.0265 45.712 83.2194 45.2382 83.3019C44.0173 83.5147 43.8378 84.1371 44.5235 85.1081C44.9584 85.723 45.3903 86.3399 45.8744 87.0288Z" fill="#F15A29"/>
<path fill-rule="evenodd" clip-rule="evenodd" d="M220.732 62.9697C211.769 68.2988 202.785 72.5145 193.565 76.2439C192.766 76.5675 191.964 76.8986 191.202 77.2996C190.988 77.4117 190.911 77.7846 190.771 78.0381C191.079 78.1138 191.451 78.3418 191.685 78.2425C198.223 75.488 204.761 72.7326 211.268 69.9043C214.276 68.5966 217.232 67.1649 220.183 65.7276C221.073 65.2942 221.48 65.4674 221.676 66.4084C222.55 70.5974 221.445 73.4327 217.452 75.9568C212.529 79.0685 207.206 81.1776 201.658 82.7436C198.36 83.6748 194.986 84.3491 191.627 85.0462C190.053 85.3725 188.465 83.4816 188.915 81.4053C189.552 78.468 189.095 75.6158 188.946 72.7208C188.925 72.3168 189.341 71.7184 189.72 71.4919C194.027 68.9244 198.443 66.5324 202.677 63.851C206.853 61.2058 210.888 58.3307 214.909 55.4486C215.904 54.7353 216.3 54.8082 216.838 55.8406C218.081 58.2202 219.406 60.5556 220.732 62.9697Z" fill="#F15A29"/>
<path fill-rule="evenodd" clip-rule="evenodd" d="M184.557 62.3509C181.564 59.6264 178.677 57.0244 175.823 54.3859C174.877 53.5111 173.932 52.6074 173.162 51.584C172.854 51.1766 172.779 50.2872 173.011 49.8257C175.382 45.1081 177.779 40.4004 180.336 35.7832C180.716 35.098 181.969 34.5355 182.814 34.5397C185.673 34.5537 188.531 34.8324 191.386 35.0573C191.715 35.0834 192.022 35.4041 192.455 35.6551C187.756 42.104 183.357 48.6141 179.782 55.6283C179.978 55.7626 180.173 55.8969 180.369 56.0312C180.932 55.2021 181.474 54.3579 182.061 53.547C185.317 49.0518 188.58 44.5625 191.85 40.0771C192.64 38.9931 193.418 37.894 194.296 36.8849C194.58 36.5593 195.278 36.2279 195.598 36.3594C199.175 37.8315 202.575 39.6187 205.627 42.5041C198.506 49.2119 191.465 55.8445 184.557 62.3509Z" fill="#F15A29"/>
<path fill-rule="evenodd" clip-rule="evenodd" d="M214.769 52.343C211.008 55.2921 207.625 58.2314 203.954 60.7479C199.698 63.6642 195.176 66.1877 190.802 68.9342C190.016 69.4279 189.389 70.176 188.768 70.7354C187.841 68.8674 186.676 66.6134 185.635 64.3033C185.495 63.9931 185.86 63.2627 186.198 62.9568C189.642 59.8372 193.091 56.719 196.617 53.6925C200.014 50.7767 203.508 47.9742 206.949 45.1095C207.819 44.385 208.44 44.8064 209.019 45.4934C210.862 47.6815 212.698 49.8753 214.769 52.343Z" fill="#F15A29"/>
<path fill-rule="evenodd" clip-rule="evenodd" d="M53.5561 85.0532C54.9107 85.3406 56.2653 85.6285 57.784 85.9507C57.6674 86.3873 57.4977 87.0221 57.3141 87.7084C55.8924 86.8216 54.6287 86.0334 53.3649 85.2452C53.4289 85.1813 53.4924 85.1174 53.5561 85.0532Z" fill="#F15A29"/>
<path fill-rule="evenodd" clip-rule="evenodd" d="M146 128.617C139.862 129.955 135.351 127.619 131 124.247C136.834 123.589 140.355 123.995 146 128.617Z" fill="#ED1C24"/>
<path fill-rule="evenodd" clip-rule="evenodd" d="M144.481 78.6619C144.271 70.9702 147.08 64.6491 152.945 59.6185C156.823 56.2914 161.257 54.2952 166.262 54.206C175.951 54.0333 182.29 59.2646 186.491 67.6518C188.737 72.1356 189.341 76.8728 188.192 81.6368C187.623 83.9987 186.127 86.2249 184.708 88.273C180.761 93.9693 174.98 96.6189 168.313 97.3149C162.279 97.9453 156.745 96.4574 151.591 93.049C147.737 90.5 145.295 87.2296 144.516 82.7312C144.288 81.4127 144.481 80.0205 144.481 78.6619ZM170.211 80.3777C170.395 73.636 164.505 68.839 159.192 68.6489C152.126 68.3963 146.975 73.7132 146.988 80.3444C147.002 87.0695 151.579 91.986 158.544 92.0174C165.304 92.0479 170.194 87.1059 170.211 80.3777Z" fill="white"/>
<path fill-rule="evenodd" clip-rule="evenodd" d="M89.685 35.4164C84.7782 41.4018 81.5382 48.2352 79.5284 55.6613C77.4732 63.2549 76.3495 70.9657 76.2636 78.875C76.1717 87.3221 76.9443 95.6529 78.7887 103.859C80.9172 113.332 83.9436 122.537 88.9794 130.888C91.9168 135.758 95.9226 139.504 101.382 141.799C105.733 143.628 110.149 144.932 114.736 145.782C115.789 145.977 116.909 145.781 117.988 145.875C118.392 145.91 118.769 146.256 119.158 146.461C118.849 146.77 118.556 147.328 118.228 147.35C115.168 147.556 112.087 147.936 109.041 147.757C102.798 147.392 97.1962 144.815 91.8311 141.828C87.8398 139.607 85.2437 135.998 83.2339 131.923C80.2903 125.957 77.9444 119.762 76.3021 113.323C74.544 106.431 72.7018 99.5425 72.4043 92.3662C72.2759 89.2704 71.7495 86.1646 71.9052 83.089C72.3144 74.9958 73.152 66.9771 75.5984 59.1471C77.8693 51.8789 81.1726 45.2367 85.7258 39.1986C86.8174 37.7506 88.1527 36.4879 89.376 35.1399C89.479 35.2322 89.582 35.3242 89.685 35.4164Z" fill="white"/>
<path fill-rule="evenodd" clip-rule="evenodd" d="M62.6147 158.817C61.4979 159.052 59.5723 159.507 57.6253 159.829C57.2069 159.899 56.5708 159.614 56.2716 159.279C53.8237 156.54 51.307 153.849 49.0498 150.955C44.5823 145.227 41.7323 138.643 39.7364 131.708C38.2537 126.558 37.9721 121.227 38.2772 115.887C38.3623 114.395 39.7964 114.489 40.8327 114.269C41.2224 114.186 41.6678 114.417 42.0893 114.427C45.3412 114.507 45.3217 114.547 45.1539 117.878C45.0406 120.127 44.9926 122.399 45.1757 124.638C45.4082 127.487 45.751 130.345 46.3167 133.143C47.5459 139.224 50.118 144.706 54.1969 149.403C57.033 152.669 59.9598 155.854 62.6147 158.817Z" fill="white"/>
<path fill-rule="evenodd" clip-rule="evenodd" d="M84.1929 81.7088C85.0902 80.2117 86.0275 78.737 86.8788 77.2136C90.553 70.6368 96.3739 66.656 103.48 65.4904C110.081 64.4077 116.511 65.7051 121.559 71.0795C124.452 74.1599 127.173 77.2859 128.499 81.3244C130.92 88.6981 130.546 95.5559 125.164 101.847C120.663 107.108 115.127 109.919 108.431 110.491C101.958 111.045 96.0309 109.631 90.4771 105.835C83.6818 101.19 82.6695 94.7416 83.4622 87.4102C83.6704 85.4852 83.9844 83.5719 84.2479 81.6553C84.2456 81.6567 84.1929 81.7088 84.1929 81.7088ZM118.561 93.2534C118.937 88.5994 115.85 83.5419 111.668 81.2812C107.996 79.2956 102.101 79.673 98.9903 82.2402C94.129 86.2529 92.4733 91.4249 94.1508 97.4074C96.0312 104.114 102.468 108.185 109.724 106.154C114.597 104.791 119.062 99.0282 118.561 93.2534Z" fill="white"/>
<path fill-rule="evenodd" clip-rule="evenodd" d="M158.566 74.1265C158.599 72.1471 160.213 70.487 162.111 70.4811C164.191 70.4747 166.13 72.3375 166.021 74.2361C165.913 76.114 163.88 78.061 162.065 78.0242C160.177 77.9858 158.533 76.1539 158.566 74.1265Z" fill="white"/>
<path fill-rule="evenodd" clip-rule="evenodd" d="M110.59 83.1962C112.735 83.222 114.347 84.8105 114.305 86.857C114.267 88.7267 112.278 90.7841 110.576 90.7146C108.475 90.6288 106.813 88.7896 106.858 86.599C106.899 84.5949 108.461 83.1707 110.59 83.1962Z" fill="white"/>
<path fill-rule="evenodd" clip-rule="evenodd" d="M73.7264 168.757C76.2385 171 77.3549 171 77.3549 171C79.4502 167.732 83.6031 161.609 85.5173 158.623C83.5239 157.72 81.8464 157.048 80.2476 156.221C73.6352 152.803 69.3472 147.372 68.0839 140.09C67.0367 134.052 66.9468 127.85 66.3478 121.729C65.9922 118.095 65.4717 114.478 64.9972 110.627C62.1728 111.532 59.7292 112.287 57.3166 113.131C57.0654 113.219 56.8357 113.856 56.8717 114.21C57.1711 117.168 57.4614 120.131 57.8963 123.071C58.641 128.108 60.0957 132.963 62.1765 137.595C65.5331 145.066 70.0966 151.623 76.9234 156.366C78.8847 157.729 78.8744 157.741 77.3482 159.697C77.0493 160.08 76.8246 160.545 76.4643 160.852C75.6465 161.549 72.0693 164.74 71.2141 165.392" fill="white"/>
<path fill-rule="evenodd" clip-rule="evenodd" d="M62.1304 79.9838C61.7606 83.5733 61.3908 87.1629 61.0084 90.8753C58.5857 89.0938 58.4433 88.9373 59.2128 86.5628C59.9483 84.2937 60.9068 82.0975 61.767 79.8694C61.8881 79.9072 62.0093 79.9456 62.1304 79.9838Z" fill="white"/>
</svg>
