<svg width="13" height="13" fill="none" xmlns="http://www.w3.org/2000/svg"><path d="M12.972 10.073c-.036-.111-.27-.274-.701-.49a27.63 27.63 0 0 0-.499-.277 46.078 46.078 0 0 1-.586-.323c-.176-.098-.34-.194-.494-.286a12.149 12.149 0 0 0-.23-.162 2.59 2.59 0 0 0-.329-.198.604.604 0 0 0-.263-.065c-.123 0-.277.088-.461.263a4.495 4.495 0 0 0-.508.573 5.565 5.565 0 0 1-.49.572c-.172.176-.313.263-.424.263a.628.628 0 0 1-.208-.046 2.155 2.155 0 0 1-.19-.078 3.45 3.45 0 0 1-.22-.13 5.73 5.73 0 0 0-.176-.106 9.703 9.703 0 0 1-2.17-1.606 9.697 9.697 0 0 1-1.607-2.17 5.33 5.33 0 0 0-.106-.175 3.331 3.331 0 0 1-.13-.222 2.003 2.003 0 0 1-.078-.19.625.625 0 0 1-.046-.207c0-.11.088-.252.263-.425.176-.172.367-.335.573-.489.206-.154.397-.323.572-.508.176-.184.263-.338.263-.461a.603.603 0 0 0-.064-.263 2.567 2.567 0 0 0-.199-.328l-.161-.231a20.27 20.27 0 0 1-.287-.494 47.23 47.23 0 0 1-.323-.586 21.93 21.93 0 0 0-.277-.499C3.201.3 3.038.065 2.927.028A.517.517 0 0 0 2.733 0c-.166 0-.383.03-.65.092a3.656 3.656 0 0 0-.633.194C1.142.416.816.791.47 1.412.158 1.991 0 2.563 0 3.13a3.482 3.482 0 0 0 .148 1.015c.055.197.1.344.134.439.033.095.096.266.189.512.092.247.148.397.166.453.215.603.47 1.141.766 1.615.486.788 1.15 1.602 1.99 2.443.84.84 1.654 1.503 2.442 1.99.474.295 1.013.55 1.616.766.056.018.206.073.452.166l.513.19c.095.033.242.078.438.133.198.056.374.094.531.116.157.021.319.032.485.032.566 0 1.139-.157 1.718-.47.621-.345.996-.672 1.126-.98a3.67 3.67 0 0 0 .194-.632c.061-.268.092-.485.092-.651a.53.53 0 0 0-.028-.194z" fill="#4F4F4F"/></svg>