<svg width="822" height="506" fill="none" xmlns="http://www.w3.org/2000/svg"><g opacity=".1" fill-rule="evenodd" clip-rule="evenodd"><path d="M199.483 1022.8c-23.193-12.65-112.569-61.387-162.446-187.428-10.605-26.807-60.477-152.854-23.724-264.221C61.94 423.795 210.28 459.559 278.35 320.893c58.536-119.236-62.729-236.551-10.53-378.64 27.252-74.179 90.013-136.098 148.109-141.8 151.825-14.912 404.858 340.982 405.367 692.478v2.175c-.097 67.53-9.549 134.863-30.85 199.342-75.097 227.322-278.553 361.602-453.115 361.622-49.47.01-96.586-10.77-137.848-33.27" fill="url(#paint0_linear)"/><path d="M199.483 1022.8c-23.193-12.65-112.569-61.387-162.446-187.428-10.605-26.807-60.477-152.854-23.724-264.221C61.94 423.795 210.28 459.559 278.35 320.893c58.536-119.236-62.729-236.551-10.53-378.64 27.252-74.179 90.013-136.098 148.109-141.8 151.825-14.912 404.858 340.982 405.367 692.478v2.175c-.097 67.53-9.549 134.863-30.85 199.342-75.097 227.322-278.553 361.602-453.115 361.622-49.47.01-96.586-10.77-137.848-33.27" fill="#fff" style="mix-blend-mode:overlay"/></g><defs><linearGradient id="paint0_linear" x1="0" y1="-212.326" x2="821.296" y2="-212.326" gradientUnits="userSpaceOnUse"><stop stop-color="#00A1FF"/><stop offset="1" stop-color="#00A1FF" stop-opacity=".01"/></linearGradient></defs></svg>