<svg width="52" height="50" fill="none" xmlns="http://www.w3.org/2000/svg"><path fill-rule="evenodd" clip-rule="evenodd" d="M36.14 22.223c-1.23-.275-2.327.11-3.045-.064C31.222 19.589 28.63 18 25.755 18c-2.865 0-5.457 1.588-7.32 4.14-.719.165-1.958-.743-3.48-.192-2.214.798-5.326-.037-4.919 1.01.388.99.095 4.957 6.072 4.066-.435 1.542-.407 3.186-.492 4.93-.094 1.928-1.986 6.61.568 9.547 2.27 2.617 5.277 4.526 9.552 4.499 2.734-.019 6.933-1.506 8.796-3.856 2.838-3.58 1.04-7.252.946-9.088-.085-1.745.36-4.48-.076-6.023 3.207.358 5.174-2.634 5.562-3.617.406-1.046-2.696-.716-4.824-1.193z" fill="#603813"/><path fill-rule="evenodd" clip-rule="evenodd" d="M26.179 41.924c2.659 0 4.814-1.685 4.814-3.763s-2.155-3.763-4.814-3.763c-2.659 0-4.814 1.685-4.814 3.763s2.155 3.763 4.814 3.763zM15.242 22.626c-1.441.559-2.393.54-2.12 1.241.274.702 1.658 1.593 3.1 1.034a4.15 4.15 0 0 0 .508-.228c.302-.9.66-1.754 1.074-2.54-.593-.228-1.563.113-2.562.493zm21.544.189c1.441.56 2.384.085 2.12.796-.264.711-1.649 2.133-3.09 1.583a4.125 4.125 0 0 1-.509-.227c-.301-.9-.66-1.754-1.074-2.54.905-.37 1.234-.114 2.553.388z" fill="#A67C52"/><path fill-rule="evenodd" clip-rule="evenodd" d="M16.65 46.063c.91 0 1.65-.686 1.65-1.532 0-.845-.74-1.531-1.65-1.531-.911 0-1.65.686-1.65 1.531 0 .846.739 1.532 1.65 1.532zm10.397 3.911c.91 0 1.65-.686 1.65-1.531 0-.846-.74-1.532-1.65-1.532-.911 0-1.65.686-1.65 1.532 0 .845.739 1.53 1.65 1.53zm-5.779-1.112c.912 0 1.65-.685 1.65-1.53 0-.846-.738-1.532-1.65-1.532-.91 0-1.65.686-1.65 1.531 0 .846.74 1.531 1.65 1.531zm11.501 0c.91 0 1.649-.685 1.649-1.53 0-.846-.739-1.532-1.65-1.532-.91 0-1.65.686-1.65 1.531 0 .846.74 1.531 1.65 1.531zm3.581-2.799c.911 0 1.65-.686 1.65-1.532 0-.845-.739-1.531-1.65-1.531-.91 0-1.65.686-1.65 1.531 0 .846.74 1.532 1.65 1.532z" fill="#B3B3B3"/><path fill-rule="evenodd" clip-rule="evenodd" d="M5.34 5.103c.603.055.24 1.05.222 1.261-.074 1.069-.585 2.036-1.356 2.93-.027.036-.065.073-.092.11-.409.405-.446.829-.288 1.299.464 1.381 1.272 2.579 2.46 3.573.641.534 1.338 1.004 2.015 1.51.047.038.112.065.223.13.14-.424.297-.802.39-1.188a4.98 4.98 0 0 0-.25-3.206c-.112-.267-.493-.442-.028-.884.557-.212.984 1.455 1.04 1.575.353.7.158 1.787-.028 2.432-.084.295-.167.59-.223.884-.111.617.111 1.105.79 1.335 1.002.35 2.005.691 3.026.995 1.375.405 2.768.783 4.151 1.17.102.028.223.046.38.074-.046-.415-.073-.802-.13-1.18-.138-.837-.445-1.611-1.04-2.274-.445-.488-.696-1.069-.965-1.649-.38-.829-1.708-2.395-1.244-2.671.557-.553 3.018 3.04 3.853 4.587.279.506.363 1.077.409 1.648.074.894.566 1.566 1.42 2.036a.385.385 0 0 0 .27.018c.26-.092.501-.12.696.047.214.175.26.396.149.644-.149.35-.436.636-.743.903-.343.304-.724.57-1.198.71a2.14 2.14 0 0 1-.585.082c-.362-.01-.538-.147-.538-.451 0-.46-.288-.756-.678-.995-.669-.415-1.43-.7-2.238-.903-1.606-.414-3.213-.81-4.764-1.335-.26-.092-.547-.074-.789-.166-.102-.037-.204-.092-.306-.129-.028-.01-.065-.037-.093-.028-.39.11-.743-.009-1.105-.037-1.03-.092-2.07-.165-3.064-.405-1.588-.377-2.693-1.225-3.492-2.385-.25-.36-1.226-2.34-.436-2.303.111-.138.882 1.897 1.95 2.551.631.857 3.11 1.833 3.315 1.502.167-.138-.037-.313-.13-.415-.251-.258-.548-.47-.817-.709a10.238 10.238 0 0 1-2.703-3.684C2.08 10.528.02 4.863.01 4.789-.046 3.786 1.04 1.253 1.18.94c.14-.313.975-.911.947-.893.493.166-.176 1.28-.325 1.787-.111.387-.408 2.358-.241 2.947.028.102 1.328 2.975 1.523 3.353.056.11.148.221.241.313.121.129.205.11.316-.046.455-.645 1.003-1.216 1.207-1.925.037-.221.446-1.41.492-1.372zm17.039 25.66c.923 0 1.671-.742 1.671-1.658 0-.915-.748-1.658-1.671-1.658-.924 0-1.672.743-1.672 1.658 0 .916.748 1.658 1.672 1.658zm7.892 0c.924 0 1.672-.742 1.672-1.658 0-.915-.748-1.658-1.672-1.658-.923 0-1.671.743-1.671 1.658 0 .916.748 1.658 1.671 1.658zM47.144 6.447c.204.719.752 1.28 1.207 1.925.111.157.185.175.315.046a1.57 1.57 0 0 0 .242-.313c.204-.377 1.495-3.251 1.523-3.352.176-.58-.121-2.56-.242-2.948-.148-.516-.826-1.63-.325-1.787-.028-.018.808.58.947.894.14.313 1.226 2.846 1.17 3.85 0 .074-2.07 5.738-2.767 7.322a10.347 10.347 0 0 1-2.702 3.684c-.27.24-.576.452-.817.71-.102.1-.306.285-.13.414.204.323 2.684-.645 3.315-1.501 1.068-.654 1.83-2.69 1.95-2.552.79-.036-.186 1.935-.436 2.303-.799 1.16-1.895 2.008-3.492 2.386-.993.23-2.033.313-3.064.405-.362.037-.715.157-1.105.037-.028-.01-.065.009-.093.027-.102.046-.195.093-.306.13-.251.091-.53.073-.79.165-1.541.525-3.157.93-4.763 1.336-.808.202-1.56.488-2.238.902-.39.24-.678.534-.678.995 0 .304-.186.442-.539.451-.195 0-.399-.018-.585-.083-.464-.138-.845-.405-1.197-.709-.307-.267-.585-.552-.743-.902-.112-.25-.065-.47.148-.645.195-.166.437-.138.697-.046a.386.386 0 0 0 .269-.019c.854-.47 1.356-1.133 1.42-2.035.047-.571.14-1.142.41-1.649.835-1.538 3.296-5.14 3.853-4.587.464.277-.864 1.842-1.244 2.653-.27.571-.511 1.151-.966 1.649-.604.663-.9 1.437-1.04 2.275-.065.377-.084.764-.13 1.179.158-.028.27-.037.38-.074 1.384-.387 2.777-.755 4.151-1.17a68.369 68.369 0 0 0 3.027-.995c.678-.24.901-.718.79-1.335-.056-.295-.14-.59-.223-.884-.186-.645-.372-1.732-.028-2.432.056-.129.483-1.787 1.04-1.575.464.433.084.608-.028.884a4.982 4.982 0 0 0-.25 3.206c.092.386.25.773.39 1.188.11-.065.176-.083.222-.13.678-.497 1.375-.976 2.015-1.51a7.748 7.748 0 0 0 2.461-3.573c.158-.47.12-.894-.288-1.3a.975.975 0 0 1-.093-.11c-.77-.893-1.272-1.86-1.355-2.929-.019-.202-.372-1.197.222-1.261.028.009.437 1.197.493 1.39zM16.946 43.418l-.12-.193-.743.47-.446-.7-.12.073.445.7-.743.47.121.194.743-.47.446.7.12-.074-.445-.7.742-.47zm4.458 3.04l-.121-.194-.743.47-.446-.7-.12.074.445.7-.743.47.121.193.743-.47.446.7.12-.073-.445-.7.743-.47zm5.822 1.234l-.13-.193-.743.46-.446-.7-.12.074.445.7-.743.47.121.193.752-.47.446.7.12-.073-.454-.7.752-.46zm5.506-1.234l-.12-.194-.743.47-.446-.7-.12.074.445.7-.743.47.12.193.744-.47.445.7.121-.073-.446-.7.743-.47zm3.622-3.04l-.121-.193-.743.47-.446-.7-.12.073.445.7-.743.47.121.194.743-.47.446.7.12-.074-.445-.7.743-.47zM18.84 27.042c-.027-.184 1.115-1.695 2.452-1.916 1.337-.22 2.359.94 2.396 1.124.028.184-.947-.69-2.284-.47-1.338.221-2.535 1.446-2.563 1.262zm13.855 0c.028-.184-1.114-1.695-2.451-1.916-1.338-.22-2.359.94-2.396 1.124-.028.184.947-.69 2.284-.47 1.337.221 2.526 1.446 2.563 1.262z" fill="#000"/><path fill-rule="evenodd" clip-rule="evenodd" d="M26 38a3 3 0 1 0 0-6 3 3 0 0 0 0 6z" fill="red"/><path fill-rule="evenodd" clip-rule="evenodd" d="M22.516 29.084a.53.53 0 0 0 .515-.542.53.53 0 0 0-.515-.542.53.53 0 0 0-.516.542c0 .3.23.542.516.542zm7.968 0a.53.53 0 0 0 .516-.542.53.53 0 0 0-.516-.542.53.53 0 0 0-.515.542c0 .3.23.542.515.542zm-3.637 5.896c.57 0 1.031-.269 1.031-.601 0-.332-.462-.601-1.031-.601-.57 0-1.031.269-1.031.6 0 .333.461.602 1.03.602z" fill="#fff"/></svg>