<svg width="48" height="48" fill="none" xmlns="http://www.w3.org/2000/svg"><path fill-rule="evenodd" clip-rule="evenodd" d="M46.62 29.095c.347-1.563.528-3.183.528-4.846 0-12.464-10.248-22.572-22.894-22.572-1.332 0-2.639.114-3.914.331A13.34 13.34 0 0 0 13.278 0C5.944 0 0 5.859 0 13.092c0 2.415.666 4.674 1.823 6.622a22.439 22.439 0 0 0-.463 4.535c0 12.47 10.25 22.574 22.894 22.574 1.434 0 2.833-.131 4.194-.379A13.37 13.37 0 0 0 34.724 48C42.057 48 48 42.138 48 34.91c0-2.09-.497-4.062-1.38-5.815zm-10.623 5.943c-1.058 1.48-2.622 2.648-4.654 3.477-2.006.824-4.41 1.244-7.151 1.244-3.288 0-6.045-.57-8.199-1.697-1.538-.818-2.805-1.925-3.767-3.3-.974-1.38-1.465-2.751-1.465-4.078 0-.824.322-1.542.954-2.129.627-.584 1.43-.876 2.39-.876.785 0 1.465.23 2.015.69.528.442.98 1.096 1.344 1.933.406.919.847 1.692 1.312 2.296.452.59 1.098 1.082 1.922 1.469.83.384 1.95.584 3.325.584 1.893 0 3.445-.4 4.611-1.185 1.143-.765 1.696-1.689 1.696-2.819 0-.887-.29-1.588-.883-2.139-.627-.573-1.448-1.018-2.444-1.33-1.041-.317-2.453-.665-4.2-1.027-2.379-.5-4.397-1.093-6-1.769-1.642-.687-2.966-1.641-3.934-2.835-.982-1.216-1.481-2.738-1.481-4.526 0-1.703.522-3.242 1.555-4.566 1.021-1.316 2.517-2.345 4.445-3.044 1.899-.692 4.157-1.043 6.716-1.043 2.044 0 3.841.234 5.343.696 1.51.462 2.78 1.085 3.779 1.855 1.007.78 1.758 1.606 2.227 2.468.474.87.716 1.736.716 2.574 0 .806-.316 1.54-.94 2.178-.626.646-1.419.971-2.35.971-.847 0-1.513-.206-1.97-.607-.43-.375-.875-.96-1.369-1.794-.57-1.068-1.261-1.911-2.055-2.507-.77-.578-2.054-.868-3.824-.868-1.637 0-2.974.323-3.965.966-.954.614-1.42 1.324-1.42 2.164 0 .512.15.943.46 1.31.322.396.782.735 1.364 1.024.6.298 1.222.537 1.843.704.635.175 1.701.434 3.166.768a53.21 53.21 0 0 1 5.06 1.308c1.527.478 2.842 1.068 3.92 1.76 1.095.705 1.962 1.606 2.58 2.686.618 1.087.931 2.423.931 3.978 0 1.858-.542 3.553-1.603 5.036z" fill="#000"/></svg>