<svg width="33" height="48" fill="none" xmlns="http://www.w3.org/2000/svg"><g fill-rule="evenodd" clip-rule="evenodd" fill="#000"><path d="M16.925 6.4h-1.6c-.48 0-.8-.32-.8-.8 0-.48.32-.8.8-.8h1.6c.48 0 .8.32.8.8 0 .48-.32.8-.8.8zM27.09 5.034a.8.8 0 1 1-1.13 1.132.8.8 0 0 1 1.13-1.132"/><path d="M28.925 0h-25.6a3.21 3.21 0 0 0-3.2 3.2v41.6c0 1.76 1.44 3.2 3.2 3.2h25.6c1.76 0 3.2-1.44 3.2-3.2V3.2c0-1.76-1.44-3.2-3.2-3.2zm-10.4 44.8h-4.8c-.48 0-.8-.32-.8-.8 0-.48.32-.8.8-.8h4.8c.48 0 .8.32.8.8 0 .48-.32.8-.8.8zM3.325 40h25.6V3.2h-25.6V40z"/></g></svg>