<svg width="26" height="28" fill="none" xmlns="http://www.w3.org/2000/svg"><path d="M1.786 7.532v.001C1.008 9.328.624 11.523.624 14.108c0 4.062 1.104 7.295 3.349 9.653 2.244 2.363 5.268 3.526 9.015 3.526 3.704 0 6.704-1.17 8.947-3.545 2.245-2.37 3.348-5.638 3.348-9.751 0-4.147-1.108-7.434-3.372-9.815h0C19.647 1.803 16.642.625 12.92.625c-2.048 0-3.871.339-5.462 1.02h0c-1.204.517-2.306 1.298-3.306 2.344a12.101 12.101 0 0 0-2.366 3.543zm15.851.164l.002.002c1.158 1.31 1.769 3.346 1.769 6.171 0 2.858-.627 4.93-1.816 6.29-1.205 1.365-2.73 2.048-4.615 2.048-1.877 0-3.415-.688-4.631-2.067-1.208-1.373-1.845-3.418-1.845-6.2 0-2.836.621-4.884 1.793-6.22 1.179-1.338 2.729-2.015 4.683-2.015 1.963 0 3.5.667 4.66 1.991z" fill="#AB6C02" stroke="url(#paint0_linear)" stroke-width=".75"/><defs><linearGradient id="paint0_linear" x1="99.283" y1="-251.926" x2="99.283" y2="26.912" gradientUnits="userSpaceOnUse"><stop stop-color="#fff"/><stop offset="1" stop-color="#fff" stop-opacity=".63"/></linearGradient></defs></svg>