<svg width="572" height="359" fill="none" xmlns="http://www.w3.org/2000/svg"><path opacity=".1" fill-rule="evenodd" clip-rule="evenodd" d="M378.234 258.603c12.174-.695 27.277-8.957 39.021-12.611a1844.222 1844.222 0 0 1 41.863-12.451A1819.684 1819.684 0 0 1 607 198.045c4.649-.915 9.305-1.808 13.969-2.679a98.937 98.937 0 0 0-32.642-39.227c.361-3.439.545-6.894.55-10.351 0-54.644-43.642-98.943-97.497-98.943a95.897 95.897 0 0 0-47.316 12.43C405.946 34.185 356.195 19 301.762 19c-77.347 0-145.248 30.662-183.724 76.834l180.827 30.569 110.904 18.74c-126.432 3.775-253.255 7.529-379.324-1.334-34.32 33.228-40.348 86.111-14.388 126.22 0 1.978.083 3.941.232 5.886 3.211.921 6.312 1.814 9.094 2.398a1995.483 1995.483 0 0 0 134.832 23.701c-33.331 20.564-73.921 23.474-112.37 32.183C66.465 349.575 91.748 359 119.609 359H534.45c44.92 0 81.33-31.29 81.33-69.895A99.354 99.354 0 0 0 629 252.788c-83.12 8.031-167.276 1.058-250.766 5.815z" fill="#009688"/><path opacity=".1" fill-rule="evenodd" clip-rule="evenodd" d="M629 236.365c.09-32.283-15.498-62.591-41.786-81.244.358-3.437.541-6.889.549-10.344 0-54.637-43.583-98.913-97.317-98.913a95.643 95.643 0 0 0-47.234 12.422C405.164 33.188 355.5 18 301.167 18c-88.377 0-164.45 40.203-198.186 97.855a95.763 95.763 0 0 0-5.663-.171C43.577 115.684 0 159.976 0 214.613a99.662 99.662 0 0 0 16.01 54.378C16.01 318.149 62.3 358 119.377 358h414.088c44.832 0 81.174-31.292 81.174-69.891A99.659 99.659 0 0 0 629 236.365z" fill="#009688"/><path fill-rule="evenodd" clip-rule="evenodd" d="M511.655 175.321a6.139 6.139 0 0 1 2.691 1.186c1.582 1.375 1.714 3.758 1.637 5.881-.033.859-.138 1.807-.799 2.361a3.002 3.002 0 0 1-1.941.46h-.127l-.654-.006c-1.759-.019-3.522-.037-5.18.51-.514.173-1.012.397-1.509.62-.713.319-1.424.638-2.174.805-.592 1.988-.474 4.14-.356 6.303.075 1.364.149 2.731.047 4.066a29.68 29.68 0 0 1-1.467 6.413l-.016.053c-.634 2.05-1.27 4.104-2.079 6.093-.296.739-.616 1.461-.935 2.181-.418.942-.834 1.88-1.193 2.851a51.466 51.466 0 0 0-.628 1.813c-.724 2.176-1.458 4.38-3.072 5.947-.938 4.544-2.129 9.499-5.84 12.27-3.214 2.4-7.741 2.461-11.485 1.031-3.744-1.43-6.827-4.218-9.523-7.205-.996-1.104-1.953-2.249-2.91-3.393-1.633-1.953-3.266-3.905-5.091-5.652a51.02 51.02 0 0 0-5.266-4.345 75.48 75.48 0 0 0-5.762-3.88 11.428 11.428 0 0 0-3.992-1.751 4.614 4.614 0 0 0-3.391.665 3.07 3.07 0 0 0-.612.554 7.753 7.753 0 0 0-1.103 2.278c-1.729 4.563-5.655 7.459-9.603 10.372-1.313.969-2.629 1.939-3.867 2.974l-4.533 3.785c-.618.516-1.301 1.269-.998 2.023.209.379.545.67.948.82.91.454 1.874.813 2.836 1.172 1.825.681 3.643 1.359 5.066 2.669.143.132.284.271.427.41.65.639 1.321 1.297 2.203 1.347a5.258 5.258 0 0 0 1.654-.377 5.527 5.527 0 0 1 4.858.981c.386.379.834.688 1.324.915a3.19 3.19 0 0 0 1.257.077l.254-.018c1.092-.081 2.196-.163 3.22.356.416.212.792.517 1.164.819.614.498 1.219.988 1.984 1.044.297.022.628-.016.953-.053.332-.038.659-.075.938-.047a.99.99 0 0 1 .794.443c.129.307.216.629.259.959a4.345 4.345 0 0 0 1.219 1.596h.001c.237.039.474.078.705.128.935.205 1.855.47 2.757.792h.049c1.098.399 2.272 1.031 2.62 2.14a3.527 3.527 0 0 1-.067 1.895c-.478 1.854-1.509 3.463-2.543 5.077-.764 1.193-1.531 2.39-2.077 3.691-.843 1.995-1.149 4.185-1.454 6.364-.396 2.826-.789 5.633-2.345 7.974a15.127 15.127 0 0 1-3.182 3.292 11.864 11.864 0 0 1-2.206 1.496 3.606 3.606 0 0 1-2.679.333c-1.164-.399-1.864-1.663-1.98-2.888a5.947 5.947 0 0 1 0-1.208c.116-.827.3-1.642.551-2.438.658-2.254 1.318-4.506 1.98-6.756.412-1.224.679-2.493.794-3.78a4.701 4.701 0 0 0-.066-.948 2.229 2.229 0 0 1-.552-.698 4.58 4.58 0 0 0-.551-1.225c-.437-.486-1.142-.479-1.843-.471-.721.008-1.437.016-1.851-.516-.251-.326-.277-.73-.303-1.145-.027-.426-.055-.862-.326-1.238-.424-.589-1.213-.589-1.973-.588-.197 0-.393 0-.58-.011-.692-.036-1.351-.261-2.01-.487-.345-.118-.689-.236-1.039-.327-1.124-.295-2.288-.314-3.452-.333a31.421 31.421 0 0 1-1.627-.055 30.596 30.596 0 0 1-4.179-.665l-7.014-1.447-.148-.03c-4.417-.904-8.848-1.812-13.052-3.456-1.655-.621-3.309-1.385-4.412-2.721a8.345 8.345 0 0 1-1.72-4.052c-.565-3.376.908-6.473 2.403-9.616 1.131-2.378 2.275-4.782 2.56-7.354.264-2.178 1.08-4.234 1.918-6.257 1.515-3.618 3.007-7.233 4.478-10.846a9.561 9.561 0 0 1 .965-1.913 13.953 13.953 0 0 1 2.134-2.095 14.823 14.823 0 0 0 4.317-7.132c.054-.305.181-.592.37-.837.193-.168.409-.31.639-.422a2.111 2.111 0 0 0 .833-2.471 1.439 1.439 0 0 0 1.312-1.342 2.37 2.37 0 0 1 .055-.903c.062-.17.211-.289.363-.411.106-.085.214-.171.293-.276.278-.367.225-.862.174-1.335l-.019-.189a4.982 4.982 0 0 1 .292-2.239c-.797.396-1.561.857-2.283 1.38-.437-2.661-.88-5.321-1.329-7.981v-.183a12.761 12.761 0 0 0-1.654-.338 7.055 7.055 0 0 0-3.308.554c-.429.162-.848.347-1.257.554-.46.236-.919.49-1.379.745l-.276.153c-.818.482-1.669.907-2.547 1.269-.254.1-.513.183-.772.261l-.116.033c-.215.066-.43.116-.645.166l-.176.039c-.232.05-.464.089-.695.122h-.083l-.097.013c-.227.029-.453.059-.68.059h-1.009a3.899 3.899 0 0 1-.241-.016 3.557 3.557 0 0 0-.311-.017h-.22a11.536 11.536 0 0 1-.745-.1l-.204-.039-.551-.116-.127-.028-.138-.044a7.39 7.39 0 0 1-.606-.178l-.177-.055a10.292 10.292 0 0 1-.755-.299l-.144-.061c-.215-.1-.424-.205-.634-.316l-.143-.078a8.994 8.994 0 0 1-.728-.432 4.436 4.436 0 0 1-.645-.516 2.106 2.106 0 0 1-.662-1.08 1.325 1.325 0 0 1-.033-.366c.073-.376.173-.747.298-1.109v-.027c.068-.356.033-.723-.003-1.091-.036-.379-.072-.758.003-1.126.119-.57.483-1.029.851-1.492.244-.308.489-.618.665-.963.025-.04.047-.081.067-.122.223-.497.282-1.041.341-1.586.051-.477.103-.954.265-1.402.43-1.186 1.549-1.945 2.597-2.632.221-.144.463-.283.706-.421l.827-.472c-.033-.127-.033-.26-.033-.387 0-.956.475-1.818.938-2.659l.165-.301c1.409-2.64 2.063-5.537 2.722-8.455.189-.838.378-1.678.586-2.513l.038-.157c.605-2.509 1.216-5.04 1.065-7.602-.04-.71-.142-1.428-.245-2.149-.093-.659-.187-1.321-.235-1.98-.054-.776-.045-1.556-.035-2.334.008-.722.017-1.443-.025-2.156-.055-.907-.372-1.754-.692-2.608-.202-.539-.405-1.081-.544-1.643a7.435 7.435 0 0 1-.058-.282l-.024-.128a2.284 2.284 0 0 1-.618 0 5.01 5.01 0 0 1-1.742-.826l-4.61-2.937a24.717 24.717 0 0 1-2.476-1.712 22.236 22.236 0 0 1-3.27-3.448 140.764 140.764 0 0 1-2.606-3.397c-1.719-2.29-3.437-4.578-5.427-6.634a37.096 37.096 0 0 0-1.078-1.098 31.153 31.153 0 0 1-1.36-1.407 36.506 36.506 0 0 1-2.944-3.985c-.86-1.286-1.754-2.71-1.605-4.24.039-.463.18-.906.321-1.351.123-.387.246-.774.302-1.176.122-.865-.204-1.913-1.031-2.145a1.838 1.838 0 0 0-.297-.05 2.224 2.224 0 0 1-.48-.105c-.767-.322-.651-1.502-.099-2.145.259-.303.578-.542.895-.78.355-.266.709-.531.974-.883a9.98 9.98 0 0 1 .783-1.17 1.99 1.99 0 0 1 .375-.282c.267-1.004.657-2.083.907-2.773.085-.235.153-.426.196-.553.462-1.377.987-2.726 1.512-4.073.233-.598.466-1.196.693-1.796.147-.384.32-.8.502-1.233.636-1.52 1.367-3.27 1.367-4.736.222-1.037.377-2.095.532-3.154.21-1.44.421-2.884.803-4.284a35.042 35.042 0 0 1 1.731-4.644l2.366-5.78a4.04 4.04 0 0 1 1.147-1.752 3.336 3.336 0 0 1 1.891-.51c2.376-.088 4.874.638 6.495 2.417 1.621 1.779 2.134 4.633.844 6.65-.865 1.358-2.304 2.11-3.756 2.868-1.138.595-2.285 1.194-3.17 2.093-1.284 1.302-1.907 3.12-2.288 4.916-.677 3.15-.744 6.381-.811 9.614-.032 1.557-.065 3.114-.165 4.663-.027.415-.077.853-.149 1.28.546.122 1.18.327 1.346.881.065.264.065.54 0 .804a17.985 17.985 0 0 0-.419 3.325c-.001.235.012.47.038.704.259 2.355 1.776 4.345 3.253 6.185a610.976 610.976 0 0 0 5.321 6.529 25.705 25.705 0 0 0 3.226 3.475c.359.301.754.585 1.153.872.754.542 1.523 1.094 2.089 1.794.372.009.735-.104 1.037-.322a4.989 4.989 0 0 1 1.263-.753c.525-.144 1.055-.001 1.589.142.291.078.582.157.875.19 1.2.141 2.295-.521 3.355-1.162.188-.114.375-.227.56-.334a14.357 14.357 0 0 1 6.066-1.862c1.103-.078 2.332.022 3.11.809-.309.382-.612.765-.91 1.152.293-.206.561-.446.799-.714.524-.682.48-1.63.403-2.489a38.467 38.467 0 0 1-.287-6.534c.006-.057.015-.113.024-.17.016-.098.031-.197.031-.296a11.102 11.102 0 0 1 .309-9.76l-.231-.055-.657-.15a5.392 5.392 0 0 1-.639-.205 3.625 3.625 0 0 1-1.329-.964 3.89 3.89 0 0 1-.822-1.519 2.862 2.862 0 0 1-.093-.449v-.066c-.034-.133-.034-.272-.034-.41a4.055 4.055 0 0 1 .094-.926 3.375 3.375 0 0 1 .695-1.48c.25-.3.549-.54.847-.78.37-.296.739-.592 1.011-1.004.418-.629.537-1.414.656-2.203.061-.408.123-.817.226-1.206a4.71 4.71 0 0 1 2.807-3.231 3.927 3.927 0 0 1 3.926.831c.289.26.543.56.797.86.235.277.471.555.736.803a4.538 4.538 0 0 0 1.941 1.108 5.546 5.546 0 0 1 1.367-1.53l.078-.06a4.805 4.805 0 0 1 3.429-.948 5.523 5.523 0 0 1 4.334 3.918c.084.263.151.533.218.803.145.585.289 1.167.598 1.653.435.662 1.089 1.038 1.75 1.417.397.228.795.457 1.151.75a5.86 5.86 0 0 1 1.852 4.129v.598a12.877 12.877 0 0 1-.64 3.792l-.088.276c-.049.16-.104.322-.159.482-.165.481-.3.972-.403 1.47-.058.34-.089.684-.119 1.029-.028.306-.055.613-.101.916a6.619 6.619 0 0 1-.552 1.856 6.197 6.197 0 0 1-1.048 1.591 5.609 5.609 0 0 1-.915.798 1.1 1.1 0 0 1-.684.249c-.375-.044-.628-.432-.788-.837l-.066-.171v-.034a11.042 11.042 0 0 1-5.977 4.745l-.022.179a2.75 2.75 0 0 0-.034.375 5.975 5.975 0 0 0 .116 2.272c.128-.194.268-.379.419-.554 1.009-1.192 2.851-1.818 4.152-.97.808.524 1.193 1.43 1.581 2.346.323.759.648 1.525 1.22 2.088 1.009.998 2.527 1.132 3.953 1.258l.304.028c2.697.251 5.345.88 7.869 1.867.492.156.94.427 1.306.793.429.475.529 1.13.631 1.794.062.405.125.814.263 1.188.239.647.693 1.173 1.147 1.699.436.506.873 1.012 1.119 1.626.214.582.282 1.209.199 1.823.048.17.092.344.135.517l.08.309a6.52 6.52 0 0 0 1.395 2.644 8.933 8.933 0 0 1 1.466 1.663c.297.594.344 1.253.391 1.915.03.432.061.865.161 1.283.12.499.339.971.558 1.441.284.61.567 1.218.633 1.884.003.338.035.676.093 1.009.18.686.779 1.111 1.381 1.538.579.41 1.16.822 1.376 1.471.083.269.111.551.083.831a4.35 4.35 0 0 1 .7-.249l-.011.08c-.03.213-.06.429-.06.64.231-.213.471-.41.709-.605l.305-.254a29.658 29.658 0 0 0 7.13-8.834 13.641 13.641 0 0 0 1.654-4.589c.084-.697.091-1.4.098-2.101.005-.543.01-1.085.051-1.623.09-1.092.324-2.164.558-3.236.224-1.027.448-2.055.545-3.099.05-.542.066-1.087.082-1.632.027-.94.054-1.88.26-2.802.325-1.458 1.213-2.91 2.624-3.325a3.844 3.844 0 0 1 2.945.476 11.503 11.503 0 0 1 2.349 1.957c.689.681 1.411 1.435 1.566 2.394a4.461 4.461 0 0 1-.171 1.768 59.494 59.494 0 0 1-4.29 12.137c-.244.503-.494 1.003-.745 1.502-.492.98-.984 1.959-1.422 2.966-.623 1.366-1.121 2.78-1.616 4.185l-.038.11c-1.07 3.048-2.136 6.094-3.198 9.139a11.376 11.376 0 0 1-1.103 2.483 11.746 11.746 0 0 1-1.467 1.757c-.219.213-.404.412-.574.595-.123.131-.237.254-.352.369.31.133.626.25.948.349-.198.969-.979 1.617-1.757 2.264-.282.235-.564.469-.818.718-.556.545-1 1.201-1.443 1.855-.629.928-1.253 1.849-2.185 2.435-1.759 1.114-4.036.682-6.065.21a.73.73 0 0 1-.475-.243.804.804 0 0 1-.088-.222l-.033-.133c-.459-.616-.92-1.229-1.382-1.844l-.597-.794a3.289 3.289 0 0 0-.861-.887 3.071 3.071 0 0 0-.466-.224c-.14-.059-.279-.117-.41-.192-.78-.45-1.107-1.376-1.409-2.231a21.737 21.737 0 0 0-3.901-6.852 13.653 13.653 0 0 1-1.655-2.173 1.985 1.985 0 0 1-1.532 0c-.14 1.023-.282 2.051-.425 3.082a5.279 5.279 0 0 0 0 1.973 1.76 1.76 0 0 0 1.279 1.363c.07.404.442.629.802.847l.191.117a2.814 2.814 0 0 1 .7 3.88c-.114.155-.246.3-.377.444-.27.297-.537.591-.649.964-.248.814.348 1.662 1.059 2.111.373.236.785.403 1.196.57.373.151.747.303 1.092.505 1.511.882 2.322 2.628 2.84 4.29l.139.459c.338 1.127.686 2.285 1.515 3.099.162.155.338.294.513.433.221.174.441.347.634.554.602.713.95 1.609.987 2.544a5.105 5.105 0 0 1-.717 3.325 4.908 4.908 0 0 1-1.88 1.546c.684.46 1.384.904 2.101 1.314.557.321 1.196.748 1.196 1.397a.883.883 0 0 1-.292.654 3.724 3.724 0 0 1 1.274 1.413c.204.588.455 1.159.75 1.707.299.411.724.662 1.159.918.422.25.853.504 1.19.916.381.468.55 1.056.72 1.65.135.47.271.944.515 1.365.35.617.905 1.084 1.458 1.549.658.554 1.313 1.106 1.613 1.904.098.276.146.568.194.861.032.203.065.405.115.602.297 1.102 1.042 1.996 1.769 2.868l.211.253a24.119 24.119 0 0 1 5.337 12.193c.188-2.821 2.068-5.315 4.411-6.867l.145-.102c.596-.418 1.232-.864 1.35-1.561.083-.501-.128-.971-.341-1.444-.194-.432-.389-.866-.36-1.327a2.71 2.71 0 0 1 .552-1.302 41.01 41.01 0 0 1 3.451-4.373c.679-.749 1.44-1.685 1.158-2.655-.13-.447-.457-.784-.787-1.124-.214-.22-.428-.441-.591-.694a2.327 2.327 0 0 1 .055-2.555c.137-.187.302-.355.467-.523.3-.306.598-.61.719-1.018.112-.385.034-.788-.044-1.193-.071-.37-.143-.742-.072-1.107a.737.737 0 0 0 0-.094 1.574 1.574 0 0 1-.232-.366c-.193-.61-.355-1.23-.485-1.856a6.233 6.233 0 0 0-.336-.815 4.695 4.695 0 0 1-.618-1.84 2.84 2.84 0 0 1 .629-1.774 5.269 5.269 0 0 1 3.617-1.884 15.874 15.874 0 0 1 4.157.222l13.576 1.967.502.079c.881.137 1.763.275 2.63.475zm-77.202-93.354a4.074 4.074 0 0 1-1.395.1l1.395-.1z" fill="url(#paint0_linear)"/><path fill-rule="evenodd" clip-rule="evenodd" d="M437.305 116.065a6.018 6.018 0 0 1-2.28 1.221l-3.886 1.403c-2.11.762-4.313 1.53-6.539 1.253-1.244-.154-6.577-.944-7.382-1.922-1.228-1.513 3.074-3.739 4.543-5.015.333-.242.642-.516.921-.818.548-.674.477-1.618.4-2.469a38.395 38.395 0 0 1-.285-6.502c.043-.517.116-1.032.219-1.541.549-2.54 2.894-1.613 4.747-.939 2.23.73 4.386 1.672 6.44 2.812.626.325 1.169.79 1.59 1.359.811 1.237.487 2.861.356 4.419-.115 1.209-.11 2.369.641 3.248.378.335.725.705 1.036 1.104.36.825.149 1.79-.521 2.387zm-54.873-37.387c.55-2.537.671-5.154 1.331-7.667a36.852 36.852 0 0 1 1.728-4.781l2.427-5.892a4.178 4.178 0 0 1 1.144-1.804 3.29 3.29 0 0 1 1.888-.527c2.371-.091 4.864.676 6.481 2.491 1.618 1.815 2.13 4.753.842 6.831-1.54 2.502-4.902 3.006-6.911 5.113-1.282 1.346-1.904 3.218-2.283 5.068-1.002 4.81-.666 9.797-.974 14.71-.099 1.528-.385 3.275-1.651 4.065a4.653 4.653 0 0 1-2.465.498l-3.61.063c-.605 0-2.8.395-3.202-.08-.704-.83.902-4.965 1.194-5.886.649-2.045 1.447-4.037 2.201-6.047.655-1.792 1.86-4.214 1.86-6.155z" fill="#BE6F72"/><path fill-rule="evenodd" clip-rule="evenodd" d="M456.858 250.954c-.849 3.176-3.401 5.648-4.711 8.675-1.973 4.533-1.085 10.076-3.873 14.175a15.117 15.117 0 0 1-3.244 3.268c-.69.574-1.444 1.07-2.248 1.478a3.77 3.77 0 0 1-2.732.33c-1.186-.396-1.9-1.648-2.018-2.857a5.523 5.523 0 0 1 0-1.192c.118-.818.306-1.625.562-2.412.674-2.223 1.347-4.45 2.018-6.681.42-1.209.691-2.463.809-3.735.074-1.385-.826-3.187-.444-4.478.175-.582.827-1.099 1.125-1.588a9.068 9.068 0 0 0 .967-2.247c.461-1.533.775-3.17 1.742-4.461a10.617 10.617 0 0 1 2.193-2.005 5.831 5.831 0 0 1 2.091-1.148 5.233 5.233 0 0 1 2.248.104c.954.199 1.893.46 2.811.78h.051c1.124.396 2.316 1.006 2.67 2.115a3.382 3.382 0 0 1-.017 1.879zm59.124-67.595c-.033.821-.136 1.736-.787 2.25a3.018 3.018 0 0 1-1.91.439h-.147c-1.937 0-3.907-.105-5.741.482-1.394.45-2.675 1.276-4.129 1.44-2.002.223-3.885-.847-5.66-1.779a56.831 56.831 0 0 0-5.138-2.382c-1.151-.461-3.5-.757-4.054-1.985a17.83 17.83 0 0 1-.477-1.769 5.787 5.787 0 0 0-.331-.778 4.386 4.386 0 0 1-.608-1.752c.002-.617.22-1.215.619-1.695a5.252 5.252 0 0 1 3.554-1.784 16.115 16.115 0 0 1 4.091.212l13.36 1.874c1.031.143 2.067.286 3.082.53a6.113 6.113 0 0 1 2.648 1.133c1.579 1.291 1.709 3.563 1.628 5.564z" fill="#3F3D56"/><path fill-rule="evenodd" clip-rule="evenodd" d="M504.669 185.67c-1.654 3.55-.463 7.749-.761 11.674a30.163 30.163 0 0 1-1.467 6.471c-.639 2.086-1.278 4.178-2.094 6.202-.684 1.682-1.494 3.364-2.128 5.08-1.009 2.737-1.654 5.815-3.699 7.85-.937 4.587-2.128 9.6-5.838 12.381-3.225 2.423-7.718 2.507-11.483 1.043-3.765-1.463-6.825-4.267-9.52-7.289-2.696-3.023-5.105-6.314-7.999-9.129a50.362 50.362 0 0 0-5.276-4.39 82.197 82.197 0 0 0-5.76-3.892 11.443 11.443 0 0 0-3.991-1.766 4.566 4.566 0 0 0-3.391.673 3.125 3.125 0 0 0-.612.56 7.792 7.792 0 0 0-1.102 2.299c-2.315 6.135-8.528 9.286-13.49 13.469l-4.531 3.819c-.617.521-1.301 1.284-.998 2.041.209.383.545.677.948.83 2.635 1.323 5.728 1.856 7.9 3.874.794.74 1.555 1.716 2.63 1.772a5.203 5.203 0 0 0 1.653-.376 5.492 5.492 0 0 1 4.857.987c.386.383.833.696 1.323.926.41.11.837.136 1.257.078 1.174-.084 2.42-.191 3.473.342s1.918 1.789 3.148 1.879c.6.044 1.317-.157 1.89-.101.321.01.616.177.794.448.129.308.216.633.259.965.226.79.987 1.272 1.483 1.923.761.998.871 2.355.794 3.617a15.537 15.537 0 0 1-4.829 10.328 5.945 5.945 0 0 1-2.971 1.682 2.738 2.738 0 0 1-2.944-1.329 4.663 4.663 0 0 0-.551-1.233c-.888-.993-2.878.062-3.694-.998-.507-.662-.143-1.722-.628-2.406-.485-.684-1.654-.56-2.553-.6-1.053-.056-2.028-.56-3.048-.824-1.654-.437-3.385-.275-5.077-.392a30.285 30.285 0 0 1-4.179-.673l-7.012-1.458c-4.465-.925-8.947-1.862-13.197-3.516-1.626-.628-3.264-1.402-4.41-2.748a8.47 8.47 0 0 1-1.72-4.093c-.998-5.983 4.294-11.097 4.961-17.125.237-2.198 1.103-4.272 1.919-6.313a6974.56 6974.56 0 0 0 4.476-10.951c.241-.68.555-1.331.937-1.941.634-.78 1.35-1.489 2.133-2.113a14.983 14.983 0 0 0 4.317-7.2 1.96 1.96 0 0 1 .369-.847c.195-.166.41-.308.64-.42a2.151 2.151 0 0 0 .832-2.496 1.446 1.446 0 0 0 1.312-1.357 2.395 2.395 0 0 1 .055-.908c.132-.292.463-.437.656-.695.314-.421.204-1.01.154-1.537a5.093 5.093 0 0 1 0-1.003 5.188 5.188 0 0 1 1.478-3.135c1.317-1.318 3.192-.976 5.011-1.29a28.376 28.376 0 0 0 5.292-1.721 51.264 51.264 0 0 1 14.945-3.516 32.132 32.132 0 0 1 15.093 2.445 8.551 8.551 0 0 1 1.946 1.121c.425.333.773.756 1.02 1.24.204.593.454 1.169.75 1.721.59.819 1.703 1.082 2.348 1.856.645.774.7 2.08 1.235 3.039.766 1.368 2.541 2.002 3.071 3.488.165.471.187.987.308 1.475.298 1.222 1.191 2.187 1.979 3.151a24.433 24.433 0 0 1 5.337 12.336c.176-2.843 2.056-5.361 4.41-6.931.634-.42 1.367-.886 1.494-1.648.159-.965-.761-1.823-.7-2.804.066-.479.257-.932.551-1.312a41.247 41.247 0 0 1 3.451-4.413c.678-.757 1.438-1.682 1.157-2.68-.215-.746-.964-1.183-1.378-1.834a2.367 2.367 0 0 1 .055-2.579c.386-.533.998-.92 1.186-1.553.215-.746-.265-1.553-.116-2.322a2.86 2.86 0 0 1 1.135-1.497 9.418 9.418 0 0 1 2.465-1.648c1.455-.561 3.076-.354 4.619-.135 2.58.365 5.474.925 6.929 3.123.932 1.374 1.406 3.46.712 4.929z" fill="#65617D"/><path opacity=".1" fill-rule="evenodd" clip-rule="evenodd" d="M515.981 183.084c-.034.885-.14 1.872-.813 2.425a3.032 3.032 0 0 1-1.975.474h-.152c.23-1.187 1.65-1.866 1.897-3.07a2.75 2.75 0 0 0-.618-2.071c-1.2-1.648-3.13-2.561-5.049-3.228a32.918 32.918 0 0 0-16.864-1.284c-1.533.254-3.024.72-4.432 1.386-.467.297-.916.621-1.347.97a4.887 4.887 0 0 1-.628-1.888 2.945 2.945 0 0 1 .64-1.826 5.354 5.354 0 0 1 3.674-1.922 15.999 15.999 0 0 1 4.23.228l13.813 2.019c1.066.154 2.137.308 3.186.571a6.2 6.2 0 0 1 2.738 1.221c1.65 1.392 1.784 3.839 1.7 5.995zm-59.161 69.015c-.847 3.272-3.394 5.82-4.701 8.939-1.969 4.671-1.083 10.384-3.865 14.607a15.383 15.383 0 0 1-3.238 3.369 11.984 11.984 0 0 1-2.244 1.523 3.66 3.66 0 0 1-2.726.339c-1.184-.407-1.897-1.698-2.014-2.944a5.861 5.861 0 0 1 0-1.228l.033.09c.488 1.189 1.285 2.435 2.542 2.644a3.419 3.419 0 0 0 2.592-.923c1.851-1.5 2.928-3.736 3.955-5.893a24.698 24.698 0 0 0 1.896-4.886c.225-.962.331-1.948.561-2.91 1.066-4.676 4.696-8.492 5.498-13.231.066-.326.081-.66.045-.991a5.055 5.055 0 0 0-.482-1.234 6.187 6.187 0 0 1-.427-1.37c1.122.408 2.312 1.036 2.665 2.18.145.636.114 1.3-.09 1.919zm-6.82-9.115a8.17 8.17 0 0 1-2.505 3.477 12.125 12.125 0 0 1-5.392 2.37 5.286 5.286 0 0 1-2.777-.034c-1.233-.435-2.121-1.608-3.382-1.947-.899-.248-1.866-.028-2.777-.164-1.638-.231-2.91-1.501-4.231-2.517-4.049-3.092-9.363-4.091-13.412-7.183a1.265 1.265 0 0 1-.433-.457 1.374 1.374 0 0 1-.083-.638c.015-1.876.43-3.726 1.216-5.423a18.944 18.944 0 0 1 2.288-3.313c3.626-4.514 7.269-9.063 11.612-12.872 1.822-1.597 3.81-3.087 6.109-3.809 1.277-.401 3.799-.779 5.354-.102-.23.159-.437.349-.617.565a7.83 7.83 0 0 0-1.111 2.313c-2.338 6.18-8.596 9.351-13.595 13.561l-4.564 3.843c-.622.525-1.311 1.292-1.006 2.054.21.385.549.682.956.835 2.654 1.332 5.77 1.868 7.958 3.9.799.745 1.566 1.727 2.649 1.783a5.262 5.262 0 0 0 1.666-.378 5.532 5.532 0 0 1 4.892.993c.389.386.84.7 1.333.931.413.111.843.138 1.266.079 1.183-.084 2.438-.192 3.499.345 1.061.536 1.933 1.8 3.171 1.89.616.045 1.338-.169 1.916-.102z" fill="#000"/><path fill-rule="evenodd" clip-rule="evenodd" d="M397.232 167.499c-1.075.684-2.218 1.458-2.66 2.646-.362.97-.192 2.08-.628 3.021-.436.942-1.415 1.598-1.63 2.607-.152.734.148 1.508 0 2.242a9.585 9.585 0 0 0-.311 1.166c-.056.835.668 1.514 1.375 1.979a11.587 11.587 0 0 0 10.283 1.121c1.511-.561 2.875-1.474 4.324-2.192a8.614 8.614 0 0 1 4.658-1.121c.933.101 1.828.437 2.761.561a2.917 2.917 0 0 0 2.587-.763 3.18 3.18 0 0 0 .566-1.328c.786-3.078.43-6.34-.317-9.434-.747-3.094-1.879-6.071-2.677-9.148-.566-2.282-1.002-4.619-1.947-6.777-.945-2.158-2.535-4.165-4.76-4.989a.895.895 0 0 0-.565-.073.965.965 0 0 0-.368.269 17.21 17.21 0 0 0-3.883 6.469c-.888 2.685-1.131 5.532-1.946 8.229-.351 1.121-.804 2.623-1.698 3.481-.894.857-2.151 1.39-3.164 2.034z" fill="#3F3D56"/><path opacity=".1" fill-rule="evenodd" clip-rule="evenodd" d="M418.56 177.437a3.243 3.243 0 0 1-.594 1.328 2.89 2.89 0 0 1-2.586.756c-.928-.112-1.822-.454-2.756-.56a8.6 8.6 0 0 0-4.657 1.12c-1.449.717-2.83 1.607-4.329 2.184a11.53 11.53 0 0 1-6.864.387 11.158 11.158 0 0 1-3.396-1.479c-.713-.459-1.431-1.12-1.375-1.977a9.43 9.43 0 0 1 .311-1.159c.148-.734-.147-1.507 0-2.241.215-1.008 1.2-1.68 1.63-2.61.43-.93.266-2.044.623-3.013.441-1.193 1.59-1.961 2.665-2.65 1.075-.689 2.354-1.215 3.214-2.05.111-.13.212-.268.3-.414a10.03 10.03 0 0 0 1.347-3.086c.832-2.7 1.058-5.54 1.941-8.228a17.226 17.226 0 0 1 3.888-6.458.856.856 0 0 1 .362-.269.919.919 0 0 1 .566.067c2.218.829 3.808 2.834 4.759 4.991.951 2.156 1.352 4.481 1.947 6.766.792 3.075 1.929 6.06 2.676 9.146.747 3.086 1.115 6.369.328 9.449zm16.271-67.968c-5.129 1.742-10.662-.928-12.831-6.192a14.06 14.06 0 0 1 .211-1.57c.526-2.59 2.781-1.644 4.561-.957a34.48 34.48 0 0 1 6.189 2.865 4.525 4.525 0 0 1 1.528 1.385c.78 1.244.469 2.899.342 4.469z" fill="#000"/><path fill-rule="evenodd" clip-rule="evenodd" d="M433 110c6.075 0 11-4.925 11-11s-4.925-11-11-11-11 4.925-11 11 4.925 11 11 11z" fill="#BE6F72"/><path opacity=".1" fill-rule="evenodd" clip-rule="evenodd" d="M462.999 181.052c0 .953-1.246 1.257-2.171 1.205-3.323-.201-6.573-1.148-9.863-.861-4.159.391-7.98 2.773-12.15 2.992-1.606.086-3.24-.161-4.824.143-2.049.396-3.876 1.688-5.964 1.872-1.811.161-3.6-.546-5.411-.471A8.463 8.463 0 0 0 419 187a5.36 5.36 0 0 1 1.484-3.21c1.324-1.349 3.207-.999 5.034-1.32a28.147 28.147 0 0 0 5.317-1.763 50.683 50.683 0 0 1 15.013-3.6 31.743 31.743 0 0 1 15.157 2.486 8.513 8.513 0 0 1 1.955 1.149c.031.1.044.205.039.31z" fill="#000"/><path fill-rule="evenodd" clip-rule="evenodd" d="M427.285 119.324l-4.554-1.668-1.923-.7a9.371 9.371 0 0 0-2.452-.645c-2.204-.167-4.279 1.284-5.454 3.135-1.175 1.852-1.619 4.059-1.996 6.21a168.805 168.805 0 0 0-1.316 8.862 57.408 57.408 0 0 0-.59 8.084c.129 6.882 1.602 13.67 3.222 20.369a70.924 70.924 0 0 1 1.793 9.034c.135 1.257.197 2.519.332 3.781.146 1.418.382 2.819.619 4.225l1.355 7.989c1.686-1.184 3.604-2.224 5.679-2.285 1.838-.067 3.66.612 5.493.456 2.108-.172 3.975-1.423 6.056-1.807 1.608-.295 3.266-.061 4.902-.139 4.229-.211 8.114-2.524 12.331-2.896 3.345-.301 6.668.633 10.02.828.933.056 2.198-.239 2.198-1.167 0-.645-.652-1.073-1.22-1.396a60.215 60.215 0 0 1-7.619-5.376c-2.215-1.734-4.464-3.513-5.988-5.86-3.672-5.642-2.412-13.275-5.544-19.23-2.547-4.836 0-11.174 0-16.628 0-2.719 0-5.47-.646-8.111a34.33 34.33 0 0 0-1.507-4.337l-2.188-5.476a.897.897 0 0 0-.258-.417.873.873 0 0 0-.501-.15 5.315 5.315 0 0 0-3.632 1.151c-1.029.829-1.687 2.018-2.699 2.88-1.107.951-2.536 1.785-3.913 1.284z" fill="#E3E8F4"/><path fill-rule="evenodd" clip-rule="evenodd" d="M433.571 116.621c.356-1.513.741-3.088 1.76-4.27 1.02-1.182 2.88-1.806 4.195-.961 1.493.961 1.554 3.182 2.83 4.419 1.114 1.061 2.785 1.144 4.301 1.282 2.724.246 5.4.871 7.949 1.856.497.153.95.422 1.32.784.697.785.558 1.989.903 2.967.473 1.259 1.783 2.06 2.29 3.314.557 1.393 0 2.95-.468 4.381-.842 2.569-1.371 5.237-2.19 7.817s-1.983 5.121-3.899 7.065c-.847.862-2.106 1.658-3.22 1.144l-.429 3.066a5.174 5.174 0 0 0 0 1.961c.132.661.634 1.19 1.292 1.359.084.475.591.702 1.003.961a2.76 2.76 0 0 1 1.168 1.787 2.742 2.742 0 0 1-.461 2.08c-.35.47-.869.84-1.036 1.398-.25.806.346 1.657 1.07 2.099.724.442 1.576.646 2.312 1.072 1.526.873 2.345 2.591 2.869 4.259.39 1.259.713 2.624 1.671 3.541.368.348.808.613 1.159.978.607.711.958 1.604.997 2.535a4.997 4.997 0 0 1-.724 3.315c-1.114 1.58-3.192 2.049-5.014 2.762-2.958 1.204-5.393 3.359-8 5.193a8.567 8.567 0 0 1-3.649 1.701c-1.805.238-3.582-.552-5.398-.624-1.086.01-2.168.151-3.22.42l-3.342.718c.178-2.569-1.248-5.143-2.045-7.59-1.504-4.608-1.782-9.535-1.426-14.363.357-4.828 1.348-9.59 2.329-14.33.685-3.315.618-6.778 1.671-9.999.986-3.099 2.395-6.077 2.914-9.303.846-5.22-2.674-9.645-1.482-14.794z" fill="#3F3D56"/><path fill-rule="evenodd" clip-rule="evenodd" d="M458.605 125.791c.312.566.532 1.177.651 1.811a6.5 6.5 0 0 0 1.431 2.651 9.19 9.19 0 0 1 1.505 1.672c.521.969.323 2.15.566 3.209.283 1.153 1.103 2.156 1.222 3.342.003.34.036.679.096 1.014.368 1.348 2.382 1.672 2.829 3.02.3.874-.215 1.827-.119 2.746.07.285.088.579.051.869a1.766 1.766 0 0 1-.645.814 12.768 12.768 0 0 0-3.723 6.523 36.632 36.632 0 0 0-.854 7.538l-2.212-2.88a3.33 3.33 0 0 0-.883-.892c-.283-.167-.611-.25-.899-.417-.838-.468-1.166-1.46-1.488-2.351a21.659 21.659 0 0 0-3.961-6.753c-.899-1.041-1.946-2.089-2.144-3.442a6.251 6.251 0 0 1 .102-1.861c.566-3.649 1.171-7.387 2.976-10.624.843-1.515 1.935-2.886 2.744-4.424.543-1.019 1.307-3.671 2.755-1.565zm-53.757 3.314c.01.457-.108.907-.341 1.301-.429.49-1.101.7-1.737.543a5.058 5.058 0 0 1-1.738-.803c-1.533-.954-3.065-1.91-4.597-2.868a25.459 25.459 0 0 1-2.47-1.67 21.906 21.906 0 0 1-3.261-3.367c-2.672-3.253-5.037-6.783-8.012-9.759-.808-.814-1.65-1.594-2.43-2.446a35.643 35.643 0 0 1-2.937-3.892c-.858-1.253-1.749-2.641-1.6-4.137.088-.846.5-1.627.621-2.467.121-.84-.203-1.865-1.028-2.093a1.9 1.9 0 0 0-.297-.049 2.286 2.286 0 0 1-.479-.103c-.764-.314-.649-1.48-.099-2.093.55-.612 1.364-.954 1.865-1.626.232-.4.493-.781.78-1.144a3 3 0 0 1 1.282-.635 20.103 20.103 0 0 1 9.761-.363c.55.12 1.177.336 1.342.862.066.256.066.525 0 .78a17.149 17.149 0 0 0-.418 3.254 5.78 5.78 0 0 0 .038.683c.259 2.3 1.771 4.246 3.245 6.04a590.636 590.636 0 0 0 5.306 6.371 25.197 25.197 0 0 0 3.217 3.388c1.1.9 2.525 1.627 3.382 2.782.699.932.473 2.207.55 3.329.256 3.389.274 6.791.055 10.182z" fill="#3F3D56"/><path fill-rule="evenodd" clip-rule="evenodd" d="M475.083 152.967a11.733 11.733 0 0 0 1.451-1.752c.458-.782.824-1.617 1.091-2.487l3.164-9.152c.501-1.447 1.003-2.899 1.636-4.306.655-1.519 1.429-2.982 2.144-4.451a60.114 60.114 0 0 0 4.238-12.101c.173-.574.23-1.177.17-1.774-.153-.963-.868-1.714-1.55-2.398a11.365 11.365 0 0 0-2.324-1.959 3.755 3.755 0 0 0-2.913-.478c-1.396.417-2.274 1.875-2.596 3.338-.322 1.463-.202 2.96-.338 4.451-.197 2.136-.917 4.2-1.091 6.342-.093 1.241 0 2.493-.148 3.728a13.786 13.786 0 0 1-1.636 4.601 29.784 29.784 0 0 1-7.053 8.846 11.426 11.426 0 0 0-2.117 2.075 6.831 6.831 0 0 0-1.02 2.593 6.073 6.073 0 0 0 .442 4.211c.889 1.547 2.596 2.226 4.227 2.57 2.204.468 2.712-.3 4.223-1.897z" fill="#BE6F72"/><path fill-rule="evenodd" clip-rule="evenodd" d="M432.847 82.995a5.237 5.237 0 0 1 5.078-2.732 5.59 5.59 0 0 1 4.406 3.928c.264.829.37 1.747.83 2.459.695 1.074 1.984 1.385 2.948 2.164a5.838 5.838 0 0 1 1.884 4.14 12.415 12.415 0 0 1-.746 4.678c-.231.64-.419 1.294-.56 1.959-.112.645-.123 1.302-.224 1.947a6.337 6.337 0 0 1-2.573 4.212 1.128 1.128 0 0 1-.695.25c-.438-.05-.707-.556-.869-1.013-.892-2.553-.679-5.674-2.321-7.71a8.484 8.484 0 0 0-2.657-1.965 3.441 3.441 0 0 0-1.357-.506 3.587 3.587 0 0 0-1.962.712 12.262 12.262 0 0 1-3.879 1.703 4.793 4.793 0 0 1-4.008-.857c-.773-.634-1.339-1.586-2.197-2.08-.858-.496-1.755-.468-2.601-.808a3.83 3.83 0 0 1-2.215-2.537 3.8 3.8 0 0 1 .656-3.293c.561-.668 1.391-1.046 1.89-1.786.644-.957.588-2.27.896-3.416a4.715 4.715 0 0 1 2.854-3.233 4.03 4.03 0 0 1 3.991.83c.561.5 1.009 1.145 1.558 1.668a4.508 4.508 0 0 0 4.148 1.113" fill="#3F3D56"/><path opacity=".1" fill-rule="evenodd" clip-rule="evenodd" d="M439.774 163.818c-.709.537-.96 1.388-.631 2.146.131.238 6.276-.769 6.925-.845 1.619-.198 4.459-.101 5.549-1.361 1.941-2.232-4.073-1.736-5.174-1.655-2.096.152-5.073.395-6.669 1.715z" fill="#000"/><path fill-rule="evenodd" clip-rule="evenodd" d="M389.917 92.296a19.982 19.982 0 0 0-.431 3.56c-1.703.361-3.473-.232-5.108-.825l-4.693-1.673a1.298 1.298 0 0 0-1.794.35c-.755.818-1.793 2.373-2.837 3.292a2.215 2.215 0 0 1-.494-.113c-.789-.344-.67-1.62-.102-2.29.567-.67 1.407-1.043 1.924-1.779.24-.436.509-.855.805-1.252.381-.34.835-.578 1.323-.694a19.613 19.613 0 0 1 10.074-.397c.567.13 1.214.368 1.384.943.056.292.038.595-.051.878z" fill="#3F3D56"/><path opacity=".1" fill-rule="evenodd" clip-rule="evenodd" d="M389.917 92.296a19.982 19.982 0 0 0-.431 3.56c-1.703.361-3.473-.232-5.108-.825l-4.693-1.673a1.298 1.298 0 0 0-1.794.35c-.755.818-1.793 2.373-2.837 3.292a2.215 2.215 0 0 1-.494-.113c-.789-.344-.67-1.62-.102-2.29.567-.67 1.407-1.043 1.924-1.779.24-.436.509-.855.805-1.252.381-.34.835-.578 1.323-.694a19.613 19.613 0 0 1 10.074-.397c.567.13 1.214.368 1.384.943.056.292.038.595-.051.878zm41.137 106.501c.803.221 1.673.542 1.946 1.203l-6.456-1.35-3.346-.702c-.591-.124-2.709-.266-3.1-.647-.557-.56 1.422-.175 1.779-.133 1.082.133 2.163.271 3.239.431 2.03.299 3.981.79 5.938 1.198zM434 204c-.538-.332-2.081-.293-2.743-.436-.968-.214-1.919-.496-2.871-.769-1.931-.58-3.845-1.24-5.83-1.667-.365-.074-1.613-.094-1.554-.52.059-.427 1.248-.576 1.543-.596 1.759-.119 3.953.64 5.588 1.181A25.413 25.413 0 0 1 434 204zm-5-11c-1.782-.486-3.398-1.595-5.233-1.809a2.117 2.117 0 0 1-1.335-.408 1.568 1.568 0 0 1-.432-.778c1.228-.063 2.655.457 3.772.948.614.264 1.205.58 1.767.943.408.248 1.019.963 1.461 1.104z" fill="#000"/><path fill-rule="evenodd" clip-rule="evenodd" d="M467.536 143c-.677 4.848 2.077 9.493 6.464 10.905-.258 1.337-1.55 2.076-2.462 3.029-1.287 1.337-1.951 3.34-3.47 4.355-1.692 1.128-3.87.688-5.8.214a.693.693 0 0 1-.453-.253.718.718 0 0 1-.085-.22c-.638-2.499-1.054-5.168-.4-7.673.527-2.132 1.792-3.948 2.805-5.833 1.012-1.884 1.107-3.903 3.401-4.524zm-48.631-30.982c-2.151.156-4.24.789-6.113 1.854-1.245.708-2.523 1.66-3.946 1.488-.839-.094-1.667-.553-2.484-.332-.46.185-.889.439-1.272.753a1.447 1.447 0 0 1-1.401.221l-.555 7.658c-.212 2.911-.417 5.882.283 8.721.361 1.45 1.156 2.767 1.245 4.238.089 1.472-.045 2.983.061 4.471.1 1.378.406 2.734.483 4.112.156 2.6-.489 5.179-1.111 7.708-.939 3.729-1.506 7.542-3.334 10.917-.511.935-1.112 1.887-1.112 2.949 0 .133 0 .26.034.388-.556.304-1.073.592-1.545.89-1.056.681-2.184 1.439-2.618 2.618-.35.957-.188 2.053-.611 2.977-.422.924-1.389 1.582-1.6 2.578-.15.725.139 1.489 0 2.214a9.425 9.425 0 0 0-.306 1.145c-.055.83.65 1.499 1.35 1.953a10.91 10.91 0 0 0 3.335 1.461l3.317-13.114a105.523 105.523 0 0 0 7.519-17.414 37.405 37.405 0 0 1 2.173-5.732 26.887 26.887 0 0 0 1.667-3.254c.506-1.394.556-2.905.8-4.377.29-1.717.727-3.408 1.306-5.051.6-1.777 1.295-3.547 1.417-5.412.184-2.667-.789-5.484.245-7.952a10.524 10.524 0 0 1 1.695-2.539c1.433-1.749 2.739-3.58 4.173-5.329-.745-.791-1.984-.874-3.095-.808z" fill="#3F3D56"/><path d="M435.081 81.582l-.684.048-.076.055a4.06 4.06 0 0 0 .76-.103zm12.52 11.282a14.624 14.624 0 0 1-.701 3.174 14.45 14.45 0 0 0-.547 1.913c-.109.63-.12 1.272-.219 1.902a6.186 6.186 0 0 1-2.511 4.114 1.097 1.097 0 0 1-.679.245c-.427-.049-.689-.544-.848-.989-.87-2.495-.662-5.544-2.265-7.533a8.293 8.293 0 0 0-2.594-1.918 3.356 3.356 0 0 0-1.324-.495 3.499 3.499 0 0 0-1.915.696 11.963 11.963 0 0 1-3.786 1.663 4.677 4.677 0 0 1-3.913-.837c-.755-.62-1.307-1.549-2.145-2.033-.837-.483-1.712-.456-2.539-.788a3.72 3.72 0 0 1-2.133-2.424 1.46 1.46 0 0 1-.044-.206 3.72 3.72 0 0 0 2.177 4.26c.827.332 1.757.338 2.539.789.783.45 1.39 1.413 2.145 2.032a4.677 4.677 0 0 0 3.913.837c1.35-.33 2.631-.893 3.786-1.663a3.5 3.5 0 0 1 1.915-.695 3.35 3.35 0 0 1 1.324.494 8.271 8.271 0 0 1 2.555 1.935c1.604 1.99 1.396 5.038 2.266 7.533.158.451.421.94.848.989.263.001.517-.092.717-.261a6.194 6.194 0 0 0 2.517-4.131c.098-.63.109-1.271.218-1.902.139-.65.322-1.288.548-1.913.533-1.463.78-3.015.727-4.57-.011-.066-.021-.142-.032-.218z" opacity=".1" fill-rule="evenodd" clip-rule="evenodd" fill="#000"/><path fill-rule="evenodd" clip-rule="evenodd" d="M413 136l-.378 5.026c-.056.683-1.374 16.933-11.093 35.925-8.341 16.289-24.571 37.505-55.215 49.429-2.39.935-4.872 1.809-7.445 2.62L336 220.082a105.877 105.877 0 0 0 20.696-8.962c15.619-8.929 27.763-21.673 36.231-38.072a101.56 101.56 0 0 0 9.508-27.69h-34.863V136H413z" fill="#4D6DDD"/><path opacity=".1" fill-rule="evenodd" clip-rule="evenodd" d="M342.91 226.374c30.428-11.923 46.554-33.134 54.832-49.423 9.653-18.992 10.967-35.231 11.017-35.925l.375-5.026H413l-.376 5.026c-.049.683-1.364 16.933-11.017 35.925-8.283 16.289-24.403 37.5-54.831 49.423a117.297 117.297 0 0 1-7.4 2.626l-.376-1.173c1.333-.473 2.636-.957 3.91-1.453z" fill="#fff"/><path fill-rule="evenodd" clip-rule="evenodd" d="M282 220.082L279.131 229c-2.576-.815-5.06-1.69-7.451-2.626-30.638-11.923-46.874-33.134-55.209-49.423-9.719-18.992-11.043-35.231-11.093-35.925L205 136h45.406v9.358h-34.869a101.634 101.634 0 0 0 9.536 27.69c8.468 16.399 20.607 29.143 36.226 38.067A105.646 105.646 0 0 0 282 220.082z" fill="#4D6DDD"/><path opacity=".1" fill-rule="evenodd" clip-rule="evenodd" d="M276.09 226.374c-30.428-11.923-46.554-33.134-54.832-49.423-9.653-18.992-10.967-35.231-11.017-35.925l-.375-5.026H206l.376 5.026c.049.683 1.364 16.933 11.017 35.925 8.283 16.289 24.403 37.5 54.831 49.423 2.375.936 4.842 1.811 7.4 2.626l.376-1.173a147.484 147.484 0 0 1-3.91-1.453z" fill="#fff"/><path fill-rule="evenodd" clip-rule="evenodd" d="M361 307.284V358H257v-50.716l3.307-4.426c33.702-12.006 40.532-43.314 41.894-55.702.202-1.711.318-3.432.347-5.156h12.86c.029 1.724.145 3.445.347 5.156 1.384 12.388 8.214 43.707 41.894 55.702l3.351 4.426z" fill="#4D6DDD"/><path opacity=".1" fill="#000" d="M257 307h104v7H257z"/><path opacity=".1" fill-rule="evenodd" clip-rule="evenodd" d="M265.809 302.858c33.663-12.006 40.484-43.314 41.844-55.702A51.05 51.05 0 0 0 308 242h-5.506a50.76 50.76 0 0 1-.347 5.156c-1.382 12.388-8.203 43.707-41.844 55.702L257 307.284V358h5.506v-50.716l3.303-4.426z" fill="#fff"/><path opacity=".1" fill-rule="evenodd" clip-rule="evenodd" d="M241 136h10v10h-9.113a251.703 251.703 0 0 1-.887-10zm40 84.526L278.228 230a107.413 107.413 0 0 1-7.198-2.789A105.827 105.827 0 0 1 261 211a97.436 97.436 0 0 0 20 9.526zm56-.006a97.722 97.722 0 0 0 20-9.52 106.17 106.17 0 0 1-10.032 16.216 106.008 106.008 0 0 1-7.195 2.784L337 220.52zM377 136a253.595 253.595 0 0 1-.887 10H367v-10h10zm-62 112.326a31.668 31.668 0 0 1-13 0c.194-1.768.306-3.546.333-5.326h12.334c.027 1.78.139 3.558.333 5.326z" fill="#000"/><path fill-rule="evenodd" clip-rule="evenodd" d="M242 121c.236 69.112 29.914 125 66.5 125s66.258-55.888 66.5-125H242z" fill="#4D6DDD"/><path opacity=".1" fill-rule="evenodd" clip-rule="evenodd" d="M253.913 121H242c.238 69.112 30.159 125 67.044 125a36.565 36.565 0 0 0 5.956-.499c-34.098-5.636-60.86-59.15-61.087-124.501z" fill="#fff"/><path fill="#3F3D56" d="M273 326h71v19h-71z"/><path opacity=".1" fill-rule="evenodd" clip-rule="evenodd" d="M276.32 328.591H344V326h-71v19h3.32v-16.409z" fill="#fff"/><path fill-rule="evenodd" clip-rule="evenodd" d="M204.436 188.949c-1.267-.424-8.732-6.359-9.298-9.046-.565-2.686 3.947-27.711 3.947-27.711s-.417 0-1.098-.083v-.402l.928-32.875s3.803-22.063-3.382-20.778c-7.185 1.285-2.678 20.778-2.678 20.778s-.818 9.896-1.394 12.863c-.043.224-.099.503-.163.827-.754 3.814-2.766 13.98-1.188 17.32.063.129.133.254.209.375 0 0 .285 12.438-2.816 14.137-2.959 1.616-4.188 9.752-4.292 10.48l-.16-.066a8.61 8.61 0 0 1-2.288-2.101 1.823 1.823 0 0 1-.115-.166l-.061-.094c4.188-4.734 4.047-11.91-.324-16.475a12.163 12.163 0 0 0-3.398-2.493 7.846 7.846 0 0 0-.73-3.045c-1.427-3.067-9.331-7.077-14.946-7.171-2.591-.077-4.715.662-5.489 2.697-.254.663-.295 1.386-.335 2.101-.023.398-.045.793-.104 1.176-.33 2.206-1.74 3.933-3.552 5.306a22.325 22.325 0 0 0-2.365-2.289c-1.834-1.412-5.489-6.067-5.489-6.067s-11.412-11.876-12.257-15.13c-.845-3.255-12.246-22.797-14.782-19.394-2.536 3.403 8.733 18.235 8.733 18.235s2.141 5.389 3.787 7.21c1.647 1.82 14.272 20.243 14.272 20.243l.604 1.257c-2.668 1.412-5.105 3.21-5.967 6.012-1.075 3.513.766 7.041 2.516 10.394.306.586.609 1.167.893 1.741 3.721 7.535 4.254 17.144-.549 24.027-4.304 6.079-11.769 8.969-18.756 11.495a18.398 18.398 0 0 0 11.856 3.955c-1.614 4.7-7.333 6.255-12.207 7.127 2.558 2.471 6.219 3.37 9.732 3.916 1.72.294 3.463.433 5.209.413h.428l.428-.033a14.69 14.69 0 0 0 1.773-.226c2.536-.518 5-1.908 6.296-4.159.334-.585.602-1.236.869-1.884.611-1.484 1.219-2.96 2.605-3.632a4.426 4.426 0 0 1 1.647-.391h1.07l8.305.083h1.059c2.344-.056 4.847-.464 6.038-2.411.49-.945.748-1.995.752-3.061.103-1.551.085-3.129.067-4.707-.012-1.11-.025-2.219.005-3.319.708 4.849 1.449 12.405-.313 15.196a25.886 25.886 0 0 1-5.149 5.61 9.96 9.96 0 0 0-1.361 1.401c-.269.193-.428.298-.428.298l-.17.513a9.739 9.739 0 0 0-1.34 3.122 2.174 2.174 0 0 0-.104.888c.079.162-.141.532-.395.959-.36.607-.789 1.329-.522 1.727-3.908 4.606-4.649 11.583-4.649 11.583l-7.135 10.889c-3.667 9.68-9.156 10.673-9.156 10.673s-12.894-8.693-13.245-9.118c-.351-.425-5.28-2.548-5.28-2.548a5.606 5.606 0 0 0-2.536-2.328c-1.691-.706-1.834-3.309-1.834-3.309-.208-6.151-3.803-6.619-3.803-6.619-2.899-.249-5.111.27-6.812 1.219l-.516.038c-2.492.204-5.49.43-8.782.651-9.162.607-11.34 6.569-11.34 6.569s-1.126 1.275.35 2.654c1.334 1.244 9.166.242 10.972.011l.313-.04a6.105 6.105 0 0 1-2.107-.153c1.488-.056 3.535-.111 5.28-.111h.423a23.06 23.06 0 0 0-.159 2.802c0 1.765 4.858 2.896 4.858 2.896l14.792 13.238s9.299 4.176 15.216 10.182c5.917 6.007 11.148.822 11.148.822 6.263-1.555 24.283-23.448 24.3-23.47 0 .64.378 21.931 1.097 26.206.029.217.082.43.16.634.845 1.837-.286 6.857-.774 8.975a24.983 24.983 0 0 0-.357 5.372s-6.757 25.924-6.197 28.202c.56 2.278-3.661 12.863-3.661 12.863v8.826l.735-.039c-.095.142-.183.29-.263.441l-.05.094s4.507.987 7.537.706c3.03-.281 8.233 2.344 8.233 2.344s1.762.839 7.185 1.192 5.423-2.405 5.423-2.405c-.62-3.756-9.188-5.014-9.452-5.053a25.08 25.08 0 0 1-1.871-1.318l-.11-.088c.036-.083.067-.168.093-.254.917-3.751-4.155-5.378-4.155-5.378v-.915c3.293-1.699 3.946-13.36 3.946-13.36s4.941-14.418 5.632-16.823c.692-2.405 0-6.007 0-6.007l.494-3.111s1.06-2.118 1.06-2.543a6.3 6.3 0 0 1 1.196-2.967c.774-.921-.845-3.111-.845-3.111l1.411-3.674v-4.032l3.293-14.628s3.452-17.038 2.256-22.614c-1.197-5.577 1.411-8.412 1.411-8.412a6.864 6.864 0 0 1-.725.331c.33-.766.614-1.55.851-2.35l7.41.921v.111h2.673s-.845-10.481-.845-14.706 2.848-19.388 2.848-19.388 1.268-14.821 0-15.246zm-32.895-12.234c0 .315-.022.639-.045.971l-.021.314-.148.227-.274-.232-.335.524-.099.05c-.335-.174-.595-.726-.83-1.224-.272-.578-.509-1.083-.789-.834l-.072.061c-.115-.132-.23-.171-.351-.061l-.11.094v-.491a12.31 12.31 0 0 0 3.074.392c.004.048.003.096.001.143l-.001.066zm24.805 48.804h-.159c-.039.238-.072.464-.105.695l.264-.695zm-27.215 125.083l-1.01-.254.549-.094.511.337.06.044-.11-.033zm9.315-2.074c.33.21.67.414 1.005.59-.4-.263-.778-.467-.944-.557l-.061-.033z" fill="url(#paint1_linear)"/><path fill-rule="evenodd" clip-rule="evenodd" d="M200 215l-7.068 17.533h1.716L188 237.578 200 239v-24z" fill="#F86D70"/><path opacity=".1" fill-rule="evenodd" clip-rule="evenodd" d="M200 215l-7.068 17.533-1.78-.455-3.152 5.5L200 239v-24z" fill="#000"/><path fill-rule="evenodd" clip-rule="evenodd" d="M190 226h10.241L204 194h-14v32z" fill="#F86D70"/><path opacity=".1" fill-rule="evenodd" clip-rule="evenodd" d="M190 226h10.241L204 194h-14v32z" fill="#000"/><path fill-rule="evenodd" clip-rule="evenodd" d="M168.086 203l2.302-.385 5.29-.893s15.888-3.561 19.167-3.851a20.583 20.583 0 0 0 5.751-1.63c.859-.369 1.404-.648 1.404-.648l-5.723-10.387-8.878-6.541s-5.616-1.189-7.992-4.438a5.203 5.203 0 0 1-.735-4.956c1.449-4.465-8.654 4.27-8.654 4.27s.095 2.093 0 4.761c0 .524-.051 1.071-.09 1.63 0 .368-.051.736-.09 1.116-.247 2.651-.753 5.38-1.752 7.01-2.443 3.985 0 14.942 0 14.942z" fill="#FBBEBE"/><path opacity=".1" fill-rule="evenodd" clip-rule="evenodd" d="M171 178h.215c.387 0 .699-.829 1.075-.867 3.027-.292 5.791-.932 7.71-3.093a5.114 5.114 0 0 1-.704-4.806c1.387-4.334-8.285 4.139-8.285 4.139s.102 2.037-.011 4.627z" fill="#000"/><path fill-rule="evenodd" clip-rule="evenodd" d="M158 164.999A11.998 11.998 0 0 0 170 177c.394 0 .783 0 1.171-.055 6.444-.632 11.224-6.263 10.803-12.725-.421-6.461-5.892-11.424-12.364-11.214-6.471.211-11.609 5.517-11.61 11.993z" fill="#FBBEBE"/><path fill-rule="evenodd" clip-rule="evenodd" d="M154.828 146.722c-.399 1.038-.277 2.199-.438 3.298-.594 3.968-4.605 6.346-8.233 8.009-3.628 1.663-7.722 3.633-8.875 7.467-1.265 4.147 1.497 8.305 3.417 12.194 3.739 7.579 4.271 17.245-.555 24.177-4.288 6.139-11.76 9.052-18.795 11.608a18.452 18.452 0 0 0 11.9 3.985c-1.615 4.727-7.356 6.295-12.249 7.166 2.568 2.489 6.246 3.393 9.769 3.94 2.568.402 5.203.664 7.766.145 2.563-.519 4.993-1.92 6.313-4.186 1.11-1.936 1.487-4.576 3.49-5.553a6.269 6.269 0 0 1 2.845-.418l8.321.089c2.591 0 5.659-.201 6.996-2.428a6.72 6.72 0 0 0 .754-3.08c.361-5.492-.688-11.296 1.559-16.308.677-1.512-3.667-3.906-3.212-5.508 1.564-5.508 1.958-9.845 1.942-15.576 0-4.437 2.868-8.26 5.236-12.005 2.369-3.745 4.35-8.472 2.48-12.49-2.108-4.481-17.94-10.994-20.431-4.526z" fill="#3F3D56"/><path fill-rule="evenodd" clip-rule="evenodd" d="M167 348.767l2.053 1.379.317.212.059.038 2.435 1.634 5.686.97 4.998-.349s1.441-3.05-.822-2.979a4.668 4.668 0 0 1-2.064-.605l-.312-.158c-.327-.174-.655-.37-.978-.577a24.615 24.615 0 0 1-1.816-1.297c-.753-.588-1.253-1.035-1.253-1.035L167 348.767z" fill="#FBBEBE"/><path opacity=".1" fill-rule="evenodd" clip-rule="evenodd" d="M167 350.097l.318.216.06.039 2.444 1.662 5.707.986 5.017-.355s1.446-3.102-.825-3.03a4.64 4.64 0 0 1-2.072-.615c.4.321.734.67.766.964.092.792-3.711 2.216-3.711 2.216l-5.363-1.457s-.911-.266-2.158-.598l-.118-.034-.065.006z" fill="#000"/><path fill-rule="evenodd" clip-rule="evenodd" d="M158 352.018s4.602.924 7.696.659c3.094-.264 8.425 2.184 8.425 2.184s1.801.778 7.34 1.11c5.539.331 5.539-2.251 5.539-2.251-.632-3.512-9.384-4.668-9.655-4.72.107.052.564.265 1.027.55.621.373 1.293.861 1.344 1.255.096.736-3.885 2.074-3.885 2.074l-5.612-1.358s-.954-.255-2.259-.566h-.124a51.894 51.894 0 0 0-5.884-1.115c-2.416-.238-3.653 1.649-3.907 2.075a.67.67 0 0 0-.045.103z" fill="#3F3D56"/><path fill-rule="evenodd" clip-rule="evenodd" d="M88 251.405l2.332 1.571s.678-.029 1.69-.057h.324a167.62 167.62 0 0 1 5.143-.095 18.626 18.626 0 0 1 3.28.161c1.163.359 3.231-5.845 3.231-5.845l-2.337-.473-.776-.161-.538-.113-1.901-.393-5.763.577-4.05 2.289-.635 2.539z" fill="#FBBEBE"/><path opacity=".1" fill-rule="evenodd" clip-rule="evenodd" d="M88 251.424L90.226 253s.648-.028 1.614-.057a1.906 1.906 0 0 1-1.028-.849c-1.44-3.688 5.7-5.263 5.7-5.263l3.326-.133.648-.029H101l-.74-.161-.514-.114L97.93 246l-5.5.579-3.866 2.297-.565 2.548z" fill="#000"/><path fill-rule="evenodd" clip-rule="evenodd" d="M83.772 254.356c1.458 1.452 11.011 0 11.412-.036a5.597 5.597 0 0 1-2.166-.162c-.708-.137-1.322-.611-1.67-1.291-1.558-4.669 6.174-6.656 6.174-6.656l3.602-.168.696-.036 8.757-.408L111 243s-2.845.288-7.31.672c-2.51.222-5.567.468-8.868.702-9.225.661-11.418 7.113-11.418 7.113s-1.119 1.38.368 2.869z" fill="#3F3D56"/><path fill-rule="evenodd" clip-rule="evenodd" d="M189.568 150.955c.057.132.124.258.202.378l2.031 3.111 5.285.556.059-2.189.888-32.938s3.658-22.093-3.254-20.82c-6.912 1.272-2.574 20.82-2.574 20.82s-.787 9.912-1.339 12.89c-.537 2.879-2.946 14.58-1.298 18.192zM177 232.377l1.518 2.876 3.397 6.436s6.159 2.501 7.737.594c.864-1.04 1.797-4.671 2.452-7.725.537-2.472.896-4.558.896-4.558l-16 2.377z" fill="#FBBEBE"/><path opacity=".1" fill-rule="evenodd" clip-rule="evenodd" d="M177 231.797l1.518 2.203c.096-.069.182-.147.258-.232 1.717-1.857 9.277-.396 13.328-.278.537-1.893.896-3.49.896-3.49l-16 1.797zm-80 21.005a18.49 18.49 0 0 1 3.472.181c1.232.405 3.421-6.588 3.421-6.588l-3.295-.725 8.969-.362L110 243s-2.914.256-7.486.597a9.311 9.311 0 0 0-2.492 1.945l-.137.16c-1.91 2.191-2.617 5.016-2.885 7.1zm70 95.745l2.49 1.453c3.715-.592 7.108-1.522 7.509-2.985a.817.817 0 0 0 0-.07 27.948 27.948 0 0 1-1.316-.945L167 348.547zM158 352a69.673 69.673 0 0 0 10-1.371 40.087 40.087 0 0 0-6.015-1.6c-2.463-.339-3.725 2.344-3.985 2.971z" fill="#000"/><path fill-rule="evenodd" clip-rule="evenodd" d="M99 256.735c0 1.74 4.818 2.854 4.818 2.854l14.673 13.004s9.22 4.103 15.085 10.013 11.039.835 11.039.835c6.215-1.528 24.117-23.088 24.117-23.088s.417 24.622 1.255 26.428c.839 1.806-.279 6.745-.767 8.835a24.472 24.472 0 0 0-.351 5.282s-6.703 25.522-6.144 27.749c.559 2.226-3.634 12.66-3.634 12.66V350s16.416-.628 17.32-4.311c.905-3.683-4.116-5.288-4.116-5.288v-.906c3.289-1.67 3.908-13.14 3.908-13.14s4.895-14.188 5.591-16.551c.696-2.363 0-5.916 0-5.916l.488-3.055s1.047-2.09 1.047-2.505a6.176 6.176 0 0 1 1.189-2.92c.767-.906-.839-3.061-.839-3.061l1.398-3.618v-3.962l3.289-14.395s3.426-16.764 2.236-22.259c-1.189-5.496 1.398-8.273 1.398-8.273-5.607 2.925-8.436-3.585-9.362-6.385a16.97 16.97 0 0 1-.351-1.2s-7.701-2.827-14.87-2.15c-1.456.117-2.891.42-4.27.9-7.964 2.854-9.22 14.674-9.22 14.674l-7.054 10.712c-3.634 9.528-9.082 10.499-9.082 10.499s-12.783-8.551-13.155-8.971c-.373-.42-5.24-2.505-5.24-2.505a5.536 5.536 0 0 0-2.516-2.292c-1.677-.698-1.815-3.274-1.815-3.274-.208-6.052-3.771-6.548-3.771-6.548C98.929 242.274 99 254.999 99 256.735z" fill="#3F3D56"/><path fill="#F86D70" d="M177 223h-7v-23h7z"/><path opacity=".1" fill="#000" d="M177 223h-7v-23h7z"/><path opacity=".1" fill-rule="evenodd" clip-rule="evenodd" d="M190.001 151a.4.4 0 0 0 0 .049c.052.129.115.252.186.369l1.877 3.039 4.882.543.054-2.138c-1.523-.131-4.99-.592-6.999-1.862z" fill="#000"/><path fill-rule="evenodd" clip-rule="evenodd" d="M189.199 151s.285 12.426-2.848 14.122c-3.134 1.696-4.351 10.53-4.351 10.53s9.494 6.196 11.611 8.923c2.117 2.727 6.975 9.222 5.976 10.774-1 1.552 2.424 8.618 2.424 8.618s-6.267 12.714-4.843 17.519c1.425 4.806 1.564 17.514 1.564 17.514h2.709s-.855-10.453-.855-14.693c0-4.239 2.843-19.353 2.843-19.353s1.285-14.831 0-15.252c-1.284-.422-8.824-6.357-9.394-9.045-.569-2.688 3.988-27.712 3.988-27.712s-5.836-.249-8.824-1.945z" fill="#F86D70"/><path opacity=".1" fill-rule="evenodd" clip-rule="evenodd" d="M169 197.172a11.945 11.945 0 0 0 1.866 4.828l5.277-.884s15.849-3.524 19.12-3.811a20.673 20.673 0 0 0 5.737-1.613 24.897 24.897 0 0 0-7.087-11.462l-2.011-1.839a33.768 33.768 0 0 0-10.14-6.391c.235.193 16.863 14.19 13.221 16.936-3.641 2.745-13.445-3.939-13.445-3.939l-11.149-9.445-.403-.343-.644.989c.328.133.647.284.958.453a16.223 16.223 0 0 1 7.843 9.611c2.291 7.595-9.143 6.91-9.143 6.91z" fill="#000"/><path fill-rule="evenodd" clip-rule="evenodd" d="M167 232.219s10.341 6.198 12.853 2.723c.548-.765 1.705-1.098 3.147-1.187a19.612 19.612 0 0 1-.351-1.304s-7.704-3.073-14.876-2.337l-.773 2.105z" fill="#444053"/><path fill-rule="evenodd" clip-rule="evenodd" d="M171.802 178.179l11.408 9.724s9.643 6.654 13.277 3.908c3.635-2.746-13.061-16.811-13.061-16.811a33.809 33.809 0 0 1 10.008 6.325l1.986 1.826c5.222 4.796 6.401 4.796 6.578 11.845.044 1.737-.554 4.231-1.013 4.681-1.693 1.644-2.877 13.588-2.617 14.986.26 1.398-3.153 13.462-2.047 16.816 1.107 3.355-13.83-1.677-16.359 1.541-2.528 3.217-12.962-2.516-12.962-2.516s5.781-14.674 7.192-15.649c1.411-.976 3.104-8.524 0-12.015-3.104-3.492-3.38-6.847-3.38-6.847s11.286.691 9.023-6.846a15.864 15.864 0 0 0-8.675-9.987l.642-.981z" fill="#E8E8F0"/><path opacity=".1" fill-rule="evenodd" clip-rule="evenodd" d="M186.991 204s-4.801 7.644-11.01 9.628c-.2.062-.395.118-.607.17-6.482 1.666 12.102-7.429 11.617-9.798z" fill="#000"/><path fill-rule="evenodd" clip-rule="evenodd" d="M124.428 130.559s2.185 5.358 3.934 7.189c1.75 1.83 14.717 20.155 14.717 20.155l1.098 2.211.944 1.886 8.307-.846.572-3.24-.32-.376c-.835-.968-3.111-3.567-4.637-4.7-1.893-1.405-5.684-6.055-5.684-6.055s-11.801-11.844-12.676-15.085c-.874-3.24-12.681-22.671-15.3-19.309-2.619 3.362 9.045 18.17 9.045 18.17z" fill="#FBBEBE"/><path d="M148.374 217.16a6.42 6.42 0 0 0-2.865.408c-2.01.966-2.39 3.577-3.507 5.492-1.306 2.241-3.797 3.626-6.36 4.14-.51.097-1.024.167-1.542.209 1.633.157 3.28.087 4.892-.209 2.564-.514 5.054-1.899 6.361-4.14 1.117-1.915 1.497-4.526 3.507-5.492a4.503 4.503 0 0 1 1.675-.386l-2.161-.022zm19.836-42.34c0-4.388 2.887-8.169 5.266-11.873 2.379-3.703 4.378-8.378 2.496-12.352-1.608-3.395-11.302-7.948-16.898-7.049 5.478.701 12.23 4.267 13.548 7.049 1.882 3.974-.117 8.649-2.496 12.352-2.379 3.704-5.278 7.485-5.267 11.873 0 5.663-.385 9.935-1.96 15.405-.452 1.573 3.909 3.952 3.239 5.442-2.267 4.967-1.206 10.697-1.569 16.128a6.644 6.644 0 0 1-.765 3.047c-1.117 1.815-3.407 2.285-5.635 2.384h1.949c2.603 0 5.691-.199 7.037-2.401a6.653 6.653 0 0 0 .765-3.047c.363-5.431-.698-11.166 1.569-16.128.681-1.49-3.691-3.863-3.239-5.442 1.575-5.431 1.971-9.725 1.96-15.388zM143 159.31l.96 1.69 8.458-.758.582-2.905-.326-.337c-.902.377-7.66 3.147-9.674 2.31z" opacity=".1" fill-rule="evenodd" clip-rule="evenodd" fill="#000"/><path opacity=".1" fill-rule="evenodd" clip-rule="evenodd" d="M173 181.47s-1.96-3.106-3.08-2.263-1.554-2.546-2.196-1.98c-.643.565-2.515 2.141-3.294-.061-.61-1.753-7.242-12.842-9.932-17.302-.692-1.154-1.126-1.864-1.126-1.864s-7.555 3.816-9.372 2.546v2.685l1.537.144 8.236 15.532s2.591 4.166 2.416 5.62c-.176 1.453 3.321 7.816 3.881 8.237.56.422 6.589 7.494 6.589 7.494s3.08 15.272.417 19.515c-2.663 4.244-7.275 7.35-7.275 7.35s-1.389 4.1-1.186 4.527c.203.427-1.614 2.263-.774 2.829.84.566 1.96 4.521 1.96 4.521s3.92-6.363 6.04-7.35c2.119-.987 4.831-14.001 4.831-14.001s.774-7.666.835-12.614c.06-4.949-.187-23.565 1.493-23.565z" fill="#000"/><path fill-rule="evenodd" clip-rule="evenodd" d="M173 181.461s-1.955-3.106-3.075-2.263-1.559-2.545-2.196-1.979c-.637.565-2.509 2.14-3.294-.061-.615-1.753-7.247-12.837-9.932-17.295L153.378 158s-7.555 3.815-9.378 2.545v2.684l1.543.144 8.235 15.526s2.597 4.164 2.416 5.617c-.181 1.453 3.294 7.813 3.882 8.234.587.421 6.588 7.491 6.588 7.491s3.08 15.265.423 19.507a25.891 25.891 0 0 1-5.068 5.667 9.911 9.911 0 0 0-3.294 5.334 2.135 2.135 0 0 0-.099.887c.203.422-1.614 2.263-.774 2.828.84.566 1.971 4.536 1.971 4.536s3.92-6.36 6.04-7.347c2.119-.987 4.837-13.995 4.837-13.995s.768-7.663.834-12.609c.066-4.947-.181-23.588 1.466-23.588z" fill="#F86D70"/><path opacity=".1" fill-rule="evenodd" clip-rule="evenodd" d="M152.775 245s6.338 1.034 8.877 2.631c2.539 1.597-9.652-2.502-9.652-2.502l.775-.129zM168 260s4.748 5.119 3.898 9.742c-.85 4.624-3.044 16.258-3.044 16.258L168 260zm-55-9s-7.461 1.187-6.977 2.594c.483 1.408 6.977-1.297 6.977-1.297V251zm67.967 42.706s.502.662-2.43 0c-2.932-.662-.768-2.706-.768-2.706l3.198 2.706zM180 302.5s-4.308 1.125-6.618 0c-2.31-1.125 6.618 0 6.618 0zm-9 37.798s-.824-1.092-4.949.906c-4.125 1.997-5.773 2.09-6.973 1.426-1.201-.663 11.922-2.332 11.922-2.332zM175 249l-6 7s3.229-6.129 6-7zm-11-70s-.208 2.863-3.309 3.979C157.59 184.096 157 185 157 185m-1-24s-4.893 3.669-10 2.892zm4 71.915s1.176.864 4-2.915zM192.978 192c.128-.607-.329-1.17-.758-1.645l-.881-.979a3.958 3.958 0 0 0-.578-.549c-.53-.377-1.209-.489-1.761-.827" fill="#000"/><path opacity=".1" fill-rule="evenodd" clip-rule="evenodd" d="M488.136.062s-46.115-2.864-40.693 30.393c0 0-1.095 5.879 4.098 8.545 0 0 .082-2.463 4.732-1.623 1.656.282 3.338.365 5.012.248a10.286 10.286 0 0 0 6.124-2.605s12.965-5.512 18.004-27.315c0 0 3.731-4.757 3.583-5.98l-7.784 3.421s2.662 5.778.548 10.58c0 0-.252-10.371-1.747-10.146-.302.05-4.043 2.001-4.043 2.001s4.574 10.062 1.123 17.378c0 0 1.309-12.4-2.552-16.65l-5.478 3.291s5.346 10.394 1.72 18.877c0 0 .931-13.01-2.876-18.076l-4.962 3.985s5.023 10.247 1.961 17.282c0 0-.4-15.146-3.035-16.29 0 0-4.344 3.945-5.006 5.558 0 0 3.44 7.44 1.303 11.363 0 0-1.309-10.09-2.382-10.146 0 0-4.328 6.685-4.777 11.273 0 0 .186-6.814 3.73-11.904 0 0-4.184.738-6.627 3.528 0 0 .673-4.723 7.695-5.135 0 0 3.577-5.073 4.53-5.383 0 0-6.978-.597-11.212 1.33 0 0 3.725-4.458 12.494-2.429l4.902-4.12s-9.191-1.291-13.091.135c0 0 4.486-3.946 14.412-1.071l5.335-3.28s-7.839-1.737-12.505-1.128c0 0 4.929-2.734 14.071.231l3.834-1.764s-5.74-1.161-7.422-1.347c-1.681-.186-1.769-.66-1.769-.66a19.389 19.389 0 0 1 10.785 1.235s8.107-3.078 7.965-3.602zm-56.533 7.965s-20.845-1.25-18.404 13.243c0 0-.488 2.567 1.848 3.73 0 0 .039-1.087 2.145-.712a9.694 9.694 0 0 0 2.266.108 4.72 4.72 0 0 0 2.77-1.136s5.87-2.397 8.152-11.9c0 0 1.684-2.077 1.618-2.61l-3.522 1.49s1.207 2.522.258 4.615c0 0-.115-4.523-.79-4.414-.137 0-1.832.87-1.832.87s2.074 4.387.51 7.578c0 0 .593-5.404-1.157-7.257l-2.48 1.435s2.425 4.528.779 8.225c0 0 .423-5.67-1.3-7.877l-2.244 1.756s2.271 4.469.889 7.53c0 0-.181-6.6-1.377-7.095 0 0-1.964 1.718-2.265 2.424 0 0 1.558 3.262.592 4.948 0 0-.592-4.399-1.097-4.415 0 0-1.953 2.914-2.161 4.893a10.56 10.56 0 0 1 1.689-5.192 5.917 5.917 0 0 0-3 1.539s.307-2.055 3.483-2.24c0 0 1.646-2.207 2.052-2.343 0 0-3.16-.261-5.075.581 0 0 1.684-1.946 5.656-1.087l2.194-1.794s-4.158-.544-5.924.06c0 0 2.029-1.718 6.522-.468l2.414-1.43s-3.544-.76-5.661-.483c0 0 2.232-1.196 6.369.097l1.728-.766s-2.601-.511-3.363-.587c-.763-.076-.801-.288-.801-.288a9.065 9.065 0 0 1 4.882.543s3.703-1.343 3.637-1.57z" fill="#009688"/><path fill-rule="evenodd" clip-rule="evenodd" d="M504 358c12.15 0 22-1.567 22-3.5s-9.85-3.5-22-3.5-22 1.567-22 3.5 9.85 3.5 22 3.5z" fill="#009688"/><path fill-rule="evenodd" clip-rule="evenodd" d="M513.787 348.718a6.08 6.08 0 0 0 2.141-3.036c.28-1.201-.268-2.622-1.498-3.088-1.375-.493-2.845.403-3.958 1.305-1.112.902-2.392 1.935-3.846 1.741 1.524-1.298 2.211-3.25 1.812-5.144a2.1 2.1 0 0 0-.504-1.048c-.765-.766-2.146-.441-3.063.162-2.907 1.919-3.718 5.626-3.734 8.956-.291-1.201-.045-2.454-.051-3.671-.005-1.216-.369-2.621-1.481-3.266a4.668 4.668 0 0 0-2.236-.493c-1.303-.047-2.762.079-3.651.975-1.118 1.112-.821 2.978.14 4.195.962 1.216 2.432 1.998 3.785 2.842a8.177 8.177 0 0 1 2.7 2.417c.084.138.151.284.201.435h8.195a22.89 22.89 0 0 0 5.048-3.282z" fill="#009688"/><defs><linearGradient id="paint0_linear" x1="515.985" y1="279.029" x2="515.985" y2="56.063" gradientUnits="userSpaceOnUse"><stop stop-color="gray" stop-opacity=".25"/><stop offset=".54" stop-color="gray" stop-opacity=".12"/><stop offset="1" stop-color="gray" stop-opacity=".1"/></linearGradient><linearGradient id="paint1_linear" x1="83.021" y1="355.978" x2="204.996" y2="355.978" gradientUnits="userSpaceOnUse"><stop stop-color="gray" stop-opacity=".25"/><stop offset=".54" stop-color="gray" stop-opacity=".12"/><stop offset="1" stop-color="gray" stop-opacity=".1"/></linearGradient></defs></svg>