<svg width="336" height="250" fill="none" xmlns="http://www.w3.org/2000/svg"><path fill-rule="evenodd" clip-rule="evenodd" d="M333.281 143.345c.44 2.401.881 4.802 1.363 7.194 1.185 5.875 1.334 15.861 1.353 17.325-2.716 8.175-8.505 12.947-16.766 14.59-7.892 1.57-15.844 2.867-23.802 4.068-9.03 1.363-16.177-3.067-18.711-11.875-1.093-3.795-1.767-7.714-2.44-11.629-.214-1.244-.428-2.489-.656-3.729a531.243 531.243 0 0 0-1.287-6.629c.267-4.11-2.628-7.19-6.47-6.669-2.703.365-5.398.811-8.077 1.323-2.377.454-3.773 2.021-4.059 4.478l-.133.033-.088 2.359c.068.497.135.95.197 1.374.124.84.232 1.566.299 2.295.109 1.187.25 2.375.392 3.564.336 2.819.671 5.639.574 8.444-.238 6.902-5.504 12.646-12.337 13.969-3.71.718-7.432 1.38-11.154 2.042a929.99 929.99 0 0 0-8.793 1.592c-.631.119-1.453.555-1.715 1.079-.2.402-.423.876-.669 1.398-1.365 2.896-3.429 7.277-6.165 9.155-4.429 3.039-9.038 5.288-14.183 6.321-2.88.579-5.816.878-8.753 1.178-1.304.132-2.607.265-3.906.423.426 4.197.607 4.218 4.454 4.664l.18.021c9.248 1.072 17.675 3.719 24.726 10.554 6.957 6.745 1.756 16.213-6.623 21.101-6.722 3.921-14.137 5.664-21.792 6.331-10.11.879-20.038-.003-29.517-3.967-4.523-1.892-6.827-3.63-10.341-7.446a180 180 0 0 0-4.999 1.924c-3.585 1.419-7.11 2.815-10.759 3.678-12.815 3.028-25.555 2.836-37.6-3.306-6.792-3.464-10.084-12.404-6.035-18.121 4.44-6.27 11.275-9.052 18.38-11.113l.085-.024c5.652-1.639 5.658-1.64 5.104-7.619l-.002-.031c-.415-4.477-.418-4.505-4.776-5.673-8.769-2.35-16.773-5.968-22.686-13.256-.024-.03-.06-.071-.107-.125-.87-1.007-5.445-6.295-5.157-17.981l.007-.298c.082-3.338.165-6.681.436-10.006.086-1.045.109-2.287.133-3.615a95.75 95.75 0 0 1 .111-3.643c.832-15.013 1.885-30.014 2.943-45.013.166-2.347-.186-4.14-1.984-5.975l.08-.313A2131.652 2131.652 0 0 1 71.12 86.704c-7.602-8.094-15.431-16.43-20.756-21.635-1.788-1.747-3.6-3.47-5.411-5.192-.823-.783-1.646-1.566-2.467-2.351l-.006.002-.898.245-.068 3.918c-.048 2.878-.097 5.755-.16 8.632-.123 5.59-4.4 9.954-9.713 9.941-5.316-.013-9.773-4.466-9.303-10.154.286-3.464 1.238-6.886 2.183-10.282.201-.724.402-1.446.596-2.167.318-1.18.901-2.287 1.485-3.394.265-.504.53-1.007.77-1.517l-.594-.482-2.034 1.696a958.125 958.125 0 0 1-4.639 3.857 50.91 50.91 0 0 0-1.815 1.6c-1.383 1.259-2.766 2.519-4.374 3.33C7.304 66.084.842 62.324.076 54.982c-.743-7.106 4.09-14.617 11.448-17.153 2.843-.979 5.78-1.684 8.976-2.452 1.52-.365 3.098-.744 4.753-1.174-1.495-.312-2.92-.605-4.297-.889a634.156 634.156 0 0 1-8.358-1.758c-5.359-1.177-9.092-5.105-9.67-10.083-.502-4.323 2.397-8.942 7.212-11.164 5.68-2.622 11.21-1.803 16.46 1.238 5.451 3.158 9.596 7.736 13.25 12.791.588.812 1.17 1.627 1.75 2.44l.824 1.15c.602-1.008 1.181-1.996 1.75-2.966 1.233-2.098 2.415-4.113 3.669-6.083 4.25-6.684 12.528-8.664 19.37-4.709 4.256 2.46 6.513 6.363 5.762 10.618-.798 4.515-3.972 6.806-8.19 7.88-.262.067-.532.11-.802.155-.408.066-.816.132-1.193.278-.722.278-1.447.55-2.171.824-2.458.927-4.918 1.854-7.287 2.973-1.879.89-2.178 2.163-.397 3.93 3.31 3.286 6.526 6.67 9.74 10.053a944.924 944.924 0 0 0 4.93 5.16c2.017 2.091 6.234 6.666 10.585 11.386a2212.53 2212.53 0 0 0 8.667 9.368l.587-3.213c.558-3.06 1.077-5.903 1.625-8.736 1.73-8.94 3.94-17.722 7.361-26.211 4.744-11.77 13.581-17.995 25.788-19.786 1.923-.283 2.569-1.062 3.06-2.71 1.79-5.999 4.558-11.373 10.482-14.302 9.014-4.456 21.642-.981 23.505 12.369.38 2.722 1.344 3.523 3.975 3.586 5.14.122 10.277.556 15.403 1.001 1.752.152 2.511-.289 3.118-2.068 1.487-4.358 3.753-8.344 7.546-11.15 9.217-6.82 22.303-1.858 24.961 9.468.466 1.987.653 4.069.71 6.114.043 1.56.602 2.214 2.1 2.67 8.183 2.487 14.786 7.298 18.133 15.219 1.883 4.456 2.473 9.584 2.963 14.478.461 4.615.605 9.263.753 14.036.065 2.08.13 4.186.223 6.322 1.392-1.38 2.77-2.743 4.138-4.096 3.067-3.035 6.082-6.018 9.08-9.017 1.679-1.678 3.345-3.37 5.011-5.06 3.279-3.328 6.557-6.656 9.93-9.886 1.812-1.736 1.536-3.014-.328-3.936-2.353-1.165-4.8-2.138-7.246-3.11-.715-.284-1.429-.569-2.141-.857-.376-.153-.782-.226-1.189-.3a9.282 9.282 0 0 1-.799-.169c-4.197-1.15-7.329-3.497-8.046-8.026-.675-4.267 1.652-8.13 5.95-10.512 6.913-3.832 15.154-1.703 19.285 5.057 1.211 1.983 2.352 4.009 3.54 6.118.557.99 1.125 1.997 1.715 3.028.279-.376.559-.752.838-1.13.597-.804 1.196-1.61 1.799-2.414 3.745-4.989 7.971-9.49 13.477-12.55 5.304-2.947 10.85-3.665 16.481-.942 4.774 2.308 7.59 6.979 7.011 11.292-.667 4.967-4.471 8.827-9.85 9.907a655.344 655.344 0 0 1-8.361 1.603c-1.39.26-2.829.53-4.34.816 1.646.46 3.217.866 4.73 1.258 3.183.826 6.107 1.584 8.932 2.615 7.312 2.668 12.009 10.264 11.139 17.356-.898 7.327-7.426 10.97-13.977 7.518-1.593-.84-2.954-2.124-4.313-3.407a49.733 49.733 0 0 0-1.788-1.634 924.521 924.521 0 0 1-4.573-3.943l-1.999-1.73-.602.472c.231.515.487 1.023.743 1.53.563 1.119 1.127 2.236 1.423 3.421.181.721.368 1.444.555 2.168.885 3.416 1.777 6.858 2.001 10.33.367 5.695-4.168 10.067-9.484 9.984-5.313-.082-9.51-4.523-9.533-10.114-.012-2.88-.009-5.762-.006-8.643l.003-3.909-.393-.115-.506-.148c-.838.773-1.677 1.543-2.517 2.313a550.217 550.217 0 0 0-5.495 5.087 7491.907 7491.907 0 0 1-5.05 4.757c-8.322 7.837-16.643 15.674-24.864 23.616-1.222 1.18-2.097 3.134-2.347 4.844-.632 4.329-1.169 8.673-1.706 13.016-.558 4.513-1.116 9.026-1.781 13.523-.754 5.102-1.69 10.179-2.639 15.33-.326 1.77-.653 3.549-.976 5.34l-.223.041-1.249 6.258a41.79 41.79 0 0 0-.247 1.111c-.256 1.213-.542 2.42-.828 3.627-.245 1.035-.49 2.071-.717 3.111a137.238 137.238 0 0 0-.712 3.576c-.111.586-.227 1.191-.35 1.824.802-.143 1.562-.27 2.293-.391 1.565-.26 2.994-.497 4.401-.827 2.437-.571 3.615-2.253 3.315-4.739-.273-2.263-.615-4.516-.955-6.757l-.013-.082.059-.036-.416-7.509-.029.005c.132-1.358.274-2.701.564-4.012 1.882-8.502 7.459-13.277 15.74-15.018l1.911-.404c5.56-1.176 11.138-2.356 16.767-3.014 7.027-.82 12.656 2.33 16.981 7.778 3.149 3.966 4.15 8.776 4.939 13.635.218 1.342.358 2.186.635 2.72l.376 4.15.277.07c.124.631.243 1.255.361 1.872.459 2.409.899 4.717 1.541 6.967.56 1.96 2.373 2.604 4.36 2.275l.484-.081c3.286-.544 6.574-1.089 9.833-1.767 3.628-.755 5.169-2.578 4.851-5.435-.264-2.383-.406-3.658-.986-4.34l-.641-2.782h.244a672.915 672.915 0 0 0-.793-4.122c-.587-3.021-1.159-5.963-1.636-8.921-.141-.879-.296-1.76-.45-2.642-.571-3.259-1.145-6.533-1.1-9.789.069-4.96 3.148-8.052 7.666-9.015 4.716-1.005 9.87.704 11.819 4.758 1.536 3.196 2.322 6.802 3.088 10.316l.094.429c.722 3.308 1.333 6.64 1.945 9.972zm2.716 24.519l.003.182v-.19a.069.069 0 0 1-.003.008zm-205.484 41.081c8.735 1.358 17.164 2.884 22.892 9.39a63282.928 63282.928 0 0 1 17.895-6.687c-.066-.366-.117-.745-.169-1.13-.127-.936-.257-1.903-.603-2.785-.276-.701-1.216-1.546-1.925-1.614-8.749-.845-17.505-1.617-26.26-2.39l-7.504-.664c-1.295-.115-2.59-.245-3.962-.382-.639-.064-1.295-.13-1.975-.196l.517 2.072 1.094 4.386z" fill="#000"/><path fill-rule="evenodd" clip-rule="evenodd" d="M222.191 184.125c.965-3.711 1.769-7.107 2.792-10.436.174-.566 1.234-1.046 1.967-1.219 2.074-.49 4.212-.713 6.288-1.201 3.735-.879 5.506-3.223 5.257-7.082-.182-2.818-.54-5.63-.945-8.427-1.739-12.002 3.53-21.15 15.876-22.834 5.074-.691 10.076-1.906 15.113-2.873 8.517-1.637 17.175 4.774 19.181 14.339 1.3 6.193 2.313 12.447 3.618 18.64 1.098 5.213 3.855 7.031 9.098 6.209 3.287-.515 6.56-1.128 9.826-1.764 4.725-.92 7.26-4.328 6.42-9.179-1.606-9.27-3.432-18.501-5.2-27.742-.99-5.178 1.107-9.041 5.516-10.021 4.934-1.097 9.221 1.609 10.278 6.796 2.152 10.561 4.476 21.105 6.109 31.752 1.926 12.553-6.009 18.923-16.313 20.786-6.644 1.202-13.33 2.172-19.968 3.404-9.538 1.769-15.886-1.912-18.101-11.318-1.742-7.4-2.768-14.965-4.175-22.446-.795-4.232-4.232-6.965-8.47-6.579-2.97.271-5.953.718-8.845 1.43-5.418 1.333-7.645 5.548-6.512 11.529.668 3.527 1.493 7.084 1.6 10.646.251 8.367-3.667 13.059-11.949 14.685-5.535 1.086-11.115 1.949-16.677 2.896-.407.069-.835.009-1.784.009zm-71.076 35.69c-1.692 3.219-3.315 5.989-4.593 8.908-.473 1.079-.458 2.615-.095 3.76.555 1.745-.154 2.508-1.487 3.258-5.281 2.973-10.963 4.755-16.914 5.681-8.831 1.373-17.642 1.275-26.101-1.811-3.283-1.198-6.48-3.145-9.132-5.431-3.229-2.781-3.144-7.308-.445-10.671 4.346-5.416 10.482-7.764 16.847-9.672 1.294-.388 2.631-.634 4.35-1.04.172 1.737.164 3.263.529 4.693.208.813.368 2.029 1.573 2.194 1.706-.581 1.375-1.6 1.338-2.365-.23-4.79-.682-9.569-1.029-14.354-.073-1.01-.01-2.031-.01-3.218.573.088.967.126 1.352.21 2.824.618 6.62.355 8.217 2.102 1.883 2.06 1.887 5.859 2.66 8.915.523 2.072.825 4.212 1.519 6.221.284.821.55 2.324 2.047 2.049 1.83-.558.87-1.81.831-2.696-.06-1.403-.528-2.788-.903-4.556 7.599 1.129 14.555 2.631 19.446 7.823z" fill="#FFF200"/><path fill-rule="evenodd" clip-rule="evenodd" d="M316.953 55.819c-1.886-7.147-7.528-10.192-14.047-11.615-4.302-.939-8.809-.914-13.212-1.423-.71-.082-1.36-.7-2.038-1.07.444-.559.809-1.218 1.355-1.648.521-.411 1.205-.673 1.859-.848 5.512-1.476 11.018-2.979 16.557-4.35 4.549-1.127 7.71-4.366 7.876-8.327.155-3.697-3.086-7.61-7.351-8.876-5.661-1.681-10.628-.07-15.203 3.265-5.42 3.95-9.573 9.041-13.115 14.682-.525.837-1.204 1.577-2.186 2.843-.622-1.294-.933-1.97-1.269-2.636-1.808-3.582-3.399-7.297-5.485-10.71-3.138-5.135-8.108-6.732-13.748-4.862-4.451 1.476-7.153 4.639-6.979 8.167.179 3.65 2.984 6.152 7.936 7.08.084.016.173.01.255.03 4.763 1.213 9.406 2.629 12.657 6.726 1.072 1.351 1.249 2.422-.117 3.768-5.311 5.235-10.527 10.567-15.792 15.85a112811.391 112811.391 0 0 1-42.865 42.99c-2.663 2.669-5.317 5.351-8.063 7.933-.412.387-1.306.258-1.978.368.079-.675.045-1.391.276-2.009.164-.439.684-.746 1.047-1.111 10.233-10.263 20.452-20.541 30.719-30.77 1.294-1.29 2.022-2.613 1.946-4.495-.321-7.884-.438-15.779-.866-23.657-.233-4.266-.743-8.529-3.058-12.352-3.943-6.514-9.685-10.553-16.959-12.38-2.223-.558-2.888-1.517-2.688-3.745.167-1.849-.144-3.766-.426-5.625-.814-5.363-4.81-9.717-9.925-10.953-5.271-1.275-10.714.595-13.785 5.202-1.734 2.602-3.06 5.53-4.194 8.459-.68 1.753-1.453 2.402-3.322 2.26-6.403-.489-12.814-.913-19.23-1.208-3.977-.182-3.944-.17-4.454-4.195-.725-5.731-2.745-10.767-8.907-12.609-6.054-1.81-11.413-.494-15.454 4.544-1.48 1.845-3.205 3.994-3.51 6.187-.816 5.862-4.523 7.031-9.53 7.901-8.327 1.447-15.033 5.736-18.577 13.826-1.814 4.142-3.569 8.35-4.85 12.677-3.19 10.78-5.143 21.794-6.702 32.878-7.978-8.293-15.957-16.584-23.93-24.88-5.17-5.376-10.29-10.8-15.506-16.131-1.342-1.37-1.145-2.438-.049-3.77 3.324-4.037 7.99-5.369 12.775-6.496.082-.02.172-.012.255-.026 4.969-.84 7.818-3.29 8.063-6.936.237-3.525-2.409-6.736-6.832-8.292-5.605-1.97-10.603-.463-13.834 4.614-2.146 3.375-3.804 7.06-5.676 10.61-.347.659-.67 1.33-1.316 2.612-.959-1.284-1.625-2.035-2.135-2.882-3.44-5.703-7.5-10.87-12.85-14.916-4.513-3.417-9.45-5.117-15.14-3.538-4.287 1.19-7.598 5.044-7.51 8.742.096 3.964 3.198 7.259 7.726 8.468 5.513 1.47 10.992 3.072 16.476 4.647.65.186 1.33.46 1.844.881.537.44.89 1.106 1.325 1.673-.685.357-1.345.964-2.057 1.033-4.412.43-8.918.323-13.235 1.185C11.4 39.885 5.705 42.827 3.69 49.94c-.544 1.918-.736 4.113-.411 6.067.741 4.474 5.347 6.803 9.474 4.8 1.95-.945 3.793-2.365 5.288-3.946 3.302-3.489 7.027-6.28 11.51-7.975.856-.325 1.92-.099 2.888-.127-.248.881-.315 1.876-.777 2.626-3.038 4.93-5.44 10.09-6.367 15.87-.533 3.323-.122 6.404 2.404 8.784 1.951 1.838 4.375 2.3 6.92 1.255 3.01-1.238 4.458-3.632 4.669-6.8.307-4.613.489-9.235.88-13.84.084-1.004.827-1.95 1.267-2.924.935.476 2.062.758 2.779 1.458a26198.059 26198.059 0 0 1 43.317 42.39c-.01.088-.02.174-.032.261-2.822 22.84-3.912 45.785-4.528 68.78-.314 11.709 5.52 19.203 15.142 24.146 9.767 5.018 20.613 6.79 31.353 8.121 13.837 1.717 27.782 2.544 41.67 3.881.888.085 2.243 1.128 2.411 1.931.968 4.601 1.704 9.256 2.347 13.917.092.668-.325 1.737-1.16 2.204-1.66-.051-1.443-.891-1.68-1.52-.493-1.307-.654-2.738-.977-4.236-1.065.224-1.893.372-2.707.575-5.947 1.483-11.625 3.532-16.284 7.74-4.815 4.349-4.994 10.207-.137 14.503 2.015 1.783 4.412 3.317 6.889 4.359 12.723 5.351 25.834 5.424 39.013 2.087 5.493-1.392 10.722-3.602 14.83-7.792 4.154-4.237 4.239-9.228-.026-13.363-6.596-6.395-15.005-7.968-24.084-8.928.367 1.538.841 2.665.841 3.793 0 .929.542 2.315-.875 2.786-1.078-.471-1.792-1.249-2.06-2.077-1.051-3.249-1.832-6.586-2.741-9.883-1.54-5.596-1.549-5.539 4.196-5.608 7.272-.088 14.343-1.186 20.718-4.975 3.936-2.34 7.029-5.486 8.266-10.073 1.535-5.695 3.313-11.348 4.453-17.125 3.612-18.296 7.025-36.633 10.398-54.976.714-3.884.93-7.861 1.428-12.265-.686.527-.957.7-1.187.916-7.12 6.697-14.209 13.427-21.39 20.056-.78.72-2.088.867-3.151 1.28.488-1.025.731-2.309 1.5-3.038 22.083-20.95 44.213-41.85 66.375-62.718.729-.687 1.86-.948 2.804-1.407.423.98 1.148 1.941 1.215 2.945.308 4.612.406 9.237.631 13.854.154 3.172 1.559 5.591 4.547 6.883 2.526 1.092 4.956.672 6.94-1.13 2.569-2.333 3.036-5.408 2.562-8.74-.824-5.795-3.132-10.998-6.081-15.981-.449-.758-.497-1.754-.73-2.64.967.046 2.036-.16 2.886.18 4.451 1.776 8.125 4.633 11.364 8.18 1.467 1.607 3.284 3.06 5.217 4.042 4.09 2.076 8.737-.17 9.558-4.63.36-1.948.207-4.145-.302-6.073zm-154.859-6.395c2.71-2.565 5.934-2.237 7.664 1.072.997 1.91 2.069 3.72 2.22 6.838-.567 3.127-1.399 5.625-3.424 7.578-2.835 2.735-5.804 3.05-8.02-.164-2.689-3.9-1.855-12.09 1.56-15.324zm-40.466 13.067c-2.374-4.886-1.825-9.72 1.205-14.096 2.489-3.597 6.712-3.121 8.539.873.795 1.737 1.048 3.723 1.547 5.596-.302 3.278-1.102 6.203-3.268 8.605-2.553 2.834-6.376 2.413-8.023-.978zm4.504 25.433c-4.438-5.65-3.107-12.795 3.339-16.049 3.046-1.538 9.962-2.853 10.038-2.638 5.036.064 9.625 1.46 13.44 4.853 6.179 5.495 5.724 12.768-1.025 17.566-7.077 5.031-20.425 3.1-25.792-3.732zm57.683 32.03c-5.268 10.229-16.371 16.784-30.934 16.756-7.35-.368-15.531-3.786-20.043-13.236-2.606-5.46-2.272-11.117-.316-16.751.599-1.724 1.416-2.104 3.271-1.528 12.257 3.804 25.777-.98 33.052-11.546.339-.494.674-.996.962-1.521 1.916-3.491 2.09-3.548 5.588-1.699 10.56 5.583 14.191 18.318 8.42 29.525z" fill="#FFF200"/><path fill-rule="evenodd" clip-rule="evenodd" d="M183.198 104.523c-2.741 1.871-6.286 1.913-8.535 4.252l.411 1.037 8.466-3.086c2.46 7.907-5.278 19.711-15.178 24.401-12.47 5.908-27.176 2.027-31.476-5.499l8.566-3.805-.295-.959c-.647.039-1.349-.066-1.932.146-2.095.762-4.109 1.765-6.243 2.381-.653.188-2.057-.363-2.322-.933-2.053-4.41-2.135-8.999-.615-13.577.135-.407 1.352-.802 1.95-.675 13.173 2.796 24.107-.965 32.978-10.786 1.021-1.13 1.658-2.605 2.722-3.682.517-.523 1.804-.92 2.412-.652 4.37 1.934 8.143 6.788 9.091 11.437z" fill="#BE1E2D"/><path fill-rule="evenodd" clip-rule="evenodd" d="M169.604 55.745c-.194.822-.159 1.824-.641 2.422-.624.777-1.717 1.759-2.504 1.676-.755-.078-1.546-1.318-1.998-2.207-.311-.612-.158-1.506-.059-2.255.222-1.68.842-3.596 2.788-3.245 1.117.201 2.568 3.462 2.414 3.61zm-39.557-2.859c-.084 3.37-1.077 5.652-2.585 5.373-2.15-.397-2.459-2.129-2.414-3.927.057-2.318 1.638-4.591 2.973-4.015 1.243.537 1.527 2.035 2.026 2.569zm-4.825 28.69c.19-4.768 2.909-7.273 6.706-8.81 6.047-2.45 15.871-1.387 20.476 4.379 2.338 2.927 2.688 5.86.874 8.559-7.83-10.852-14.238-11.86-28.056-4.128z" fill="#fff"/></svg>